<?xml version="1.0" encoding="utf-8" standalone="no"?>
<!DOCTYPE svg PUBLIC "-//W3C//DTD SVG 1.1//EN"
  "http://www.w3.org/Graphics/SVG/1.1/DTD/svg11.dtd">
<svg xmlns:xlink="http://www.w3.org/1999/xlink" width="724.402188pt" height="369.414873pt" viewBox="0 0 724.402188 369.414873" xmlns="http://www.w3.org/2000/svg" version="1.1">
 <metadata>
  <rdf:RDF xmlns:dc="http://purl.org/dc/elements/1.1/" xmlns:cc="http://creativecommons.org/ns#" xmlns:rdf="http://www.w3.org/1999/02/22-rdf-syntax-ns#">
   <cc:Work>
    <dc:type rdf:resource="http://purl.org/dc/dcmitype/StillImage"/>
    <dc:date>2026-03-16T20:53:22.625235</dc:date>
    <dc:format>image/svg+xml</dc:format>
    <dc:creator>
     <cc:Agent>
      <dc:title>Matplotlib v3.10.8, https://matplotlib.org/</dc:title>
     </cc:Agent>
    </dc:creator>
   </cc:Work>
  </rdf:RDF>
 </metadata>
 <defs>
  <style type="text/css">*{stroke-linejoin: round; stroke-linecap: butt}</style>
 </defs>
 <g id="figure_1">
  <g id="patch_1">
   <path d="M 0 369.414873 
L 724.402188 369.414873 
L 724.402188 0 
L 0 0 
z
" style="fill: #ffffff"/>
  </g>
  <g id="axes_1">
   <g id="patch_2">
    <path d="M 56.422188 309.70646 
L 707.122188 309.70646 
L 707.122188 43.4375 
L 56.422188 43.4375 
z
" style="fill: #ffffff"/>
   </g>
   <g id="matplotlib.axis_1">
    <g id="xtick_1">
     <g id="line2d_1"/>
     <g id="text_1">
      <!-- Neo4j + GDS -->
      <g style="fill: #334155" transform="translate(114.715135 328.064741) scale(0.11 -0.11)">
       <defs>
        <path id="DejaVuSans-4e" d="M 628 4666 
L 1478 4666 
L 3547 763 
L 3547 4666 
L 4159 4666 
L 4159 0 
L 3309 0 
L 1241 3903 
L 1241 0 
L 628 0 
L 628 4666 
z
" transform="scale(0.015625)"/>
        <path id="DejaVuSans-65" d="M 3597 1894 
L 3597 1613 
L 953 1613 
Q 991 1019 1311 708 
Q 1631 397 2203 397 
Q 2534 397 2845 478 
Q 3156 559 3463 722 
L 3463 178 
Q 3153 47 2828 -22 
Q 2503 -91 2169 -91 
Q 1331 -91 842 396 
Q 353 884 353 1716 
Q 353 2575 817 3079 
Q 1281 3584 2069 3584 
Q 2775 3584 3186 3129 
Q 3597 2675 3597 1894 
z
M 3022 2063 
Q 3016 2534 2758 2815 
Q 2500 3097 2075 3097 
Q 1594 3097 1305 2825 
Q 1016 2553 972 2059 
L 3022 2063 
z
" transform="scale(0.015625)"/>
        <path id="DejaVuSans-6f" d="M 1959 3097 
Q 1497 3097 1228 2736 
Q 959 2375 959 1747 
Q 959 1119 1226 758 
Q 1494 397 1959 397 
Q 2419 397 2687 759 
Q 2956 1122 2956 1747 
Q 2956 2369 2687 2733 
Q 2419 3097 1959 3097 
z
M 1959 3584 
Q 2709 3584 3137 3096 
Q 3566 2609 3566 1747 
Q 3566 888 3137 398 
Q 2709 -91 1959 -91 
Q 1206 -91 779 398 
Q 353 888 353 1747 
Q 353 2609 779 3096 
Q 1206 3584 1959 3584 
z
" transform="scale(0.015625)"/>
        <path id="DejaVuSans-34" d="M 2419 4116 
L 825 1625 
L 2419 1625 
L 2419 4116 
z
M 2253 4666 
L 3047 4666 
L 3047 1625 
L 3713 1625 
L 3713 1100 
L 3047 1100 
L 3047 0 
L 2419 0 
L 2419 1100 
L 313 1100 
L 313 1709 
L 2253 4666 
z
" transform="scale(0.015625)"/>
        <path id="DejaVuSans-6a" d="M 603 3500 
L 1178 3500 
L 1178 -63 
Q 1178 -731 923 -1031 
Q 669 -1331 103 -1331 
L -116 -1331 
L -116 -844 
L 38 -844 
Q 366 -844 484 -692 
Q 603 -541 603 -63 
L 603 3500 
z
M 603 4863 
L 1178 4863 
L 1178 4134 
L 603 4134 
L 603 4863 
z
" transform="scale(0.015625)"/>
        <path id="DejaVuSans-20" transform="scale(0.015625)"/>
        <path id="DejaVuSans-2b" d="M 2944 4013 
L 2944 2272 
L 4684 2272 
L 4684 1741 
L 2944 1741 
L 2944 0 
L 2419 0 
L 2419 1741 
L 678 1741 
L 678 2272 
L 2419 2272 
L 2419 4013 
L 2944 4013 
z
" transform="scale(0.015625)"/>
        <path id="DejaVuSans-47" d="M 3809 666 
L 3809 1919 
L 2778 1919 
L 2778 2438 
L 4434 2438 
L 4434 434 
Q 4069 175 3628 42 
Q 3188 -91 2688 -91 
Q 1594 -91 976 548 
Q 359 1188 359 2328 
Q 359 3472 976 4111 
Q 1594 4750 2688 4750 
Q 3144 4750 3555 4637 
Q 3966 4525 4313 4306 
L 4313 3634 
Q 3963 3931 3569 4081 
Q 3175 4231 2741 4231 
Q 1884 4231 1454 3753 
Q 1025 3275 1025 2328 
Q 1025 1384 1454 906 
Q 1884 428 2741 428 
Q 3075 428 3337 486 
Q 3600 544 3809 666 
z
" transform="scale(0.015625)"/>
        <path id="DejaVuSans-44" d="M 1259 4147 
L 1259 519 
L 2022 519 
Q 2988 519 3436 956 
Q 3884 1394 3884 2338 
Q 3884 3275 3436 3711 
Q 2988 4147 2022 4147 
L 1259 4147 
z
M 628 4666 
L 1925 4666 
Q 3281 4666 3915 4102 
Q 4550 3538 4550 2338 
Q 4550 1131 3912 565 
Q 3275 0 1925 0 
L 628 0 
L 628 4666 
z
" transform="scale(0.015625)"/>
        <path id="DejaVuSans-53" d="M 3425 4513 
L 3425 3897 
Q 3066 4069 2747 4153 
Q 2428 4238 2131 4238 
Q 1616 4238 1336 4038 
Q 1056 3838 1056 3469 
Q 1056 3159 1242 3001 
Q 1428 2844 1947 2747 
L 2328 2669 
Q 3034 2534 3370 2195 
Q 3706 1856 3706 1288 
Q 3706 609 3251 259 
Q 2797 -91 1919 -91 
Q 1588 -91 1214 -16 
Q 841 59 441 206 
L 441 856 
Q 825 641 1194 531 
Q 1563 422 1919 422 
Q 2459 422 2753 634 
Q 3047 847 3047 1241 
Q 3047 1584 2836 1778 
Q 2625 1972 2144 2069 
L 1759 2144 
Q 1053 2284 737 2584 
Q 422 2884 422 3419 
Q 422 4038 858 4394 
Q 1294 4750 2059 4750 
Q 2388 4750 2728 4690 
Q 3069 4631 3425 4513 
z
" transform="scale(0.015625)"/>
       </defs>
       <use xlink:href="#DejaVuSans-4e"/>
       <use xlink:href="#DejaVuSans-65" transform="translate(74.804688 0)"/>
       <use xlink:href="#DejaVuSans-6f" transform="translate(136.328125 0)"/>
       <use xlink:href="#DejaVuSans-34" transform="translate(197.509766 0)"/>
       <use xlink:href="#DejaVuSans-6a" transform="translate(261.132812 0)"/>
       <use xlink:href="#DejaVuSans-20" transform="translate(288.916016 0)"/>
       <use xlink:href="#DejaVuSans-2b" transform="translate(320.703125 0)"/>
       <use xlink:href="#DejaVuSans-20" transform="translate(404.492188 0)"/>
       <use xlink:href="#DejaVuSans-47" transform="translate(436.279297 0)"/>
       <use xlink:href="#DejaVuSans-44" transform="translate(513.769531 0)"/>
       <use xlink:href="#DejaVuSans-53" transform="translate(590.771484 0)"/>
      </g>
      <!-- (lower bound) -->
      <g style="fill: #334155" transform="translate(112.303729 340.382335) scale(0.11 -0.11)">
       <defs>
        <path id="DejaVuSans-28" d="M 1984 4856 
Q 1566 4138 1362 3434 
Q 1159 2731 1159 2009 
Q 1159 1288 1364 580 
Q 1569 -128 1984 -844 
L 1484 -844 
Q 1016 -109 783 600 
Q 550 1309 550 2009 
Q 550 2706 781 3412 
Q 1013 4119 1484 4856 
L 1984 4856 
z
" transform="scale(0.015625)"/>
        <path id="DejaVuSans-6c" d="M 603 4863 
L 1178 4863 
L 1178 0 
L 603 0 
L 603 4863 
z
" transform="scale(0.015625)"/>
        <path id="DejaVuSans-77" d="M 269 3500 
L 844 3500 
L 1563 769 
L 2278 3500 
L 2956 3500 
L 3675 769 
L 4391 3500 
L 4966 3500 
L 4050 0 
L 3372 0 
L 2619 2869 
L 1863 0 
L 1184 0 
L 269 3500 
z
" transform="scale(0.015625)"/>
        <path id="DejaVuSans-72" d="M 2631 2963 
Q 2534 3019 2420 3045 
Q 2306 3072 2169 3072 
Q 1681 3072 1420 2755 
Q 1159 2438 1159 1844 
L 1159 0 
L 581 0 
L 581 3500 
L 1159 3500 
L 1159 2956 
Q 1341 3275 1631 3429 
Q 1922 3584 2338 3584 
Q 2397 3584 2469 3576 
Q 2541 3569 2628 3553 
L 2631 2963 
z
" transform="scale(0.015625)"/>
        <path id="DejaVuSans-62" d="M 3116 1747 
Q 3116 2381 2855 2742 
Q 2594 3103 2138 3103 
Q 1681 3103 1420 2742 
Q 1159 2381 1159 1747 
Q 1159 1113 1420 752 
Q 1681 391 2138 391 
Q 2594 391 2855 752 
Q 3116 1113 3116 1747 
z
M 1159 2969 
Q 1341 3281 1617 3432 
Q 1894 3584 2278 3584 
Q 2916 3584 3314 3078 
Q 3713 2572 3713 1747 
Q 3713 922 3314 415 
Q 2916 -91 2278 -91 
Q 1894 -91 1617 61 
Q 1341 213 1159 525 
L 1159 0 
L 581 0 
L 581 4863 
L 1159 4863 
L 1159 2969 
z
" transform="scale(0.015625)"/>
        <path id="DejaVuSans-75" d="M 544 1381 
L 544 3500 
L 1119 3500 
L 1119 1403 
Q 1119 906 1312 657 
Q 1506 409 1894 409 
Q 2359 409 2629 706 
Q 2900 1003 2900 1516 
L 2900 3500 
L 3475 3500 
L 3475 0 
L 2900 0 
L 2900 538 
Q 2691 219 2414 64 
Q 2138 -91 1772 -91 
Q 1169 -91 856 284 
Q 544 659 544 1381 
z
M 1991 3584 
L 1991 3584 
z
" transform="scale(0.015625)"/>
        <path id="DejaVuSans-6e" d="M 3513 2113 
L 3513 0 
L 2938 0 
L 2938 2094 
Q 2938 2591 2744 2837 
Q 2550 3084 2163 3084 
Q 1697 3084 1428 2787 
Q 1159 2491 1159 1978 
L 1159 0 
L 581 0 
L 581 3500 
L 1159 3500 
L 1159 2956 
Q 1366 3272 1645 3428 
Q 1925 3584 2291 3584 
Q 2894 3584 3203 3211 
Q 3513 2838 3513 2113 
z
" transform="scale(0.015625)"/>
        <path id="DejaVuSans-64" d="M 2906 2969 
L 2906 4863 
L 3481 4863 
L 3481 0 
L 2906 0 
L 2906 525 
Q 2725 213 2448 61 
Q 2172 -91 1784 -91 
Q 1150 -91 751 415 
Q 353 922 353 1747 
Q 353 2572 751 3078 
Q 1150 3584 1784 3584 
Q 2172 3584 2448 3432 
Q 2725 3281 2906 2969 
z
M 947 1747 
Q 947 1113 1208 752 
Q 1469 391 1925 391 
Q 2381 391 2643 752 
Q 2906 1113 2906 1747 
Q 2906 2381 2643 2742 
Q 2381 3103 1925 3103 
Q 1469 3103 1208 2742 
Q 947 2381 947 1747 
z
" transform="scale(0.015625)"/>
        <path id="DejaVuSans-29" d="M 513 4856 
L 1013 4856 
Q 1481 4119 1714 3412 
Q 1947 2706 1947 2009 
Q 1947 1309 1714 600 
Q 1481 -109 1013 -844 
L 513 -844 
Q 928 -128 1133 580 
Q 1338 1288 1338 2009 
Q 1338 2731 1133 3434 
Q 928 4138 513 4856 
z
" transform="scale(0.015625)"/>
       </defs>
       <use xlink:href="#DejaVuSans-28"/>
       <use xlink:href="#DejaVuSans-6c" transform="translate(39.013672 0)"/>
       <use xlink:href="#DejaVuSans-6f" transform="translate(66.796875 0)"/>
       <use xlink:href="#DejaVuSans-77" transform="translate(127.978516 0)"/>
       <use xlink:href="#DejaVuSans-65" transform="translate(209.765625 0)"/>
       <use xlink:href="#DejaVuSans-72" transform="translate(271.289062 0)"/>
       <use xlink:href="#DejaVuSans-20" transform="translate(312.402344 0)"/>
       <use xlink:href="#DejaVuSans-62" transform="translate(344.189453 0)"/>
       <use xlink:href="#DejaVuSans-6f" transform="translate(407.666016 0)"/>
       <use xlink:href="#DejaVuSans-75" transform="translate(468.847656 0)"/>
       <use xlink:href="#DejaVuSans-6e" transform="translate(532.226562 0)"/>
       <use xlink:href="#DejaVuSans-64" transform="translate(595.605469 0)"/>
       <use xlink:href="#DejaVuSans-29" transform="translate(659.082031 0)"/>
      </g>
     </g>
    </g>
    <g id="xtick_2">
     <g id="line2d_2"/>
     <g id="text_2">
      <!-- Graphistry CPU -->
      <g style="fill: #334155" transform="translate(339.906016 328.064741) scale(0.11 -0.11)">
       <defs>
        <path id="DejaVuSans-61" d="M 2194 1759 
Q 1497 1759 1228 1600 
Q 959 1441 959 1056 
Q 959 750 1161 570 
Q 1363 391 1709 391 
Q 2188 391 2477 730 
Q 2766 1069 2766 1631 
L 2766 1759 
L 2194 1759 
z
M 3341 1997 
L 3341 0 
L 2766 0 
L 2766 531 
Q 2569 213 2275 61 
Q 1981 -91 1556 -91 
Q 1019 -91 701 211 
Q 384 513 384 1019 
Q 384 1609 779 1909 
Q 1175 2209 1959 2209 
L 2766 2209 
L 2766 2266 
Q 2766 2663 2505 2880 
Q 2244 3097 1772 3097 
Q 1472 3097 1187 3025 
Q 903 2953 641 2809 
L 641 3341 
Q 956 3463 1253 3523 
Q 1550 3584 1831 3584 
Q 2591 3584 2966 3190 
Q 3341 2797 3341 1997 
z
" transform="scale(0.015625)"/>
        <path id="DejaVuSans-70" d="M 1159 525 
L 1159 -1331 
L 581 -1331 
L 581 3500 
L 1159 3500 
L 1159 2969 
Q 1341 3281 1617 3432 
Q 1894 3584 2278 3584 
Q 2916 3584 3314 3078 
Q 3713 2572 3713 1747 
Q 3713 922 3314 415 
Q 2916 -91 2278 -91 
Q 1894 -91 1617 61 
Q 1341 213 1159 525 
z
M 3116 1747 
Q 3116 2381 2855 2742 
Q 2594 3103 2138 3103 
Q 1681 3103 1420 2742 
Q 1159 2381 1159 1747 
Q 1159 1113 1420 752 
Q 1681 391 2138 391 
Q 2594 391 2855 752 
Q 3116 1113 3116 1747 
z
" transform="scale(0.015625)"/>
        <path id="DejaVuSans-68" d="M 3513 2113 
L 3513 0 
L 2938 0 
L 2938 2094 
Q 2938 2591 2744 2837 
Q 2550 3084 2163 3084 
Q 1697 3084 1428 2787 
Q 1159 2491 1159 1978 
L 1159 0 
L 581 0 
L 581 4863 
L 1159 4863 
L 1159 2956 
Q 1366 3272 1645 3428 
Q 1925 3584 2291 3584 
Q 2894 3584 3203 3211 
Q 3513 2838 3513 2113 
z
" transform="scale(0.015625)"/>
        <path id="DejaVuSans-69" d="M 603 3500 
L 1178 3500 
L 1178 0 
L 603 0 
L 603 3500 
z
M 603 4863 
L 1178 4863 
L 1178 4134 
L 603 4134 
L 603 4863 
z
" transform="scale(0.015625)"/>
        <path id="DejaVuSans-73" d="M 2834 3397 
L 2834 2853 
Q 2591 2978 2328 3040 
Q 2066 3103 1784 3103 
Q 1356 3103 1142 2972 
Q 928 2841 928 2578 
Q 928 2378 1081 2264 
Q 1234 2150 1697 2047 
L 1894 2003 
Q 2506 1872 2764 1633 
Q 3022 1394 3022 966 
Q 3022 478 2636 193 
Q 2250 -91 1575 -91 
Q 1294 -91 989 -36 
Q 684 19 347 128 
L 347 722 
Q 666 556 975 473 
Q 1284 391 1588 391 
Q 1994 391 2212 530 
Q 2431 669 2431 922 
Q 2431 1156 2273 1281 
Q 2116 1406 1581 1522 
L 1381 1569 
Q 847 1681 609 1914 
Q 372 2147 372 2553 
Q 372 3047 722 3315 
Q 1072 3584 1716 3584 
Q 2034 3584 2315 3537 
Q 2597 3491 2834 3397 
z
" transform="scale(0.015625)"/>
        <path id="DejaVuSans-74" d="M 1172 4494 
L 1172 3500 
L 2356 3500 
L 2356 3053 
L 1172 3053 
L 1172 1153 
Q 1172 725 1289 603 
Q 1406 481 1766 481 
L 2356 481 
L 2356 0 
L 1766 0 
Q 1100 0 847 248 
Q 594 497 594 1153 
L 594 3053 
L 172 3053 
L 172 3500 
L 594 3500 
L 594 4494 
L 1172 4494 
z
" transform="scale(0.015625)"/>
        <path id="DejaVuSans-79" d="M 2059 -325 
Q 1816 -950 1584 -1140 
Q 1353 -1331 966 -1331 
L 506 -1331 
L 506 -850 
L 844 -850 
Q 1081 -850 1212 -737 
Q 1344 -625 1503 -206 
L 1606 56 
L 191 3500 
L 800 3500 
L 1894 763 
L 2988 3500 
L 3597 3500 
L 2059 -325 
z
" transform="scale(0.015625)"/>
        <path id="DejaVuSans-43" d="M 4122 4306 
L 4122 3641 
Q 3803 3938 3442 4084 
Q 3081 4231 2675 4231 
Q 1875 4231 1450 3742 
Q 1025 3253 1025 2328 
Q 1025 1406 1450 917 
Q 1875 428 2675 428 
Q 3081 428 3442 575 
Q 3803 722 4122 1019 
L 4122 359 
Q 3791 134 3420 21 
Q 3050 -91 2638 -91 
Q 1578 -91 968 557 
Q 359 1206 359 2328 
Q 359 3453 968 4101 
Q 1578 4750 2638 4750 
Q 3056 4750 3426 4639 
Q 3797 4528 4122 4306 
z
" transform="scale(0.015625)"/>
        <path id="DejaVuSans-50" d="M 1259 4147 
L 1259 2394 
L 2053 2394 
Q 2494 2394 2734 2622 
Q 2975 2850 2975 3272 
Q 2975 3691 2734 3919 
Q 2494 4147 2053 4147 
L 1259 4147 
z
M 628 4666 
L 2053 4666 
Q 2838 4666 3239 4311 
Q 3641 3956 3641 3272 
Q 3641 2581 3239 2228 
Q 2838 1875 2053 1875 
L 1259 1875 
L 1259 0 
L 628 0 
L 628 4666 
z
" transform="scale(0.015625)"/>
        <path id="DejaVuSans-55" d="M 556 4666 
L 1191 4666 
L 1191 1831 
Q 1191 1081 1462 751 
Q 1734 422 2344 422 
Q 2950 422 3222 751 
Q 3494 1081 3494 1831 
L 3494 4666 
L 4128 4666 
L 4128 1753 
Q 4128 841 3676 375 
Q 3225 -91 2344 -91 
Q 1459 -91 1007 375 
Q 556 841 556 1753 
L 556 4666 
z
" transform="scale(0.015625)"/>
       </defs>
       <use xlink:href="#DejaVuSans-47"/>
       <use xlink:href="#DejaVuSans-72" transform="translate(77.490234 0)"/>
       <use xlink:href="#DejaVuSans-61" transform="translate(118.603516 0)"/>
       <use xlink:href="#DejaVuSans-70" transform="translate(179.882812 0)"/>
       <use xlink:href="#DejaVuSans-68" transform="translate(243.359375 0)"/>
       <use xlink:href="#DejaVuSans-69" transform="translate(306.738281 0)"/>
       <use xlink:href="#DejaVuSans-73" transform="translate(334.521484 0)"/>
       <use xlink:href="#DejaVuSans-74" transform="translate(386.621094 0)"/>
       <use xlink:href="#DejaVuSans-72" transform="translate(425.830078 0)"/>
       <use xlink:href="#DejaVuSans-79" transform="translate(466.943359 0)"/>
       <use xlink:href="#DejaVuSans-20" transform="translate(526.123047 0)"/>
       <use xlink:href="#DejaVuSans-43" transform="translate(557.910156 0)"/>
       <use xlink:href="#DejaVuSans-50" transform="translate(627.734375 0)"/>
       <use xlink:href="#DejaVuSans-55" transform="translate(688.037109 0)"/>
      </g>
     </g>
    </g>
    <g id="xtick_3">
     <g id="line2d_3"/>
     <g id="text_3">
      <!-- Graphistry GPU -->
      <g style="fill: #334155" transform="translate(570.557365 328.064741) scale(0.11 -0.11)">
       <use xlink:href="#DejaVuSans-47"/>
       <use xlink:href="#DejaVuSans-72" transform="translate(77.490234 0)"/>
       <use xlink:href="#DejaVuSans-61" transform="translate(118.603516 0)"/>
       <use xlink:href="#DejaVuSans-70" transform="translate(179.882812 0)"/>
       <use xlink:href="#DejaVuSans-68" transform="translate(243.359375 0)"/>
       <use xlink:href="#DejaVuSans-69" transform="translate(306.738281 0)"/>
       <use xlink:href="#DejaVuSans-73" transform="translate(334.521484 0)"/>
       <use xlink:href="#DejaVuSans-74" transform="translate(386.621094 0)"/>
       <use xlink:href="#DejaVuSans-72" transform="translate(425.830078 0)"/>
       <use xlink:href="#DejaVuSans-79" transform="translate(466.943359 0)"/>
       <use xlink:href="#DejaVuSans-20" transform="translate(526.123047 0)"/>
       <use xlink:href="#DejaVuSans-47" transform="translate(557.910156 0)"/>
       <use xlink:href="#DejaVuSans-50" transform="translate(635.400391 0)"/>
       <use xlink:href="#DejaVuSans-55" transform="translate(695.703125 0)"/>
      </g>
     </g>
    </g>
   </g>
   <g id="matplotlib.axis_2">
    <g id="ytick_1">
     <g id="line2d_4">
      <path d="M 56.422188 309.70646 
L 707.122188 309.70646 
" clip-path="url(#pd1b0d78e0b)" style="fill: none; stroke: #e2e8f0; stroke-opacity: 0.55; stroke-width: 0.9; stroke-linecap: square"/>
     </g>
     <g id="line2d_5"/>
     <g id="text_4">
      <!-- 0 -->
      <g style="fill: #334155" transform="translate(45.923438 313.885601) scale(0.11 -0.11)">
       <defs>
        <path id="DejaVuSans-30" d="M 2034 4250 
Q 1547 4250 1301 3770 
Q 1056 3291 1056 2328 
Q 1056 1369 1301 889 
Q 1547 409 2034 409 
Q 2525 409 2770 889 
Q 3016 1369 3016 2328 
Q 3016 3291 2770 3770 
Q 2525 4250 2034 4250 
z
M 2034 4750 
Q 2819 4750 3233 4129 
Q 3647 3509 3647 2328 
Q 3647 1150 3233 529 
Q 2819 -91 2034 -91 
Q 1250 -91 836 529 
Q 422 1150 422 2328 
Q 422 3509 836 4129 
Q 1250 4750 2034 4750 
z
" transform="scale(0.015625)"/>
       </defs>
       <use xlink:href="#DejaVuSans-30"/>
      </g>
     </g>
    </g>
    <g id="ytick_2">
     <g id="line2d_6">
      <path d="M 56.422188 280.041915 
L 707.122188 280.041915 
" clip-path="url(#pd1b0d78e0b)" style="fill: none; stroke: #e2e8f0; stroke-opacity: 0.55; stroke-width: 0.9; stroke-linecap: square"/>
     </g>
     <g id="line2d_7"/>
     <g id="text_5">
      <!-- 25 -->
      <g style="fill: #334155" transform="translate(38.924688 284.221055) scale(0.11 -0.11)">
       <defs>
        <path id="DejaVuSans-32" d="M 1228 531 
L 3431 531 
L 3431 0 
L 469 0 
L 469 531 
Q 828 903 1448 1529 
Q 2069 2156 2228 2338 
Q 2531 2678 2651 2914 
Q 2772 3150 2772 3378 
Q 2772 3750 2511 3984 
Q 2250 4219 1831 4219 
Q 1534 4219 1204 4116 
Q 875 4013 500 3803 
L 500 4441 
Q 881 4594 1212 4672 
Q 1544 4750 1819 4750 
Q 2544 4750 2975 4387 
Q 3406 4025 3406 3419 
Q 3406 3131 3298 2873 
Q 3191 2616 2906 2266 
Q 2828 2175 2409 1742 
Q 1991 1309 1228 531 
z
" transform="scale(0.015625)"/>
        <path id="DejaVuSans-35" d="M 691 4666 
L 3169 4666 
L 3169 4134 
L 1269 4134 
L 1269 2991 
Q 1406 3038 1543 3061 
Q 1681 3084 1819 3084 
Q 2600 3084 3056 2656 
Q 3513 2228 3513 1497 
Q 3513 744 3044 326 
Q 2575 -91 1722 -91 
Q 1428 -91 1123 -41 
Q 819 9 494 109 
L 494 744 
Q 775 591 1075 516 
Q 1375 441 1709 441 
Q 2250 441 2565 725 
Q 2881 1009 2881 1497 
Q 2881 1984 2565 2268 
Q 2250 2553 1709 2553 
Q 1456 2553 1204 2497 
Q 953 2441 691 2322 
L 691 4666 
z
" transform="scale(0.015625)"/>
       </defs>
       <use xlink:href="#DejaVuSans-32"/>
       <use xlink:href="#DejaVuSans-35" transform="translate(63.623047 0)"/>
      </g>
     </g>
    </g>
    <g id="ytick_3">
     <g id="line2d_8">
      <path d="M 56.422188 250.377369 
L 707.122188 250.377369 
" clip-path="url(#pd1b0d78e0b)" style="fill: none; stroke: #e2e8f0; stroke-opacity: 0.55; stroke-width: 0.9; stroke-linecap: square"/>
     </g>
     <g id="line2d_9"/>
     <g id="text_6">
      <!-- 50 -->
      <g style="fill: #334155" transform="translate(38.924688 254.55651) scale(0.11 -0.11)">
       <use xlink:href="#DejaVuSans-35"/>
       <use xlink:href="#DejaVuSans-30" transform="translate(63.623047 0)"/>
      </g>
     </g>
    </g>
    <g id="ytick_4">
     <g id="line2d_10">
      <path d="M 56.422188 220.712824 
L 707.122188 220.712824 
" clip-path="url(#pd1b0d78e0b)" style="fill: none; stroke: #e2e8f0; stroke-opacity: 0.55; stroke-width: 0.9; stroke-linecap: square"/>
     </g>
     <g id="line2d_11"/>
     <g id="text_7">
      <!-- 75 -->
      <g style="fill: #334155" transform="translate(38.924688 224.891964) scale(0.11 -0.11)">
       <defs>
        <path id="DejaVuSans-37" d="M 525 4666 
L 3525 4666 
L 3525 4397 
L 1831 0 
L 1172 0 
L 2766 4134 
L 525 4134 
L 525 4666 
z
" transform="scale(0.015625)"/>
       </defs>
       <use xlink:href="#DejaVuSans-37"/>
       <use xlink:href="#DejaVuSans-35" transform="translate(63.623047 0)"/>
      </g>
     </g>
    </g>
    <g id="ytick_5">
     <g id="line2d_12">
      <path d="M 56.422188 191.048278 
L 707.122188 191.048278 
" clip-path="url(#pd1b0d78e0b)" style="fill: none; stroke: #e2e8f0; stroke-opacity: 0.55; stroke-width: 0.9; stroke-linecap: square"/>
     </g>
     <g id="line2d_13"/>
     <g id="text_8">
      <!-- 100 -->
      <g style="fill: #334155" transform="translate(31.925938 195.227419) scale(0.11 -0.11)">
       <defs>
        <path id="DejaVuSans-31" d="M 794 531 
L 1825 531 
L 1825 4091 
L 703 3866 
L 703 4441 
L 1819 4666 
L 2450 4666 
L 2450 531 
L 3481 531 
L 3481 0 
L 794 0 
L 794 531 
z
" transform="scale(0.015625)"/>
       </defs>
       <use xlink:href="#DejaVuSans-31"/>
       <use xlink:href="#DejaVuSans-30" transform="translate(63.623047 0)"/>
       <use xlink:href="#DejaVuSans-30" transform="translate(127.246094 0)"/>
      </g>
     </g>
    </g>
    <g id="ytick_6">
     <g id="line2d_14">
      <path d="M 56.422188 161.383733 
L 707.122188 161.383733 
" clip-path="url(#pd1b0d78e0b)" style="fill: none; stroke: #e2e8f0; stroke-opacity: 0.55; stroke-width: 0.9; stroke-linecap: square"/>
     </g>
     <g id="line2d_15"/>
     <g id="text_9">
      <!-- 125 -->
      <g style="fill: #334155" transform="translate(31.925938 165.562873) scale(0.11 -0.11)">
       <use xlink:href="#DejaVuSans-31"/>
       <use xlink:href="#DejaVuSans-32" transform="translate(63.623047 0)"/>
       <use xlink:href="#DejaVuSans-35" transform="translate(127.246094 0)"/>
      </g>
     </g>
    </g>
    <g id="ytick_7">
     <g id="line2d_16">
      <path d="M 56.422188 131.719187 
L 707.122188 131.719187 
" clip-path="url(#pd1b0d78e0b)" style="fill: none; stroke: #e2e8f0; stroke-opacity: 0.55; stroke-width: 0.9; stroke-linecap: square"/>
     </g>
     <g id="line2d_17"/>
     <g id="text_10">
      <!-- 150 -->
      <g style="fill: #334155" transform="translate(31.925938 135.898328) scale(0.11 -0.11)">
       <use xlink:href="#DejaVuSans-31"/>
       <use xlink:href="#DejaVuSans-35" transform="translate(63.623047 0)"/>
       <use xlink:href="#DejaVuSans-30" transform="translate(127.246094 0)"/>
      </g>
     </g>
    </g>
    <g id="ytick_8">
     <g id="line2d_18">
      <path d="M 56.422188 102.054642 
L 707.122188 102.054642 
" clip-path="url(#pd1b0d78e0b)" style="fill: none; stroke: #e2e8f0; stroke-opacity: 0.55; stroke-width: 0.9; stroke-linecap: square"/>
     </g>
     <g id="line2d_19"/>
     <g id="text_11">
      <!-- 175 -->
      <g style="fill: #334155" transform="translate(31.925938 106.233782) scale(0.11 -0.11)">
       <use xlink:href="#DejaVuSans-31"/>
       <use xlink:href="#DejaVuSans-37" transform="translate(63.623047 0)"/>
       <use xlink:href="#DejaVuSans-35" transform="translate(127.246094 0)"/>
      </g>
     </g>
    </g>
    <g id="ytick_9">
     <g id="line2d_20">
      <path d="M 56.422188 72.390096 
L 707.122188 72.390096 
" clip-path="url(#pd1b0d78e0b)" style="fill: none; stroke: #e2e8f0; stroke-opacity: 0.55; stroke-width: 0.9; stroke-linecap: square"/>
     </g>
     <g id="line2d_21"/>
     <g id="text_12">
      <!-- 200 -->
      <g style="fill: #334155" transform="translate(31.925938 76.569237) scale(0.11 -0.11)">
       <use xlink:href="#DejaVuSans-32"/>
       <use xlink:href="#DejaVuSans-30" transform="translate(63.623047 0)"/>
       <use xlink:href="#DejaVuSans-30" transform="translate(127.246094 0)"/>
      </g>
     </g>
    </g>
    <g id="text_13">
     <!-- Seconds (lower is better →) -->
     <g style="fill: #0f172a" transform="translate(25.638281 251.835183) rotate(-90) scale(0.11 -0.11)">
      <defs>
       <path id="DejaVuSans-63" d="M 3122 3366 
L 3122 2828 
Q 2878 2963 2633 3030 
Q 2388 3097 2138 3097 
Q 1578 3097 1268 2742 
Q 959 2388 959 1747 
Q 959 1106 1268 751 
Q 1578 397 2138 397 
Q 2388 397 2633 464 
Q 2878 531 3122 666 
L 3122 134 
Q 2881 22 2623 -34 
Q 2366 -91 2075 -91 
Q 1284 -91 818 406 
Q 353 903 353 1747 
Q 353 2603 823 3093 
Q 1294 3584 2113 3584 
Q 2378 3584 2631 3529 
Q 2884 3475 3122 3366 
z
" transform="scale(0.015625)"/>
       <path id="DejaVuSans-2192" d="M 5050 2147 
L 5050 1866 
L 3822 638 
L 3447 1013 
L 4175 1741 
L 366 1741 
L 366 2272 
L 4175 2272 
L 3447 3000 
L 3822 3375 
L 5050 2147 
z
" transform="scale(0.015625)"/>
      </defs>
      <use xlink:href="#DejaVuSans-53"/>
      <use xlink:href="#DejaVuSans-65" transform="translate(63.476562 0)"/>
      <use xlink:href="#DejaVuSans-63" transform="translate(125 0)"/>
      <use xlink:href="#DejaVuSans-6f" transform="translate(179.980469 0)"/>
      <use xlink:href="#DejaVuSans-6e" transform="translate(241.162109 0)"/>
      <use xlink:href="#DejaVuSans-64" transform="translate(304.541016 0)"/>
      <use xlink:href="#DejaVuSans-73" transform="translate(368.017578 0)"/>
      <use xlink:href="#DejaVuSans-20" transform="translate(420.117188 0)"/>
      <use xlink:href="#DejaVuSans-28" transform="translate(451.904297 0)"/>
      <use xlink:href="#DejaVuSans-6c" transform="translate(490.917969 0)"/>
      <use xlink:href="#DejaVuSans-6f" transform="translate(518.701172 0)"/>
      <use xlink:href="#DejaVuSans-77" transform="translate(579.882812 0)"/>
      <use xlink:href="#DejaVuSans-65" transform="translate(661.669922 0)"/>
      <use xlink:href="#DejaVuSans-72" transform="translate(723.193359 0)"/>
      <use xlink:href="#DejaVuSans-20" transform="translate(764.306641 0)"/>
      <use xlink:href="#DejaVuSans-69" transform="translate(796.09375 0)"/>
      <use xlink:href="#DejaVuSans-73" transform="translate(823.876953 0)"/>
      <use xlink:href="#DejaVuSans-20" transform="translate(875.976562 0)"/>
      <use xlink:href="#DejaVuSans-62" transform="translate(907.763672 0)"/>
      <use xlink:href="#DejaVuSans-65" transform="translate(971.240234 0)"/>
      <use xlink:href="#DejaVuSans-74" transform="translate(1032.763672 0)"/>
      <use xlink:href="#DejaVuSans-74" transform="translate(1071.972656 0)"/>
      <use xlink:href="#DejaVuSans-65" transform="translate(1111.181641 0)"/>
      <use xlink:href="#DejaVuSans-72" transform="translate(1172.705078 0)"/>
      <use xlink:href="#DejaVuSans-20" transform="translate(1213.818359 0)"/>
      <use xlink:href="#DejaVuSans-2192" transform="translate(1245.605469 0)"/>
      <use xlink:href="#DejaVuSans-29" transform="translate(1329.394531 0)"/>
     </g>
    </g>
   </g>
   <g id="patch_3">
    <path d="M 85.99946 309.70646 
L 215.400028 309.70646 
L 215.400028 87.81566 
L 85.99946 87.81566 
z
" clip-path="url(#pd1b0d78e0b)" style="fill: #8f3b2f"/>
   </g>
   <g id="patch_4">
    <path d="M 317.071903 309.70646 
L 446.472472 309.70646 
L 446.472472 309.70646 
L 317.071903 309.70646 
z
" clip-path="url(#pd1b0d78e0b)" style="fill: #8f3b2f"/>
   </g>
   <g id="patch_5">
    <path d="M 548.144347 309.70646 
L 677.544915 309.70646 
L 677.544915 309.70646 
L 548.144347 309.70646 
z
" clip-path="url(#pd1b0d78e0b)" style="fill: #8f3b2f"/>
   </g>
   <g id="patch_6">
    <path d="M 85.99946 87.81566 
L 215.400028 87.81566 
L 215.400028 87.81566 
L 85.99946 87.81566 
z
" clip-path="url(#pd1b0d78e0b)" style="fill: #6c8fb3"/>
   </g>
   <g id="patch_7">
    <path d="M 317.071903 309.70646 
L 446.472472 309.70646 
L 446.472472 299.364213 
L 317.071903 299.364213 
z
" clip-path="url(#pd1b0d78e0b)" style="fill: #6c8fb3"/>
   </g>
   <g id="patch_8">
    <path d="M 548.144347 309.70646 
L 677.544915 309.70646 
L 677.544915 305.040464 
L 548.144347 305.040464 
z
" clip-path="url(#pd1b0d78e0b)" style="fill: #6c8fb3"/>
   </g>
   <g id="patch_9">
    <path d="M 85.99946 87.81566 
L 215.400028 87.81566 
L 215.400028 87.81566 
L 85.99946 87.81566 
z
" clip-path="url(#pd1b0d78e0b)" style="fill: #d17c2f"/>
   </g>
   <g id="patch_10">
    <path d="M 317.071903 299.364213 
L 446.472472 299.364213 
L 446.472472 209.440296 
L 317.071903 209.440296 
z
" clip-path="url(#pd1b0d78e0b)" style="fill: #d17c2f"/>
   </g>
   <g id="patch_11">
    <path d="M 548.144347 305.040464 
L 677.544915 305.040464 
L 677.544915 301.083689 
L 548.144347 301.083689 
z
" clip-path="url(#pd1b0d78e0b)" style="fill: #d17c2f"/>
   </g>
   <g id="patch_12">
    <path d="M 56.422188 309.70646 
L 56.422188 43.4375 
" style="fill: none; stroke: #cbd5e1; stroke-width: 0.8; stroke-linejoin: miter; stroke-linecap: square"/>
   </g>
   <g id="patch_13">
    <path d="M 56.422188 309.70646 
L 707.122188 309.70646 
" style="fill: none; stroke: #cbd5e1; stroke-width: 0.8; stroke-linejoin: miter; stroke-linecap: square"/>
   </g>
   <g id="text_14">
    <g id="patch_14">
     <path d="M 134.361463 87.420432 
L 167.038026 87.420432 
Q 169.838026 87.420432 169.838026 84.620432 
L 169.838026 74.942307 
Q 169.838026 72.142307 167.038026 72.142307 
L 134.361463 72.142307 
Q 131.561463 72.142307 131.561463 74.942307 
L 131.561463 84.620432 
Q 131.561463 87.420432 134.361463 87.420432 
z
" style="fill: #ffffff; stroke: #cbd5e1; stroke-width: 0.9; stroke-linejoin: miter"/>
    </g>
    <!-- &gt;187s -->
    <g style="fill: #0f172a" transform="translate(134.361463 82.540745) scale(0.1 -0.1)">
     <defs>
      <path id="DejaVuSans-3e" d="M 678 3150 
L 678 3719 
L 4684 2266 
L 4684 1747 
L 678 294 
L 678 863 
L 3897 2003 
L 678 3150 
z
" transform="scale(0.015625)"/>
      <path id="DejaVuSans-38" d="M 2034 2216 
Q 1584 2216 1326 1975 
Q 1069 1734 1069 1313 
Q 1069 891 1326 650 
Q 1584 409 2034 409 
Q 2484 409 2743 651 
Q 3003 894 3003 1313 
Q 3003 1734 2745 1975 
Q 2488 2216 2034 2216 
z
M 1403 2484 
Q 997 2584 770 2862 
Q 544 3141 544 3541 
Q 544 4100 942 4425 
Q 1341 4750 2034 4750 
Q 2731 4750 3128 4425 
Q 3525 4100 3525 3541 
Q 3525 3141 3298 2862 
Q 3072 2584 2669 2484 
Q 3125 2378 3379 2068 
Q 3634 1759 3634 1313 
Q 3634 634 3220 271 
Q 2806 -91 2034 -91 
Q 1263 -91 848 271 
Q 434 634 434 1313 
Q 434 1759 690 2068 
Q 947 2378 1403 2484 
z
M 1172 3481 
Q 1172 3119 1398 2916 
Q 1625 2713 2034 2713 
Q 2441 2713 2670 2916 
Q 2900 3119 2900 3481 
Q 2900 3844 2670 4047 
Q 2441 4250 2034 4250 
Q 1625 4250 1398 4047 
Q 1172 3844 1172 3481 
z
" transform="scale(0.015625)"/>
     </defs>
     <use xlink:href="#DejaVuSans-3e"/>
     <use xlink:href="#DejaVuSans-31" transform="translate(83.789062 0)"/>
     <use xlink:href="#DejaVuSans-38" transform="translate(147.412109 0)"/>
     <use xlink:href="#DejaVuSans-37" transform="translate(211.035156 0)"/>
     <use xlink:href="#DejaVuSans-73" transform="translate(274.658203 0)"/>
    </g>
   </g>
   <g id="text_15">
    <g id="patch_15">
     <path d="M 352.4425 209.045069 
L 411.101875 209.045069 
Q 413.901875 209.045069 413.901875 206.245069 
L 413.901875 185.369131 
Q 413.901875 182.569131 411.101875 182.569131 
L 352.4425 182.569131 
Q 349.6425 182.569131 349.6425 185.369131 
L 349.6425 206.245069 
Q 349.6425 209.045069 352.4425 209.045069 
z
" style="fill: #ffffff; stroke: #cbd5e1; stroke-width: 0.9; stroke-linejoin: miter"/>
    </g>
    <!-- 84.5s -->
    <g style="fill: #0f172a" transform="translate(368.034688 192.967569) scale(0.1 -0.1)">
     <defs>
      <path id="DejaVuSans-2e" d="M 684 794 
L 1344 794 
L 1344 0 
L 684 0 
L 684 794 
z
" transform="scale(0.015625)"/>
     </defs>
     <use xlink:href="#DejaVuSans-38"/>
     <use xlink:href="#DejaVuSans-34" transform="translate(63.623047 0)"/>
     <use xlink:href="#DejaVuSans-2e" transform="translate(127.246094 0)"/>
     <use xlink:href="#DejaVuSans-35" transform="translate(159.033203 0)"/>
     <use xlink:href="#DejaVuSans-73" transform="translate(222.65625 0)"/>
    </g>
    <!-- 2x vs Neo4j -->
    <g style="fill: #0f172a" transform="translate(352.4425 204.165381) scale(0.1 -0.1)">
     <defs>
      <path id="DejaVuSans-78" d="M 3513 3500 
L 2247 1797 
L 3578 0 
L 2900 0 
L 1881 1375 
L 863 0 
L 184 0 
L 1544 1831 
L 300 3500 
L 978 3500 
L 1906 2253 
L 2834 3500 
L 3513 3500 
z
" transform="scale(0.015625)"/>
      <path id="DejaVuSans-76" d="M 191 3500 
L 800 3500 
L 1894 563 
L 2988 3500 
L 3597 3500 
L 2284 0 
L 1503 0 
L 191 3500 
z
" transform="scale(0.015625)"/>
     </defs>
     <use xlink:href="#DejaVuSans-32"/>
     <use xlink:href="#DejaVuSans-78" transform="translate(63.623047 0)"/>
     <use xlink:href="#DejaVuSans-20" transform="translate(122.802734 0)"/>
     <use xlink:href="#DejaVuSans-76" transform="translate(154.589844 0)"/>
     <use xlink:href="#DejaVuSans-73" transform="translate(213.769531 0)"/>
     <use xlink:href="#DejaVuSans-20" transform="translate(265.869141 0)"/>
     <use xlink:href="#DejaVuSans-4e" transform="translate(297.65625 0)"/>
     <use xlink:href="#DejaVuSans-65" transform="translate(372.460938 0)"/>
     <use xlink:href="#DejaVuSans-6f" transform="translate(433.984375 0)"/>
     <use xlink:href="#DejaVuSans-34" transform="translate(495.166016 0)"/>
     <use xlink:href="#DejaVuSans-6a" transform="translate(558.789062 0)"/>
    </g>
   </g>
   <g id="text_16">
    <g id="patch_16">
     <path d="M 580.333693 300.688461 
L 645.355568 300.688461 
Q 648.155568 300.688461 648.155568 297.888461 
L 648.155568 277.012524 
Q 648.155568 274.212524 645.355568 274.212524 
L 580.333693 274.212524 
Q 577.533693 274.212524 577.533693 277.012524 
L 577.533693 297.888461 
Q 577.533693 300.688461 580.333693 300.688461 
z
" style="fill: #ffffff; stroke: #cbd5e1; stroke-width: 0.9; stroke-linejoin: miter"/>
    </g>
    <!-- 7.3s -->
    <g style="fill: #0f172a" transform="translate(602.288381 284.610961) scale(0.1 -0.1)">
     <defs>
      <path id="DejaVuSans-33" d="M 2597 2516 
Q 3050 2419 3304 2112 
Q 3559 1806 3559 1356 
Q 3559 666 3084 287 
Q 2609 -91 1734 -91 
Q 1441 -91 1130 -33 
Q 819 25 488 141 
L 488 750 
Q 750 597 1062 519 
Q 1375 441 1716 441 
Q 2309 441 2620 675 
Q 2931 909 2931 1356 
Q 2931 1769 2642 2001 
Q 2353 2234 1838 2234 
L 1294 2234 
L 1294 2753 
L 1863 2753 
Q 2328 2753 2575 2939 
Q 2822 3125 2822 3475 
Q 2822 3834 2567 4026 
Q 2313 4219 1838 4219 
Q 1578 4219 1281 4162 
Q 984 4106 628 3988 
L 628 4550 
Q 988 4650 1302 4700 
Q 1616 4750 1894 4750 
Q 2613 4750 3031 4423 
Q 3450 4097 3450 3541 
Q 3450 3153 3228 2886 
Q 3006 2619 2597 2516 
z
" transform="scale(0.015625)"/>
     </defs>
     <use xlink:href="#DejaVuSans-37"/>
     <use xlink:href="#DejaVuSans-2e" transform="translate(63.623047 0)"/>
     <use xlink:href="#DejaVuSans-33" transform="translate(95.410156 0)"/>
     <use xlink:href="#DejaVuSans-73" transform="translate(159.033203 0)"/>
    </g>
    <!-- 26x vs Neo4j -->
    <g style="fill: #0f172a" transform="translate(580.333693 295.808774) scale(0.1 -0.1)">
     <defs>
      <path id="DejaVuSans-36" d="M 2113 2584 
Q 1688 2584 1439 2293 
Q 1191 2003 1191 1497 
Q 1191 994 1439 701 
Q 1688 409 2113 409 
Q 2538 409 2786 701 
Q 3034 994 3034 1497 
Q 3034 2003 2786 2293 
Q 2538 2584 2113 2584 
z
M 3366 4563 
L 3366 3988 
Q 3128 4100 2886 4159 
Q 2644 4219 2406 4219 
Q 1781 4219 1451 3797 
Q 1122 3375 1075 2522 
Q 1259 2794 1537 2939 
Q 1816 3084 2150 3084 
Q 2853 3084 3261 2657 
Q 3669 2231 3669 1497 
Q 3669 778 3244 343 
Q 2819 -91 2113 -91 
Q 1303 -91 875 529 
Q 447 1150 447 2328 
Q 447 3434 972 4092 
Q 1497 4750 2381 4750 
Q 2619 4750 2861 4703 
Q 3103 4656 3366 4563 
z
" transform="scale(0.015625)"/>
     </defs>
     <use xlink:href="#DejaVuSans-32"/>
     <use xlink:href="#DejaVuSans-36" transform="translate(63.623047 0)"/>
     <use xlink:href="#DejaVuSans-78" transform="translate(127.246094 0)"/>
     <use xlink:href="#DejaVuSans-20" transform="translate(186.425781 0)"/>
     <use xlink:href="#DejaVuSans-76" transform="translate(218.212891 0)"/>
     <use xlink:href="#DejaVuSans-73" transform="translate(277.392578 0)"/>
     <use xlink:href="#DejaVuSans-20" transform="translate(329.492188 0)"/>
     <use xlink:href="#DejaVuSans-4e" transform="translate(361.279297 0)"/>
     <use xlink:href="#DejaVuSans-65" transform="translate(436.083984 0)"/>
     <use xlink:href="#DejaVuSans-6f" transform="translate(497.607422 0)"/>
     <use xlink:href="#DejaVuSans-34" transform="translate(558.789062 0)"/>
     <use xlink:href="#DejaVuSans-6a" transform="translate(622.412109 0)"/>
    </g>
   </g>
   <g id="text_17">
    <!-- GFQL Cypher Benchmark: GPlus end-to-end -->
    <g transform="translate(185.684688 29.4375) scale(0.16 -0.16)">
     <defs>
      <path id="DejaVuSans-Bold-47" d="M 4781 347 
Q 4331 128 3847 18 
Q 3363 -91 2847 -91 
Q 1681 -91 1000 561 
Q 319 1213 319 2328 
Q 319 3456 1012 4103 
Q 1706 4750 2913 4750 
Q 3378 4750 3804 4662 
Q 4231 4575 4609 4403 
L 4609 3438 
Q 4219 3659 3833 3768 
Q 3447 3878 3059 3878 
Q 2341 3878 1952 3476 
Q 1563 3075 1563 2328 
Q 1563 1588 1938 1184 
Q 2313 781 3003 781 
Q 3191 781 3352 804 
Q 3513 828 3641 878 
L 3641 1784 
L 2906 1784 
L 2906 2591 
L 4781 2591 
L 4781 347 
z
" transform="scale(0.015625)"/>
      <path id="DejaVuSans-Bold-46" d="M 588 4666 
L 3834 4666 
L 3834 3756 
L 1791 3756 
L 1791 2888 
L 3713 2888 
L 3713 1978 
L 1791 1978 
L 1791 0 
L 588 0 
L 588 4666 
z
" transform="scale(0.015625)"/>
      <path id="DejaVuSans-Bold-51" d="M 2847 -84 
L 2753 -84 
Q 1600 -84 959 553 
Q 319 1191 319 2328 
Q 319 3463 958 4106 
Q 1597 4750 2719 4750 
Q 3853 4750 4486 4112 
Q 5119 3475 5119 2328 
Q 5119 1541 4783 972 
Q 4447 403 3816 116 
L 4756 -934 
L 3609 -934 
L 2847 -84 
z
M 2719 3878 
Q 2169 3878 1866 3472 
Q 1563 3066 1563 2328 
Q 1563 1578 1859 1179 
Q 2156 781 2719 781 
Q 3272 781 3575 1187 
Q 3878 1594 3878 2328 
Q 3878 3066 3575 3472 
Q 3272 3878 2719 3878 
z
" transform="scale(0.015625)"/>
      <path id="DejaVuSans-Bold-4c" d="M 588 4666 
L 1791 4666 
L 1791 909 
L 3903 909 
L 3903 0 
L 588 0 
L 588 4666 
z
" transform="scale(0.015625)"/>
      <path id="DejaVuSans-Bold-20" transform="scale(0.015625)"/>
      <path id="DejaVuSans-Bold-43" d="M 4288 256 
Q 3956 84 3597 -3 
Q 3238 -91 2847 -91 
Q 1681 -91 1000 561 
Q 319 1213 319 2328 
Q 319 3447 1000 4098 
Q 1681 4750 2847 4750 
Q 3238 4750 3597 4662 
Q 3956 4575 4288 4403 
L 4288 3438 
Q 3953 3666 3628 3772 
Q 3303 3878 2944 3878 
Q 2300 3878 1931 3465 
Q 1563 3053 1563 2328 
Q 1563 1606 1931 1193 
Q 2300 781 2944 781 
Q 3303 781 3628 887 
Q 3953 994 4288 1222 
L 4288 256 
z
" transform="scale(0.015625)"/>
      <path id="DejaVuSans-Bold-79" d="M 78 3500 
L 1197 3500 
L 2138 1125 
L 2938 3500 
L 4056 3500 
L 2584 -331 
Q 2363 -916 2067 -1148 
Q 1772 -1381 1288 -1381 
L 641 -1381 
L 641 -647 
L 991 -647 
Q 1275 -647 1404 -556 
Q 1534 -466 1606 -231 
L 1638 -134 
L 78 3500 
z
" transform="scale(0.015625)"/>
      <path id="DejaVuSans-Bold-70" d="M 1656 506 
L 1656 -1331 
L 538 -1331 
L 538 3500 
L 1656 3500 
L 1656 2988 
Q 1888 3294 2169 3439 
Q 2450 3584 2816 3584 
Q 3463 3584 3878 3070 
Q 4294 2556 4294 1747 
Q 4294 938 3878 423 
Q 3463 -91 2816 -91 
Q 2450 -91 2169 54 
Q 1888 200 1656 506 
z
M 2400 2772 
Q 2041 2772 1848 2508 
Q 1656 2244 1656 1747 
Q 1656 1250 1848 986 
Q 2041 722 2400 722 
Q 2759 722 2948 984 
Q 3138 1247 3138 1747 
Q 3138 2247 2948 2509 
Q 2759 2772 2400 2772 
z
" transform="scale(0.015625)"/>
      <path id="DejaVuSans-Bold-68" d="M 4056 2131 
L 4056 0 
L 2931 0 
L 2931 347 
L 2931 1625 
Q 2931 2084 2911 2256 
Q 2891 2428 2841 2509 
Q 2775 2619 2662 2680 
Q 2550 2741 2406 2741 
Q 2056 2741 1856 2470 
Q 1656 2200 1656 1722 
L 1656 0 
L 538 0 
L 538 4863 
L 1656 4863 
L 1656 2988 
Q 1909 3294 2193 3439 
Q 2478 3584 2822 3584 
Q 3428 3584 3742 3212 
Q 4056 2841 4056 2131 
z
" transform="scale(0.015625)"/>
      <path id="DejaVuSans-Bold-65" d="M 4031 1759 
L 4031 1441 
L 1416 1441 
Q 1456 1047 1700 850 
Q 1944 653 2381 653 
Q 2734 653 3104 758 
Q 3475 863 3866 1075 
L 3866 213 
Q 3469 63 3072 -14 
Q 2675 -91 2278 -91 
Q 1328 -91 801 392 
Q 275 875 275 1747 
Q 275 2603 792 3093 
Q 1309 3584 2216 3584 
Q 3041 3584 3536 3087 
Q 4031 2591 4031 1759 
z
M 2881 2131 
Q 2881 2450 2695 2645 
Q 2509 2841 2209 2841 
Q 1884 2841 1681 2658 
Q 1478 2475 1428 2131 
L 2881 2131 
z
" transform="scale(0.015625)"/>
      <path id="DejaVuSans-Bold-72" d="M 3138 2547 
Q 2991 2616 2845 2648 
Q 2700 2681 2553 2681 
Q 2122 2681 1889 2404 
Q 1656 2128 1656 1613 
L 1656 0 
L 538 0 
L 538 3500 
L 1656 3500 
L 1656 2925 
Q 1872 3269 2151 3426 
Q 2431 3584 2822 3584 
Q 2878 3584 2943 3579 
Q 3009 3575 3134 3559 
L 3138 2547 
z
" transform="scale(0.015625)"/>
      <path id="DejaVuSans-Bold-42" d="M 2456 2859 
Q 2741 2859 2887 2984 
Q 3034 3109 3034 3353 
Q 3034 3594 2887 3720 
Q 2741 3847 2456 3847 
L 1791 3847 
L 1791 2859 
L 2456 2859 
z
M 2497 819 
Q 2859 819 3042 972 
Q 3225 1125 3225 1434 
Q 3225 1738 3044 1889 
Q 2863 2041 2497 2041 
L 1791 2041 
L 1791 819 
L 2497 819 
z
M 3616 2497 
Q 4003 2384 4215 2081 
Q 4428 1778 4428 1338 
Q 4428 663 3972 331 
Q 3516 0 2584 0 
L 588 0 
L 588 4666 
L 2394 4666 
Q 3366 4666 3802 4372 
Q 4238 4078 4238 3431 
Q 4238 3091 4078 2852 
Q 3919 2613 3616 2497 
z
" transform="scale(0.015625)"/>
      <path id="DejaVuSans-Bold-6e" d="M 4056 2131 
L 4056 0 
L 2931 0 
L 2931 347 
L 2931 1631 
Q 2931 2084 2911 2256 
Q 2891 2428 2841 2509 
Q 2775 2619 2662 2680 
Q 2550 2741 2406 2741 
Q 2056 2741 1856 2470 
Q 1656 2200 1656 1722 
L 1656 0 
L 538 0 
L 538 3500 
L 1656 3500 
L 1656 2988 
Q 1909 3294 2193 3439 
Q 2478 3584 2822 3584 
Q 3428 3584 3742 3212 
Q 4056 2841 4056 2131 
z
" transform="scale(0.015625)"/>
      <path id="DejaVuSans-Bold-63" d="M 3366 3391 
L 3366 2478 
Q 3138 2634 2908 2709 
Q 2678 2784 2431 2784 
Q 1963 2784 1702 2511 
Q 1441 2238 1441 1747 
Q 1441 1256 1702 982 
Q 1963 709 2431 709 
Q 2694 709 2930 787 
Q 3166 866 3366 1019 
L 3366 103 
Q 3103 6 2833 -42 
Q 2563 -91 2291 -91 
Q 1344 -91 809 395 
Q 275 881 275 1747 
Q 275 2613 809 3098 
Q 1344 3584 2291 3584 
Q 2566 3584 2833 3536 
Q 3100 3488 3366 3391 
z
" transform="scale(0.015625)"/>
      <path id="DejaVuSans-Bold-6d" d="M 3781 2919 
Q 3994 3244 4286 3414 
Q 4578 3584 4928 3584 
Q 5531 3584 5847 3212 
Q 6163 2841 6163 2131 
L 6163 0 
L 5038 0 
L 5038 1825 
Q 5041 1866 5042 1909 
Q 5044 1953 5044 2034 
Q 5044 2406 4934 2573 
Q 4825 2741 4581 2741 
Q 4263 2741 4089 2478 
Q 3916 2216 3909 1719 
L 3909 0 
L 2784 0 
L 2784 1825 
Q 2784 2406 2684 2573 
Q 2584 2741 2328 2741 
Q 2006 2741 1831 2477 
Q 1656 2213 1656 1722 
L 1656 0 
L 531 0 
L 531 3500 
L 1656 3500 
L 1656 2988 
Q 1863 3284 2130 3434 
Q 2397 3584 2719 3584 
Q 3081 3584 3359 3409 
Q 3638 3234 3781 2919 
z
" transform="scale(0.015625)"/>
      <path id="DejaVuSans-Bold-61" d="M 2106 1575 
Q 1756 1575 1579 1456 
Q 1403 1338 1403 1106 
Q 1403 894 1545 773 
Q 1688 653 1941 653 
Q 2256 653 2472 879 
Q 2688 1106 2688 1447 
L 2688 1575 
L 2106 1575 
z
M 3816 1997 
L 3816 0 
L 2688 0 
L 2688 519 
Q 2463 200 2181 54 
Q 1900 -91 1497 -91 
Q 953 -91 614 226 
Q 275 544 275 1050 
Q 275 1666 698 1953 
Q 1122 2241 2028 2241 
L 2688 2241 
L 2688 2328 
Q 2688 2594 2478 2717 
Q 2269 2841 1825 2841 
Q 1466 2841 1156 2769 
Q 847 2697 581 2553 
L 581 3406 
Q 941 3494 1303 3539 
Q 1666 3584 2028 3584 
Q 2975 3584 3395 3211 
Q 3816 2838 3816 1997 
z
" transform="scale(0.015625)"/>
      <path id="DejaVuSans-Bold-6b" d="M 538 4863 
L 1656 4863 
L 1656 2216 
L 2944 3500 
L 4244 3500 
L 2534 1894 
L 4378 0 
L 3022 0 
L 1656 1459 
L 1656 0 
L 538 0 
L 538 4863 
z
" transform="scale(0.015625)"/>
      <path id="DejaVuSans-Bold-3a" d="M 716 3500 
L 1844 3500 
L 1844 2291 
L 716 2291 
L 716 3500 
z
M 716 1209 
L 1844 1209 
L 1844 0 
L 716 0 
L 716 1209 
z
" transform="scale(0.015625)"/>
      <path id="DejaVuSans-Bold-50" d="M 588 4666 
L 2584 4666 
Q 3475 4666 3951 4270 
Q 4428 3875 4428 3144 
Q 4428 2409 3951 2014 
Q 3475 1619 2584 1619 
L 1791 1619 
L 1791 0 
L 588 0 
L 588 4666 
z
M 1791 3794 
L 1791 2491 
L 2456 2491 
Q 2806 2491 2997 2661 
Q 3188 2831 3188 3144 
Q 3188 3456 2997 3625 
Q 2806 3794 2456 3794 
L 1791 3794 
z
" transform="scale(0.015625)"/>
      <path id="DejaVuSans-Bold-6c" d="M 538 4863 
L 1656 4863 
L 1656 0 
L 538 0 
L 538 4863 
z
" transform="scale(0.015625)"/>
      <path id="DejaVuSans-Bold-75" d="M 500 1363 
L 500 3500 
L 1625 3500 
L 1625 3150 
Q 1625 2866 1622 2436 
Q 1619 2006 1619 1863 
Q 1619 1441 1641 1255 
Q 1663 1069 1716 984 
Q 1784 875 1895 815 
Q 2006 756 2150 756 
Q 2500 756 2700 1025 
Q 2900 1294 2900 1772 
L 2900 3500 
L 4019 3500 
L 4019 0 
L 2900 0 
L 2900 506 
Q 2647 200 2364 54 
Q 2081 -91 1741 -91 
Q 1134 -91 817 281 
Q 500 653 500 1363 
z
" transform="scale(0.015625)"/>
      <path id="DejaVuSans-Bold-73" d="M 3272 3391 
L 3272 2541 
Q 2913 2691 2578 2766 
Q 2244 2841 1947 2841 
Q 1628 2841 1473 2761 
Q 1319 2681 1319 2516 
Q 1319 2381 1436 2309 
Q 1553 2238 1856 2203 
L 2053 2175 
Q 2913 2066 3209 1816 
Q 3506 1566 3506 1031 
Q 3506 472 3093 190 
Q 2681 -91 1863 -91 
Q 1516 -91 1145 -36 
Q 775 19 384 128 
L 384 978 
Q 719 816 1070 734 
Q 1422 653 1784 653 
Q 2113 653 2278 743 
Q 2444 834 2444 1013 
Q 2444 1163 2330 1236 
Q 2216 1309 1875 1350 
L 1678 1375 
Q 931 1469 631 1722 
Q 331 1975 331 2491 
Q 331 3047 712 3315 
Q 1094 3584 1881 3584 
Q 2191 3584 2531 3537 
Q 2872 3491 3272 3391 
z
" transform="scale(0.015625)"/>
      <path id="DejaVuSans-Bold-64" d="M 2919 2988 
L 2919 4863 
L 4044 4863 
L 4044 0 
L 2919 0 
L 2919 506 
Q 2688 197 2409 53 
Q 2131 -91 1766 -91 
Q 1119 -91 703 423 
Q 288 938 288 1747 
Q 288 2556 703 3070 
Q 1119 3584 1766 3584 
Q 2128 3584 2408 3439 
Q 2688 3294 2919 2988 
z
M 2181 722 
Q 2541 722 2730 984 
Q 2919 1247 2919 1747 
Q 2919 2247 2730 2509 
Q 2541 2772 2181 2772 
Q 1825 2772 1636 2509 
Q 1447 2247 1447 1747 
Q 1447 1247 1636 984 
Q 1825 722 2181 722 
z
" transform="scale(0.015625)"/>
      <path id="DejaVuSans-Bold-2d" d="M 347 2297 
L 2309 2297 
L 2309 1388 
L 347 1388 
L 347 2297 
z
" transform="scale(0.015625)"/>
      <path id="DejaVuSans-Bold-74" d="M 1759 4494 
L 1759 3500 
L 2913 3500 
L 2913 2700 
L 1759 2700 
L 1759 1216 
Q 1759 972 1856 886 
Q 1953 800 2241 800 
L 2816 800 
L 2816 0 
L 1856 0 
Q 1194 0 917 276 
Q 641 553 641 1216 
L 641 2700 
L 84 2700 
L 84 3500 
L 641 3500 
L 641 4494 
L 1759 4494 
z
" transform="scale(0.015625)"/>
      <path id="DejaVuSans-Bold-6f" d="M 2203 2784 
Q 1831 2784 1636 2517 
Q 1441 2250 1441 1747 
Q 1441 1244 1636 976 
Q 1831 709 2203 709 
Q 2569 709 2762 976 
Q 2956 1244 2956 1747 
Q 2956 2250 2762 2517 
Q 2569 2784 2203 2784 
z
M 2203 3584 
Q 3106 3584 3614 3096 
Q 4122 2609 4122 1747 
Q 4122 884 3614 396 
Q 3106 -91 2203 -91 
Q 1297 -91 786 396 
Q 275 884 275 1747 
Q 275 2609 786 3096 
Q 1297 3584 2203 3584 
z
" transform="scale(0.015625)"/>
     </defs>
     <use xlink:href="#DejaVuSans-Bold-47"/>
     <use xlink:href="#DejaVuSans-Bold-46" transform="translate(82.080078 0)"/>
     <use xlink:href="#DejaVuSans-Bold-51" transform="translate(150.390625 0)"/>
     <use xlink:href="#DejaVuSans-Bold-4c" transform="translate(235.400391 0)"/>
     <use xlink:href="#DejaVuSans-Bold-20" transform="translate(299.121094 0)"/>
     <use xlink:href="#DejaVuSans-Bold-43" transform="translate(333.935547 0)"/>
     <use xlink:href="#DejaVuSans-Bold-79" transform="translate(407.324219 0)"/>
     <use xlink:href="#DejaVuSans-Bold-70" transform="translate(472.509766 0)"/>
     <use xlink:href="#DejaVuSans-Bold-68" transform="translate(544.091797 0)"/>
     <use xlink:href="#DejaVuSans-Bold-65" transform="translate(615.283203 0)"/>
     <use xlink:href="#DejaVuSans-Bold-72" transform="translate(683.105469 0)"/>
     <use xlink:href="#DejaVuSans-Bold-20" transform="translate(732.421875 0)"/>
     <use xlink:href="#DejaVuSans-Bold-42" transform="translate(767.236328 0)"/>
     <use xlink:href="#DejaVuSans-Bold-65" transform="translate(843.457031 0)"/>
     <use xlink:href="#DejaVuSans-Bold-6e" transform="translate(911.279297 0)"/>
     <use xlink:href="#DejaVuSans-Bold-63" transform="translate(982.470703 0)"/>
     <use xlink:href="#DejaVuSans-Bold-68" transform="translate(1041.748047 0)"/>
     <use xlink:href="#DejaVuSans-Bold-6d" transform="translate(1112.939453 0)"/>
     <use xlink:href="#DejaVuSans-Bold-61" transform="translate(1217.138672 0)"/>
     <use xlink:href="#DejaVuSans-Bold-72" transform="translate(1284.619141 0)"/>
     <use xlink:href="#DejaVuSans-Bold-6b" transform="translate(1333.935547 0)"/>
     <use xlink:href="#DejaVuSans-Bold-3a" transform="translate(1400.439453 0)"/>
     <use xlink:href="#DejaVuSans-Bold-20" transform="translate(1440.429688 0)"/>
     <use xlink:href="#DejaVuSans-Bold-47" transform="translate(1475.244141 0)"/>
     <use xlink:href="#DejaVuSans-Bold-50" transform="translate(1557.324219 0)"/>
     <use xlink:href="#DejaVuSans-Bold-6c" transform="translate(1630.615234 0)"/>
     <use xlink:href="#DejaVuSans-Bold-75" transform="translate(1664.892578 0)"/>
     <use xlink:href="#DejaVuSans-Bold-73" transform="translate(1736.083984 0)"/>
     <use xlink:href="#DejaVuSans-Bold-20" transform="translate(1795.605469 0)"/>
     <use xlink:href="#DejaVuSans-Bold-65" transform="translate(1830.419922 0)"/>
     <use xlink:href="#DejaVuSans-Bold-6e" transform="translate(1898.242188 0)"/>
     <use xlink:href="#DejaVuSans-Bold-64" transform="translate(1969.433594 0)"/>
     <use xlink:href="#DejaVuSans-Bold-2d" transform="translate(2041.015625 0)"/>
     <use xlink:href="#DejaVuSans-Bold-74" transform="translate(2082.519531 0)"/>
     <use xlink:href="#DejaVuSans-Bold-6f" transform="translate(2130.322266 0)"/>
     <use xlink:href="#DejaVuSans-Bold-2d" transform="translate(2199.023438 0)"/>
     <use xlink:href="#DejaVuSans-Bold-65" transform="translate(2240.527344 0)"/>
     <use xlink:href="#DejaVuSans-Bold-6e" transform="translate(2308.349609 0)"/>
     <use xlink:href="#DejaVuSans-Bold-64" transform="translate(2379.541016 0)"/>
    </g>
   </g>
   <g id="legend_1">
    <g id="patch_17">
     <path d="M 129.598047 345.447217 
L 151.598047 345.447217 
L 151.598047 337.747217 
L 129.598047 337.747217 
z
" style="fill: #8f3b2f"/>
    </g>
    <g id="text_18">
     <!-- Neo4j pipeline (lower bound) -->
     <g transform="translate(160.398047 345.447217) scale(0.11 -0.11)">
      <use xlink:href="#DejaVuSans-4e"/>
      <use xlink:href="#DejaVuSans-65" transform="translate(74.804688 0)"/>
      <use xlink:href="#DejaVuSans-6f" transform="translate(136.328125 0)"/>
      <use xlink:href="#DejaVuSans-34" transform="translate(197.509766 0)"/>
      <use xlink:href="#DejaVuSans-6a" transform="translate(261.132812 0)"/>
      <use xlink:href="#DejaVuSans-20" transform="translate(288.916016 0)"/>
      <use xlink:href="#DejaVuSans-70" transform="translate(320.703125 0)"/>
      <use xlink:href="#DejaVuSans-69" transform="translate(384.179688 0)"/>
      <use xlink:href="#DejaVuSans-70" transform="translate(411.962891 0)"/>
      <use xlink:href="#DejaVuSans-65" transform="translate(475.439453 0)"/>
      <use xlink:href="#DejaVuSans-6c" transform="translate(536.962891 0)"/>
      <use xlink:href="#DejaVuSans-69" transform="translate(564.746094 0)"/>
      <use xlink:href="#DejaVuSans-6e" transform="translate(592.529297 0)"/>
      <use xlink:href="#DejaVuSans-65" transform="translate(655.908203 0)"/>
      <use xlink:href="#DejaVuSans-20" transform="translate(717.431641 0)"/>
      <use xlink:href="#DejaVuSans-28" transform="translate(749.21875 0)"/>
      <use xlink:href="#DejaVuSans-6c" transform="translate(788.232422 0)"/>
      <use xlink:href="#DejaVuSans-6f" transform="translate(816.015625 0)"/>
      <use xlink:href="#DejaVuSans-77" transform="translate(877.197266 0)"/>
      <use xlink:href="#DejaVuSans-65" transform="translate(958.984375 0)"/>
      <use xlink:href="#DejaVuSans-72" transform="translate(1020.507812 0)"/>
      <use xlink:href="#DejaVuSans-20" transform="translate(1061.621094 0)"/>
      <use xlink:href="#DejaVuSans-62" transform="translate(1093.408203 0)"/>
      <use xlink:href="#DejaVuSans-6f" transform="translate(1156.884766 0)"/>
      <use xlink:href="#DejaVuSans-75" transform="translate(1218.066406 0)"/>
      <use xlink:href="#DejaVuSans-6e" transform="translate(1281.445312 0)"/>
      <use xlink:href="#DejaVuSans-64" transform="translate(1344.824219 0)"/>
      <use xlink:href="#DejaVuSans-29" transform="translate(1408.300781 0)"/>
     </g>
    </g>
    <g id="patch_18">
     <path d="M 341.607578 345.447217 
L 363.607578 345.447217 
L 363.607578 337.747217 
L 341.607578 337.747217 
z
" style="fill: #6c8fb3"/>
    </g>
    <g id="text_19">
     <!-- ETL (load + shape) -->
     <g transform="translate(372.407578 345.447217) scale(0.11 -0.11)">
      <defs>
       <path id="DejaVuSans-45" d="M 628 4666 
L 3578 4666 
L 3578 4134 
L 1259 4134 
L 1259 2753 
L 3481 2753 
L 3481 2222 
L 1259 2222 
L 1259 531 
L 3634 531 
L 3634 0 
L 628 0 
L 628 4666 
z
" transform="scale(0.015625)"/>
       <path id="DejaVuSans-54" d="M -19 4666 
L 3928 4666 
L 3928 4134 
L 2272 4134 
L 2272 0 
L 1638 0 
L 1638 4134 
L -19 4134 
L -19 4666 
z
" transform="scale(0.015625)"/>
       <path id="DejaVuSans-4c" d="M 628 4666 
L 1259 4666 
L 1259 531 
L 3531 531 
L 3531 0 
L 628 0 
L 628 4666 
z
" transform="scale(0.015625)"/>
      </defs>
      <use xlink:href="#DejaVuSans-45"/>
      <use xlink:href="#DejaVuSans-54" transform="translate(63.183594 0)"/>
      <use xlink:href="#DejaVuSans-4c" transform="translate(124.267578 0)"/>
      <use xlink:href="#DejaVuSans-20" transform="translate(179.980469 0)"/>
      <use xlink:href="#DejaVuSans-28" transform="translate(211.767578 0)"/>
      <use xlink:href="#DejaVuSans-6c" transform="translate(250.78125 0)"/>
      <use xlink:href="#DejaVuSans-6f" transform="translate(278.564453 0)"/>
      <use xlink:href="#DejaVuSans-61" transform="translate(339.746094 0)"/>
      <use xlink:href="#DejaVuSans-64" transform="translate(401.025391 0)"/>
      <use xlink:href="#DejaVuSans-20" transform="translate(464.501953 0)"/>
      <use xlink:href="#DejaVuSans-2b" transform="translate(496.289062 0)"/>
      <use xlink:href="#DejaVuSans-20" transform="translate(580.078125 0)"/>
      <use xlink:href="#DejaVuSans-73" transform="translate(611.865234 0)"/>
      <use xlink:href="#DejaVuSans-68" transform="translate(663.964844 0)"/>
      <use xlink:href="#DejaVuSans-61" transform="translate(727.34375 0)"/>
      <use xlink:href="#DejaVuSans-70" transform="translate(788.623047 0)"/>
      <use xlink:href="#DejaVuSans-65" transform="translate(852.099609 0)"/>
      <use xlink:href="#DejaVuSans-29" transform="translate(913.623047 0)"/>
     </g>
    </g>
    <g id="patch_19">
     <path d="M 499.199766 345.447217 
L 521.199766 345.447217 
L 521.199766 337.747217 
L 499.199766 337.747217 
z
" style="fill: #d17c2f"/>
    </g>
    <g id="text_20">
     <!-- Search + Analytics -->
     <g transform="translate(529.999766 345.447217) scale(0.11 -0.11)">
      <defs>
       <path id="DejaVuSans-41" d="M 2188 4044 
L 1331 1722 
L 3047 1722 
L 2188 4044 
z
M 1831 4666 
L 2547 4666 
L 4325 0 
L 3669 0 
L 3244 1197 
L 1141 1197 
L 716 0 
L 50 0 
L 1831 4666 
z
" transform="scale(0.015625)"/>
      </defs>
      <use xlink:href="#DejaVuSans-53"/>
      <use xlink:href="#DejaVuSans-65" transform="translate(63.476562 0)"/>
      <use xlink:href="#DejaVuSans-61" transform="translate(125 0)"/>
      <use xlink:href="#DejaVuSans-72" transform="translate(186.279297 0)"/>
      <use xlink:href="#DejaVuSans-63" transform="translate(225.142578 0)"/>
      <use xlink:href="#DejaVuSans-68" transform="translate(280.123047 0)"/>
      <use xlink:href="#DejaVuSans-20" transform="translate(343.501953 0)"/>
      <use xlink:href="#DejaVuSans-2b" transform="translate(375.289062 0)"/>
      <use xlink:href="#DejaVuSans-20" transform="translate(459.078125 0)"/>
      <use xlink:href="#DejaVuSans-41" transform="translate(490.865234 0)"/>
      <use xlink:href="#DejaVuSans-6e" transform="translate(559.273438 0)"/>
      <use xlink:href="#DejaVuSans-61" transform="translate(622.652344 0)"/>
      <use xlink:href="#DejaVuSans-6c" transform="translate(683.931641 0)"/>
      <use xlink:href="#DejaVuSans-79" transform="translate(711.714844 0)"/>
      <use xlink:href="#DejaVuSans-74" transform="translate(770.894531 0)"/>
      <use xlink:href="#DejaVuSans-69" transform="translate(810.103516 0)"/>
      <use xlink:href="#DejaVuSans-63" transform="translate(837.886719 0)"/>
      <use xlink:href="#DejaVuSans-73" transform="translate(892.867188 0)"/>
     </g>
    </g>
   </g>
  </g>
 </g>
 <defs>
  <clipPath id="pd1b0d78e0b">
   <rect x="56.422188" y="43.4375" width="650.7" height="266.26896"/>
  </clipPath>
 </defs>
</svg>
