<?xml version="1.0" encoding="utf-8" standalone="no"?>
<!DOCTYPE svg PUBLIC "-//W3C//DTD SVG 1.1//EN"
  "http://www.w3.org/Graphics/SVG/1.1/DTD/svg11.dtd">
<svg xmlns:xlink="http://www.w3.org/1999/xlink" width="819.284687pt" height="364.001937pt" viewBox="0 0 819.284687 364.001937" xmlns="http://www.w3.org/2000/svg" version="1.1">
 <metadata>
  <rdf:RDF xmlns:dc="http://purl.org/dc/elements/1.1/" xmlns:cc="http://creativecommons.org/ns#" xmlns:rdf="http://www.w3.org/1999/02/22-rdf-syntax-ns#">
   <cc:Work>
    <dc:type rdf:resource="http://purl.org/dc/dcmitype/StillImage"/>
    <dc:date>2026-03-15T20:36:04.456211</dc:date>
    <dc:format>image/svg+xml</dc:format>
    <dc:creator>
     <cc:Agent>
      <dc:title>Matplotlib v3.10.8, https://matplotlib.org/</dc:title>
     </cc:Agent>
    </dc:creator>
   </cc:Work>
  </rdf:RDF>
 </metadata>
 <defs>
  <style type="text/css">*{stroke-linejoin: round; stroke-linecap: butt}</style>
 </defs>
 <g id="figure_1">
  <g id="patch_1">
   <path d="M 0 364.001937 
L 819.284687 364.001937 
L 819.284687 0 
L 0 0 
z
" style="fill: #ffffff"/>
  </g>
  <g id="axes_1">
   <g id="patch_2">
    <path d="M 35.844688 339.156 
L 416.274688 339.156 
L 416.274688 77.196 
L 35.844688 77.196 
z
" style="fill: #ffffff"/>
   </g>
   <g id="matplotlib.axis_1">
    <g id="xtick_1">
     <g id="line2d_1">
      <defs>
       <path id="m81e177a08a" d="M 0 0 
L 0 3.5 
" style="stroke: #334155; stroke-width: 0.8"/>
      </defs>
      <g>
       <use xlink:href="#m81e177a08a" x="119.317263" y="339.156" style="fill: #334155; stroke: #334155; stroke-width: 0.8"/>
      </g>
     </g>
     <g id="text_1">
      <!-- Graphistry GPU -->
      <g style="fill: #334155" transform="translate(77.029998 354.514281) scale(0.11 -0.11)">
       <defs>
        <path id="DejaVuSans-47" d="M 3809 666 
L 3809 1919 
L 2778 1919 
L 2778 2438 
L 4434 2438 
L 4434 434 
Q 4069 175 3628 42 
Q 3188 -91 2688 -91 
Q 1594 -91 976 548 
Q 359 1188 359 2328 
Q 359 3472 976 4111 
Q 1594 4750 2688 4750 
Q 3144 4750 3555 4637 
Q 3966 4525 4313 4306 
L 4313 3634 
Q 3963 3931 3569 4081 
Q 3175 4231 2741 4231 
Q 1884 4231 1454 3753 
Q 1025 3275 1025 2328 
Q 1025 1384 1454 906 
Q 1884 428 2741 428 
Q 3075 428 3337 486 
Q 3600 544 3809 666 
z
" transform="scale(0.015625)"/>
        <path id="DejaVuSans-72" d="M 2631 2963 
Q 2534 3019 2420 3045 
Q 2306 3072 2169 3072 
Q 1681 3072 1420 2755 
Q 1159 2438 1159 1844 
L 1159 0 
L 581 0 
L 581 3500 
L 1159 3500 
L 1159 2956 
Q 1341 3275 1631 3429 
Q 1922 3584 2338 3584 
Q 2397 3584 2469 3576 
Q 2541 3569 2628 3553 
L 2631 2963 
z
" transform="scale(0.015625)"/>
        <path id="DejaVuSans-61" d="M 2194 1759 
Q 1497 1759 1228 1600 
Q 959 1441 959 1056 
Q 959 750 1161 570 
Q 1363 391 1709 391 
Q 2188 391 2477 730 
Q 2766 1069 2766 1631 
L 2766 1759 
L 2194 1759 
z
M 3341 1997 
L 3341 0 
L 2766 0 
L 2766 531 
Q 2569 213 2275 61 
Q 1981 -91 1556 -91 
Q 1019 -91 701 211 
Q 384 513 384 1019 
Q 384 1609 779 1909 
Q 1175 2209 1959 2209 
L 2766 2209 
L 2766 2266 
Q 2766 2663 2505 2880 
Q 2244 3097 1772 3097 
Q 1472 3097 1187 3025 
Q 903 2953 641 2809 
L 641 3341 
Q 956 3463 1253 3523 
Q 1550 3584 1831 3584 
Q 2591 3584 2966 3190 
Q 3341 2797 3341 1997 
z
" transform="scale(0.015625)"/>
        <path id="DejaVuSans-70" d="M 1159 525 
L 1159 -1331 
L 581 -1331 
L 581 3500 
L 1159 3500 
L 1159 2969 
Q 1341 3281 1617 3432 
Q 1894 3584 2278 3584 
Q 2916 3584 3314 3078 
Q 3713 2572 3713 1747 
Q 3713 922 3314 415 
Q 2916 -91 2278 -91 
Q 1894 -91 1617 61 
Q 1341 213 1159 525 
z
M 3116 1747 
Q 3116 2381 2855 2742 
Q 2594 3103 2138 3103 
Q 1681 3103 1420 2742 
Q 1159 2381 1159 1747 
Q 1159 1113 1420 752 
Q 1681 391 2138 391 
Q 2594 391 2855 752 
Q 3116 1113 3116 1747 
z
" transform="scale(0.015625)"/>
        <path id="DejaVuSans-68" d="M 3513 2113 
L 3513 0 
L 2938 0 
L 2938 2094 
Q 2938 2591 2744 2837 
Q 2550 3084 2163 3084 
Q 1697 3084 1428 2787 
Q 1159 2491 1159 1978 
L 1159 0 
L 581 0 
L 581 4863 
L 1159 4863 
L 1159 2956 
Q 1366 3272 1645 3428 
Q 1925 3584 2291 3584 
Q 2894 3584 3203 3211 
Q 3513 2838 3513 2113 
z
" transform="scale(0.015625)"/>
        <path id="DejaVuSans-69" d="M 603 3500 
L 1178 3500 
L 1178 0 
L 603 0 
L 603 3500 
z
M 603 4863 
L 1178 4863 
L 1178 4134 
L 603 4134 
L 603 4863 
z
" transform="scale(0.015625)"/>
        <path id="DejaVuSans-73" d="M 2834 3397 
L 2834 2853 
Q 2591 2978 2328 3040 
Q 2066 3103 1784 3103 
Q 1356 3103 1142 2972 
Q 928 2841 928 2578 
Q 928 2378 1081 2264 
Q 1234 2150 1697 2047 
L 1894 2003 
Q 2506 1872 2764 1633 
Q 3022 1394 3022 966 
Q 3022 478 2636 193 
Q 2250 -91 1575 -91 
Q 1294 -91 989 -36 
Q 684 19 347 128 
L 347 722 
Q 666 556 975 473 
Q 1284 391 1588 391 
Q 1994 391 2212 530 
Q 2431 669 2431 922 
Q 2431 1156 2273 1281 
Q 2116 1406 1581 1522 
L 1381 1569 
Q 847 1681 609 1914 
Q 372 2147 372 2553 
Q 372 3047 722 3315 
Q 1072 3584 1716 3584 
Q 2034 3584 2315 3537 
Q 2597 3491 2834 3397 
z
" transform="scale(0.015625)"/>
        <path id="DejaVuSans-74" d="M 1172 4494 
L 1172 3500 
L 2356 3500 
L 2356 3053 
L 1172 3053 
L 1172 1153 
Q 1172 725 1289 603 
Q 1406 481 1766 481 
L 2356 481 
L 2356 0 
L 1766 0 
Q 1100 0 847 248 
Q 594 497 594 1153 
L 594 3053 
L 172 3053 
L 172 3500 
L 594 3500 
L 594 4494 
L 1172 4494 
z
" transform="scale(0.015625)"/>
        <path id="DejaVuSans-79" d="M 2059 -325 
Q 1816 -950 1584 -1140 
Q 1353 -1331 966 -1331 
L 506 -1331 
L 506 -850 
L 844 -850 
Q 1081 -850 1212 -737 
Q 1344 -625 1503 -206 
L 1606 56 
L 191 3500 
L 800 3500 
L 1894 763 
L 2988 3500 
L 3597 3500 
L 2059 -325 
z
" transform="scale(0.015625)"/>
        <path id="DejaVuSans-20" transform="scale(0.015625)"/>
        <path id="DejaVuSans-50" d="M 1259 4147 
L 1259 2394 
L 2053 2394 
Q 2494 2394 2734 2622 
Q 2975 2850 2975 3272 
Q 2975 3691 2734 3919 
Q 2494 4147 2053 4147 
L 1259 4147 
z
M 628 4666 
L 2053 4666 
Q 2838 4666 3239 4311 
Q 3641 3956 3641 3272 
Q 3641 2581 3239 2228 
Q 2838 1875 2053 1875 
L 1259 1875 
L 1259 0 
L 628 0 
L 628 4666 
z
" transform="scale(0.015625)"/>
        <path id="DejaVuSans-55" d="M 556 4666 
L 1191 4666 
L 1191 1831 
Q 1191 1081 1462 751 
Q 1734 422 2344 422 
Q 2950 422 3222 751 
Q 3494 1081 3494 1831 
L 3494 4666 
L 4128 4666 
L 4128 1753 
Q 4128 841 3676 375 
Q 3225 -91 2344 -91 
Q 1459 -91 1007 375 
Q 556 841 556 1753 
L 556 4666 
z
" transform="scale(0.015625)"/>
       </defs>
       <use xlink:href="#DejaVuSans-47"/>
       <use xlink:href="#DejaVuSans-72" transform="translate(77.490234 0)"/>
       <use xlink:href="#DejaVuSans-61" transform="translate(118.603516 0)"/>
       <use xlink:href="#DejaVuSans-70" transform="translate(179.882812 0)"/>
       <use xlink:href="#DejaVuSans-68" transform="translate(243.359375 0)"/>
       <use xlink:href="#DejaVuSans-69" transform="translate(306.738281 0)"/>
       <use xlink:href="#DejaVuSans-73" transform="translate(334.521484 0)"/>
       <use xlink:href="#DejaVuSans-74" transform="translate(386.621094 0)"/>
       <use xlink:href="#DejaVuSans-72" transform="translate(425.830078 0)"/>
       <use xlink:href="#DejaVuSans-79" transform="translate(466.943359 0)"/>
       <use xlink:href="#DejaVuSans-20" transform="translate(526.123047 0)"/>
       <use xlink:href="#DejaVuSans-47" transform="translate(557.910156 0)"/>
       <use xlink:href="#DejaVuSans-50" transform="translate(635.400391 0)"/>
       <use xlink:href="#DejaVuSans-55" transform="translate(695.703125 0)"/>
      </g>
     </g>
    </g>
    <g id="xtick_2">
     <g id="line2d_2">
      <g>
       <use xlink:href="#m81e177a08a" x="332.802112" y="339.156" style="fill: #334155; stroke: #334155; stroke-width: 0.8"/>
      </g>
     </g>
     <g id="text_2">
      <!-- Graphistry CPU -->
      <g style="fill: #334155" transform="translate(290.93594 354.514281) scale(0.11 -0.11)">
       <defs>
        <path id="DejaVuSans-43" d="M 4122 4306 
L 4122 3641 
Q 3803 3938 3442 4084 
Q 3081 4231 2675 4231 
Q 1875 4231 1450 3742 
Q 1025 3253 1025 2328 
Q 1025 1406 1450 917 
Q 1875 428 2675 428 
Q 3081 428 3442 575 
Q 3803 722 4122 1019 
L 4122 359 
Q 3791 134 3420 21 
Q 3050 -91 2638 -91 
Q 1578 -91 968 557 
Q 359 1206 359 2328 
Q 359 3453 968 4101 
Q 1578 4750 2638 4750 
Q 3056 4750 3426 4639 
Q 3797 4528 4122 4306 
z
" transform="scale(0.015625)"/>
       </defs>
       <use xlink:href="#DejaVuSans-47"/>
       <use xlink:href="#DejaVuSans-72" transform="translate(77.490234 0)"/>
       <use xlink:href="#DejaVuSans-61" transform="translate(118.603516 0)"/>
       <use xlink:href="#DejaVuSans-70" transform="translate(179.882812 0)"/>
       <use xlink:href="#DejaVuSans-68" transform="translate(243.359375 0)"/>
       <use xlink:href="#DejaVuSans-69" transform="translate(306.738281 0)"/>
       <use xlink:href="#DejaVuSans-73" transform="translate(334.521484 0)"/>
       <use xlink:href="#DejaVuSans-74" transform="translate(386.621094 0)"/>
       <use xlink:href="#DejaVuSans-72" transform="translate(425.830078 0)"/>
       <use xlink:href="#DejaVuSans-79" transform="translate(466.943359 0)"/>
       <use xlink:href="#DejaVuSans-20" transform="translate(526.123047 0)"/>
       <use xlink:href="#DejaVuSans-43" transform="translate(557.910156 0)"/>
       <use xlink:href="#DejaVuSans-50" transform="translate(627.734375 0)"/>
       <use xlink:href="#DejaVuSans-55" transform="translate(688.037109 0)"/>
      </g>
     </g>
    </g>
   </g>
   <g id="matplotlib.axis_2">
    <g id="ytick_1">
     <g id="line2d_3">
      <path d="M 35.844688 339.156 
L 416.274688 339.156 
" clip-path="url(#p48f4e421b1)" style="fill: none; stroke: #e2e8f0; stroke-opacity: 0.5; stroke-width: 0.8; stroke-linecap: square"/>
     </g>
     <g id="line2d_4">
      <defs>
       <path id="mac31af4e88" d="M 0 0 
L -3.5 0 
" style="stroke: #334155; stroke-width: 0.8"/>
      </defs>
      <g>
       <use xlink:href="#mac31af4e88" x="35.844688" y="339.156" style="fill: #334155; stroke: #334155; stroke-width: 0.8"/>
      </g>
     </g>
     <g id="text_3">
      <!-- 0 -->
      <g style="fill: #334155" transform="translate(21.845938 343.335141) scale(0.11 -0.11)">
       <defs>
        <path id="DejaVuSans-30" d="M 2034 4250 
Q 1547 4250 1301 3770 
Q 1056 3291 1056 2328 
Q 1056 1369 1301 889 
Q 1547 409 2034 409 
Q 2525 409 2770 889 
Q 3016 1369 3016 2328 
Q 3016 3291 2770 3770 
Q 2525 4250 2034 4250 
z
M 2034 4750 
Q 2819 4750 3233 4129 
Q 3647 3509 3647 2328 
Q 3647 1150 3233 529 
Q 2819 -91 2034 -91 
Q 1250 -91 836 529 
Q 422 1150 422 2328 
Q 422 3509 836 4129 
Q 1250 4750 2034 4750 
z
" transform="scale(0.015625)"/>
       </defs>
       <use xlink:href="#DejaVuSans-30"/>
      </g>
     </g>
    </g>
    <g id="ytick_2">
     <g id="line2d_5">
      <path d="M 35.844688 281.930568 
L 416.274688 281.930568 
" clip-path="url(#p48f4e421b1)" style="fill: none; stroke: #e2e8f0; stroke-opacity: 0.5; stroke-width: 0.8; stroke-linecap: square"/>
     </g>
     <g id="line2d_6">
      <g>
       <use xlink:href="#mac31af4e88" x="35.844688" y="281.930568" style="fill: #334155; stroke: #334155; stroke-width: 0.8"/>
      </g>
     </g>
     <g id="text_4">
      <!-- 2 -->
      <g style="fill: #334155" transform="translate(21.845938 286.109709) scale(0.11 -0.11)">
       <defs>
        <path id="DejaVuSans-32" d="M 1228 531 
L 3431 531 
L 3431 0 
L 469 0 
L 469 531 
Q 828 903 1448 1529 
Q 2069 2156 2228 2338 
Q 2531 2678 2651 2914 
Q 2772 3150 2772 3378 
Q 2772 3750 2511 3984 
Q 2250 4219 1831 4219 
Q 1534 4219 1204 4116 
Q 875 4013 500 3803 
L 500 4441 
Q 881 4594 1212 4672 
Q 1544 4750 1819 4750 
Q 2544 4750 2975 4387 
Q 3406 4025 3406 3419 
Q 3406 3131 3298 2873 
Q 3191 2616 2906 2266 
Q 2828 2175 2409 1742 
Q 1991 1309 1228 531 
z
" transform="scale(0.015625)"/>
       </defs>
       <use xlink:href="#DejaVuSans-32"/>
      </g>
     </g>
    </g>
    <g id="ytick_3">
     <g id="line2d_7">
      <path d="M 35.844688 224.705137 
L 416.274688 224.705137 
" clip-path="url(#p48f4e421b1)" style="fill: none; stroke: #e2e8f0; stroke-opacity: 0.5; stroke-width: 0.8; stroke-linecap: square"/>
     </g>
     <g id="line2d_8">
      <g>
       <use xlink:href="#mac31af4e88" x="35.844688" y="224.705137" style="fill: #334155; stroke: #334155; stroke-width: 0.8"/>
      </g>
     </g>
     <g id="text_5">
      <!-- 4 -->
      <g style="fill: #334155" transform="translate(21.845938 228.884277) scale(0.11 -0.11)">
       <defs>
        <path id="DejaVuSans-34" d="M 2419 4116 
L 825 1625 
L 2419 1625 
L 2419 4116 
z
M 2253 4666 
L 3047 4666 
L 3047 1625 
L 3713 1625 
L 3713 1100 
L 3047 1100 
L 3047 0 
L 2419 0 
L 2419 1100 
L 313 1100 
L 313 1709 
L 2253 4666 
z
" transform="scale(0.015625)"/>
       </defs>
       <use xlink:href="#DejaVuSans-34"/>
      </g>
     </g>
    </g>
    <g id="ytick_4">
     <g id="line2d_9">
      <path d="M 35.844688 167.479705 
L 416.274688 167.479705 
" clip-path="url(#p48f4e421b1)" style="fill: none; stroke: #e2e8f0; stroke-opacity: 0.5; stroke-width: 0.8; stroke-linecap: square"/>
     </g>
     <g id="line2d_10">
      <g>
       <use xlink:href="#mac31af4e88" x="35.844688" y="167.479705" style="fill: #334155; stroke: #334155; stroke-width: 0.8"/>
      </g>
     </g>
     <g id="text_6">
      <!-- 6 -->
      <g style="fill: #334155" transform="translate(21.845938 171.658846) scale(0.11 -0.11)">
       <defs>
        <path id="DejaVuSans-36" d="M 2113 2584 
Q 1688 2584 1439 2293 
Q 1191 2003 1191 1497 
Q 1191 994 1439 701 
Q 1688 409 2113 409 
Q 2538 409 2786 701 
Q 3034 994 3034 1497 
Q 3034 2003 2786 2293 
Q 2538 2584 2113 2584 
z
M 3366 4563 
L 3366 3988 
Q 3128 4100 2886 4159 
Q 2644 4219 2406 4219 
Q 1781 4219 1451 3797 
Q 1122 3375 1075 2522 
Q 1259 2794 1537 2939 
Q 1816 3084 2150 3084 
Q 2853 3084 3261 2657 
Q 3669 2231 3669 1497 
Q 3669 778 3244 343 
Q 2819 -91 2113 -91 
Q 1303 -91 875 529 
Q 447 1150 447 2328 
Q 447 3434 972 4092 
Q 1497 4750 2381 4750 
Q 2619 4750 2861 4703 
Q 3103 4656 3366 4563 
z
" transform="scale(0.015625)"/>
       </defs>
       <use xlink:href="#DejaVuSans-36"/>
      </g>
     </g>
    </g>
    <g id="ytick_5">
     <g id="line2d_11">
      <path d="M 35.844688 110.254273 
L 416.274688 110.254273 
" clip-path="url(#p48f4e421b1)" style="fill: none; stroke: #e2e8f0; stroke-opacity: 0.5; stroke-width: 0.8; stroke-linecap: square"/>
     </g>
     <g id="line2d_12">
      <g>
       <use xlink:href="#mac31af4e88" x="35.844688" y="110.254273" style="fill: #334155; stroke: #334155; stroke-width: 0.8"/>
      </g>
     </g>
     <g id="text_7">
      <!-- 8 -->
      <g style="fill: #334155" transform="translate(21.845938 114.433414) scale(0.11 -0.11)">
       <defs>
        <path id="DejaVuSans-38" d="M 2034 2216 
Q 1584 2216 1326 1975 
Q 1069 1734 1069 1313 
Q 1069 891 1326 650 
Q 1584 409 2034 409 
Q 2484 409 2743 651 
Q 3003 894 3003 1313 
Q 3003 1734 2745 1975 
Q 2488 2216 2034 2216 
z
M 1403 2484 
Q 997 2584 770 2862 
Q 544 3141 544 3541 
Q 544 4100 942 4425 
Q 1341 4750 2034 4750 
Q 2731 4750 3128 4425 
Q 3525 4100 3525 3541 
Q 3525 3141 3298 2862 
Q 3072 2584 2669 2484 
Q 3125 2378 3379 2068 
Q 3634 1759 3634 1313 
Q 3634 634 3220 271 
Q 2806 -91 2034 -91 
Q 1263 -91 848 271 
Q 434 634 434 1313 
Q 434 1759 690 2068 
Q 947 2378 1403 2484 
z
M 1172 3481 
Q 1172 3119 1398 2916 
Q 1625 2713 2034 2713 
Q 2441 2713 2670 2916 
Q 2900 3119 2900 3481 
Q 2900 3844 2670 4047 
Q 2441 4250 2034 4250 
Q 1625 4250 1398 4047 
Q 1172 3844 1172 3481 
z
" transform="scale(0.015625)"/>
       </defs>
       <use xlink:href="#DejaVuSans-38"/>
      </g>
     </g>
    </g>
    <g id="text_8">
     <!-- Median seconds -->
     <g style="fill: #0f172a" transform="translate(15.558281 252.410609) rotate(-90) scale(0.11 -0.11)">
      <defs>
       <path id="DejaVuSans-4d" d="M 628 4666 
L 1569 4666 
L 2759 1491 
L 3956 4666 
L 4897 4666 
L 4897 0 
L 4281 0 
L 4281 4097 
L 3078 897 
L 2444 897 
L 1241 4097 
L 1241 0 
L 628 0 
L 628 4666 
z
" transform="scale(0.015625)"/>
       <path id="DejaVuSans-65" d="M 3597 1894 
L 3597 1613 
L 953 1613 
Q 991 1019 1311 708 
Q 1631 397 2203 397 
Q 2534 397 2845 478 
Q 3156 559 3463 722 
L 3463 178 
Q 3153 47 2828 -22 
Q 2503 -91 2169 -91 
Q 1331 -91 842 396 
Q 353 884 353 1716 
Q 353 2575 817 3079 
Q 1281 3584 2069 3584 
Q 2775 3584 3186 3129 
Q 3597 2675 3597 1894 
z
M 3022 2063 
Q 3016 2534 2758 2815 
Q 2500 3097 2075 3097 
Q 1594 3097 1305 2825 
Q 1016 2553 972 2059 
L 3022 2063 
z
" transform="scale(0.015625)"/>
       <path id="DejaVuSans-64" d="M 2906 2969 
L 2906 4863 
L 3481 4863 
L 3481 0 
L 2906 0 
L 2906 525 
Q 2725 213 2448 61 
Q 2172 -91 1784 -91 
Q 1150 -91 751 415 
Q 353 922 353 1747 
Q 353 2572 751 3078 
Q 1150 3584 1784 3584 
Q 2172 3584 2448 3432 
Q 2725 3281 2906 2969 
z
M 947 1747 
Q 947 1113 1208 752 
Q 1469 391 1925 391 
Q 2381 391 2643 752 
Q 2906 1113 2906 1747 
Q 2906 2381 2643 2742 
Q 2381 3103 1925 3103 
Q 1469 3103 1208 2742 
Q 947 2381 947 1747 
z
" transform="scale(0.015625)"/>
       <path id="DejaVuSans-6e" d="M 3513 2113 
L 3513 0 
L 2938 0 
L 2938 2094 
Q 2938 2591 2744 2837 
Q 2550 3084 2163 3084 
Q 1697 3084 1428 2787 
Q 1159 2491 1159 1978 
L 1159 0 
L 581 0 
L 581 3500 
L 1159 3500 
L 1159 2956 
Q 1366 3272 1645 3428 
Q 1925 3584 2291 3584 
Q 2894 3584 3203 3211 
Q 3513 2838 3513 2113 
z
" transform="scale(0.015625)"/>
       <path id="DejaVuSans-63" d="M 3122 3366 
L 3122 2828 
Q 2878 2963 2633 3030 
Q 2388 3097 2138 3097 
Q 1578 3097 1268 2742 
Q 959 2388 959 1747 
Q 959 1106 1268 751 
Q 1578 397 2138 397 
Q 2388 397 2633 464 
Q 2878 531 3122 666 
L 3122 134 
Q 2881 22 2623 -34 
Q 2366 -91 2075 -91 
Q 1284 -91 818 406 
Q 353 903 353 1747 
Q 353 2603 823 3093 
Q 1294 3584 2113 3584 
Q 2378 3584 2631 3529 
Q 2884 3475 3122 3366 
z
" transform="scale(0.015625)"/>
       <path id="DejaVuSans-6f" d="M 1959 3097 
Q 1497 3097 1228 2736 
Q 959 2375 959 1747 
Q 959 1119 1226 758 
Q 1494 397 1959 397 
Q 2419 397 2687 759 
Q 2956 1122 2956 1747 
Q 2956 2369 2687 2733 
Q 2419 3097 1959 3097 
z
M 1959 3584 
Q 2709 3584 3137 3096 
Q 3566 2609 3566 1747 
Q 3566 888 3137 398 
Q 2709 -91 1959 -91 
Q 1206 -91 779 398 
Q 353 888 353 1747 
Q 353 2609 779 3096 
Q 1206 3584 1959 3584 
z
" transform="scale(0.015625)"/>
      </defs>
      <use xlink:href="#DejaVuSans-4d"/>
      <use xlink:href="#DejaVuSans-65" transform="translate(86.279297 0)"/>
      <use xlink:href="#DejaVuSans-64" transform="translate(147.802734 0)"/>
      <use xlink:href="#DejaVuSans-69" transform="translate(211.279297 0)"/>
      <use xlink:href="#DejaVuSans-61" transform="translate(239.0625 0)"/>
      <use xlink:href="#DejaVuSans-6e" transform="translate(300.341797 0)"/>
      <use xlink:href="#DejaVuSans-20" transform="translate(363.720703 0)"/>
      <use xlink:href="#DejaVuSans-73" transform="translate(395.507812 0)"/>
      <use xlink:href="#DejaVuSans-65" transform="translate(447.607422 0)"/>
      <use xlink:href="#DejaVuSans-63" transform="translate(509.130859 0)"/>
      <use xlink:href="#DejaVuSans-6f" transform="translate(564.111328 0)"/>
      <use xlink:href="#DejaVuSans-6e" transform="translate(625.292969 0)"/>
      <use xlink:href="#DejaVuSans-64" transform="translate(688.671875 0)"/>
      <use xlink:href="#DejaVuSans-73" transform="translate(752.148438 0)"/>
     </g>
    </g>
   </g>
   <g id="patch_3">
    <path d="M 53.13696 339.156 
L 185.497566 339.156 
L 185.497566 336.689584 
L 53.13696 336.689584 
z
" clip-path="url(#p48f4e421b1)" style="fill: #6c8fb3"/>
   </g>
   <g id="patch_4">
    <path d="M 266.621809 339.156 
L 398.982415 339.156 
L 398.982415 332.987098 
L 266.621809 332.987098 
z
" clip-path="url(#p48f4e421b1)" style="fill: #6c8fb3"/>
   </g>
   <g id="patch_5">
    <path d="M 53.13696 336.689584 
L 185.497566 336.689584 
L 185.497566 336.266116 
L 53.13696 336.266116 
z
" clip-path="url(#p48f4e421b1)" style="fill: #d17c2f"/>
   </g>
   <g id="patch_6">
    <path d="M 266.621809 332.987098 
L 398.982415 332.987098 
L 398.982415 331.21311 
L 266.621809 331.21311 
z
" clip-path="url(#p48f4e421b1)" style="fill: #d17c2f"/>
   </g>
   <g id="patch_7">
    <path d="M 53.13696 336.266116 
L 185.497566 336.266116 
L 185.497566 336.263254 
L 53.13696 336.263254 
z
" clip-path="url(#p48f4e421b1)" style="fill: #bfc7d5"/>
   </g>
   <g id="patch_8">
    <path d="M 266.621809 331.21311 
L 398.982415 331.21311 
L 398.982415 331.210249 
L 266.621809 331.210249 
z
" clip-path="url(#p48f4e421b1)" style="fill: #bfc7d5"/>
   </g>
   <g id="patch_9">
    <path d="M 35.844688 339.156 
L 35.844688 77.196 
" style="fill: none; stroke: #d0d7de; stroke-width: 0.8; stroke-linejoin: miter; stroke-linecap: square"/>
   </g>
   <g id="patch_10">
    <path d="M 416.274688 339.156 
L 416.274688 77.196 
" style="fill: none; stroke: #d0d7de; stroke-width: 0.8; stroke-linejoin: miter; stroke-linecap: square"/>
   </g>
   <g id="patch_11">
    <path d="M 35.844687 339.156 
L 416.274688 339.156 
" style="fill: none; stroke: #d0d7de; stroke-width: 0.8; stroke-linejoin: miter; stroke-linecap: square"/>
   </g>
   <g id="patch_12">
    <path d="M 35.844687 77.196 
L 416.274688 77.196 
" style="fill: none; stroke: #d0d7de; stroke-width: 0.8; stroke-linejoin: miter; stroke-linecap: square"/>
   </g>
   <g id="text_9">
    <!-- 0.10s -->
    <g transform="translate(105.579763 333.945194) scale(0.1 -0.1)">
     <defs>
      <path id="DejaVuSans-2e" d="M 684 794 
L 1344 794 
L 1344 0 
L 684 0 
L 684 794 
z
" transform="scale(0.015625)"/>
      <path id="DejaVuSans-31" d="M 794 531 
L 1825 531 
L 1825 4091 
L 703 3866 
L 703 4441 
L 1819 4666 
L 2450 4666 
L 2450 531 
L 3481 531 
L 3481 0 
L 794 0 
L 794 531 
z
" transform="scale(0.015625)"/>
     </defs>
     <use xlink:href="#DejaVuSans-30"/>
     <use xlink:href="#DejaVuSans-2e" transform="translate(63.623047 0)"/>
     <use xlink:href="#DejaVuSans-31" transform="translate(95.410156 0)"/>
     <use xlink:href="#DejaVuSans-30" transform="translate(159.033203 0)"/>
     <use xlink:href="#DejaVuSans-73" transform="translate(222.65625 0)"/>
    </g>
   </g>
   <g id="text_10">
    <!-- 0.28s -->
    <g transform="translate(319.064612 328.892189) scale(0.1 -0.1)">
     <use xlink:href="#DejaVuSans-30"/>
     <use xlink:href="#DejaVuSans-2e" transform="translate(63.623047 0)"/>
     <use xlink:href="#DejaVuSans-32" transform="translate(95.410156 0)"/>
     <use xlink:href="#DejaVuSans-38" transform="translate(159.033203 0)"/>
     <use xlink:href="#DejaVuSans-73" transform="translate(222.65625 0)"/>
    </g>
   </g>
   <g id="text_11">
    <!-- Twitter: cached load + shape -->
    <g transform="translate(95.184687 71.196) scale(0.16 -0.16)">
     <defs>
      <path id="DejaVuSans-Bold-54" d="M 31 4666 
L 4331 4666 
L 4331 3756 
L 2784 3756 
L 2784 0 
L 1581 0 
L 1581 3756 
L 31 3756 
L 31 4666 
z
" transform="scale(0.015625)"/>
      <path id="DejaVuSans-Bold-77" d="M 225 3500 
L 1313 3500 
L 1900 1088 
L 2491 3500 
L 3425 3500 
L 4013 1113 
L 4603 3500 
L 5691 3500 
L 4769 0 
L 3547 0 
L 2956 2406 
L 2369 0 
L 1147 0 
L 225 3500 
z
" transform="scale(0.015625)"/>
      <path id="DejaVuSans-Bold-69" d="M 538 3500 
L 1656 3500 
L 1656 0 
L 538 0 
L 538 3500 
z
M 538 4863 
L 1656 4863 
L 1656 3950 
L 538 3950 
L 538 4863 
z
" transform="scale(0.015625)"/>
      <path id="DejaVuSans-Bold-74" d="M 1759 4494 
L 1759 3500 
L 2913 3500 
L 2913 2700 
L 1759 2700 
L 1759 1216 
Q 1759 972 1856 886 
Q 1953 800 2241 800 
L 2816 800 
L 2816 0 
L 1856 0 
Q 1194 0 917 276 
Q 641 553 641 1216 
L 641 2700 
L 84 2700 
L 84 3500 
L 641 3500 
L 641 4494 
L 1759 4494 
z
" transform="scale(0.015625)"/>
      <path id="DejaVuSans-Bold-65" d="M 4031 1759 
L 4031 1441 
L 1416 1441 
Q 1456 1047 1700 850 
Q 1944 653 2381 653 
Q 2734 653 3104 758 
Q 3475 863 3866 1075 
L 3866 213 
Q 3469 63 3072 -14 
Q 2675 -91 2278 -91 
Q 1328 -91 801 392 
Q 275 875 275 1747 
Q 275 2603 792 3093 
Q 1309 3584 2216 3584 
Q 3041 3584 3536 3087 
Q 4031 2591 4031 1759 
z
M 2881 2131 
Q 2881 2450 2695 2645 
Q 2509 2841 2209 2841 
Q 1884 2841 1681 2658 
Q 1478 2475 1428 2131 
L 2881 2131 
z
" transform="scale(0.015625)"/>
      <path id="DejaVuSans-Bold-72" d="M 3138 2547 
Q 2991 2616 2845 2648 
Q 2700 2681 2553 2681 
Q 2122 2681 1889 2404 
Q 1656 2128 1656 1613 
L 1656 0 
L 538 0 
L 538 3500 
L 1656 3500 
L 1656 2925 
Q 1872 3269 2151 3426 
Q 2431 3584 2822 3584 
Q 2878 3584 2943 3579 
Q 3009 3575 3134 3559 
L 3138 2547 
z
" transform="scale(0.015625)"/>
      <path id="DejaVuSans-Bold-3a" d="M 716 3500 
L 1844 3500 
L 1844 2291 
L 716 2291 
L 716 3500 
z
M 716 1209 
L 1844 1209 
L 1844 0 
L 716 0 
L 716 1209 
z
" transform="scale(0.015625)"/>
      <path id="DejaVuSans-Bold-20" transform="scale(0.015625)"/>
      <path id="DejaVuSans-Bold-63" d="M 3366 3391 
L 3366 2478 
Q 3138 2634 2908 2709 
Q 2678 2784 2431 2784 
Q 1963 2784 1702 2511 
Q 1441 2238 1441 1747 
Q 1441 1256 1702 982 
Q 1963 709 2431 709 
Q 2694 709 2930 787 
Q 3166 866 3366 1019 
L 3366 103 
Q 3103 6 2833 -42 
Q 2563 -91 2291 -91 
Q 1344 -91 809 395 
Q 275 881 275 1747 
Q 275 2613 809 3098 
Q 1344 3584 2291 3584 
Q 2566 3584 2833 3536 
Q 3100 3488 3366 3391 
z
" transform="scale(0.015625)"/>
      <path id="DejaVuSans-Bold-61" d="M 2106 1575 
Q 1756 1575 1579 1456 
Q 1403 1338 1403 1106 
Q 1403 894 1545 773 
Q 1688 653 1941 653 
Q 2256 653 2472 879 
Q 2688 1106 2688 1447 
L 2688 1575 
L 2106 1575 
z
M 3816 1997 
L 3816 0 
L 2688 0 
L 2688 519 
Q 2463 200 2181 54 
Q 1900 -91 1497 -91 
Q 953 -91 614 226 
Q 275 544 275 1050 
Q 275 1666 698 1953 
Q 1122 2241 2028 2241 
L 2688 2241 
L 2688 2328 
Q 2688 2594 2478 2717 
Q 2269 2841 1825 2841 
Q 1466 2841 1156 2769 
Q 847 2697 581 2553 
L 581 3406 
Q 941 3494 1303 3539 
Q 1666 3584 2028 3584 
Q 2975 3584 3395 3211 
Q 3816 2838 3816 1997 
z
" transform="scale(0.015625)"/>
      <path id="DejaVuSans-Bold-68" d="M 4056 2131 
L 4056 0 
L 2931 0 
L 2931 347 
L 2931 1625 
Q 2931 2084 2911 2256 
Q 2891 2428 2841 2509 
Q 2775 2619 2662 2680 
Q 2550 2741 2406 2741 
Q 2056 2741 1856 2470 
Q 1656 2200 1656 1722 
L 1656 0 
L 538 0 
L 538 4863 
L 1656 4863 
L 1656 2988 
Q 1909 3294 2193 3439 
Q 2478 3584 2822 3584 
Q 3428 3584 3742 3212 
Q 4056 2841 4056 2131 
z
" transform="scale(0.015625)"/>
      <path id="DejaVuSans-Bold-64" d="M 2919 2988 
L 2919 4863 
L 4044 4863 
L 4044 0 
L 2919 0 
L 2919 506 
Q 2688 197 2409 53 
Q 2131 -91 1766 -91 
Q 1119 -91 703 423 
Q 288 938 288 1747 
Q 288 2556 703 3070 
Q 1119 3584 1766 3584 
Q 2128 3584 2408 3439 
Q 2688 3294 2919 2988 
z
M 2181 722 
Q 2541 722 2730 984 
Q 2919 1247 2919 1747 
Q 2919 2247 2730 2509 
Q 2541 2772 2181 2772 
Q 1825 2772 1636 2509 
Q 1447 2247 1447 1747 
Q 1447 1247 1636 984 
Q 1825 722 2181 722 
z
" transform="scale(0.015625)"/>
      <path id="DejaVuSans-Bold-6c" d="M 538 4863 
L 1656 4863 
L 1656 0 
L 538 0 
L 538 4863 
z
" transform="scale(0.015625)"/>
      <path id="DejaVuSans-Bold-6f" d="M 2203 2784 
Q 1831 2784 1636 2517 
Q 1441 2250 1441 1747 
Q 1441 1244 1636 976 
Q 1831 709 2203 709 
Q 2569 709 2762 976 
Q 2956 1244 2956 1747 
Q 2956 2250 2762 2517 
Q 2569 2784 2203 2784 
z
M 2203 3584 
Q 3106 3584 3614 3096 
Q 4122 2609 4122 1747 
Q 4122 884 3614 396 
Q 3106 -91 2203 -91 
Q 1297 -91 786 396 
Q 275 884 275 1747 
Q 275 2609 786 3096 
Q 1297 3584 2203 3584 
z
" transform="scale(0.015625)"/>
      <path id="DejaVuSans-Bold-2b" d="M 3053 4013 
L 3053 2375 
L 4684 2375 
L 4684 1638 
L 3053 1638 
L 3053 0 
L 2309 0 
L 2309 1638 
L 678 1638 
L 678 2375 
L 2309 2375 
L 2309 4013 
L 3053 4013 
z
" transform="scale(0.015625)"/>
      <path id="DejaVuSans-Bold-73" d="M 3272 3391 
L 3272 2541 
Q 2913 2691 2578 2766 
Q 2244 2841 1947 2841 
Q 1628 2841 1473 2761 
Q 1319 2681 1319 2516 
Q 1319 2381 1436 2309 
Q 1553 2238 1856 2203 
L 2053 2175 
Q 2913 2066 3209 1816 
Q 3506 1566 3506 1031 
Q 3506 472 3093 190 
Q 2681 -91 1863 -91 
Q 1516 -91 1145 -36 
Q 775 19 384 128 
L 384 978 
Q 719 816 1070 734 
Q 1422 653 1784 653 
Q 2113 653 2278 743 
Q 2444 834 2444 1013 
Q 2444 1163 2330 1236 
Q 2216 1309 1875 1350 
L 1678 1375 
Q 931 1469 631 1722 
Q 331 1975 331 2491 
Q 331 3047 712 3315 
Q 1094 3584 1881 3584 
Q 2191 3584 2531 3537 
Q 2872 3491 3272 3391 
z
" transform="scale(0.015625)"/>
      <path id="DejaVuSans-Bold-70" d="M 1656 506 
L 1656 -1331 
L 538 -1331 
L 538 3500 
L 1656 3500 
L 1656 2988 
Q 1888 3294 2169 3439 
Q 2450 3584 2816 3584 
Q 3463 3584 3878 3070 
Q 4294 2556 4294 1747 
Q 4294 938 3878 423 
Q 3463 -91 2816 -91 
Q 2450 -91 2169 54 
Q 1888 200 1656 506 
z
M 2400 2772 
Q 2041 2772 1848 2508 
Q 1656 2244 1656 1747 
Q 1656 1250 1848 986 
Q 2041 722 2400 722 
Q 2759 722 2948 984 
Q 3138 1247 3138 1747 
Q 3138 2247 2948 2509 
Q 2759 2772 2400 2772 
z
" transform="scale(0.015625)"/>
     </defs>
     <use xlink:href="#DejaVuSans-Bold-54"/>
     <use xlink:href="#DejaVuSans-Bold-77" transform="translate(57.212891 0)"/>
     <use xlink:href="#DejaVuSans-Bold-69" transform="translate(149.595703 0)"/>
     <use xlink:href="#DejaVuSans-Bold-74" transform="translate(183.873047 0)"/>
     <use xlink:href="#DejaVuSans-Bold-74" transform="translate(231.675781 0)"/>
     <use xlink:href="#DejaVuSans-Bold-65" transform="translate(279.478516 0)"/>
     <use xlink:href="#DejaVuSans-Bold-72" transform="translate(347.300781 0)"/>
     <use xlink:href="#DejaVuSans-Bold-3a" transform="translate(396.617188 0)"/>
     <use xlink:href="#DejaVuSans-Bold-20" transform="translate(436.607422 0)"/>
     <use xlink:href="#DejaVuSans-Bold-63" transform="translate(471.421875 0)"/>
     <use xlink:href="#DejaVuSans-Bold-61" transform="translate(530.699219 0)"/>
     <use xlink:href="#DejaVuSans-Bold-63" transform="translate(598.179688 0)"/>
     <use xlink:href="#DejaVuSans-Bold-68" transform="translate(657.457031 0)"/>
     <use xlink:href="#DejaVuSans-Bold-65" transform="translate(728.648438 0)"/>
     <use xlink:href="#DejaVuSans-Bold-64" transform="translate(796.470703 0)"/>
     <use xlink:href="#DejaVuSans-Bold-20" transform="translate(868.052734 0)"/>
     <use xlink:href="#DejaVuSans-Bold-6c" transform="translate(902.867188 0)"/>
     <use xlink:href="#DejaVuSans-Bold-6f" transform="translate(937.144531 0)"/>
     <use xlink:href="#DejaVuSans-Bold-61" transform="translate(1005.845703 0)"/>
     <use xlink:href="#DejaVuSans-Bold-64" transform="translate(1073.326172 0)"/>
     <use xlink:href="#DejaVuSans-Bold-20" transform="translate(1144.908203 0)"/>
     <use xlink:href="#DejaVuSans-Bold-2b" transform="translate(1179.722656 0)"/>
     <use xlink:href="#DejaVuSans-Bold-20" transform="translate(1263.511719 0)"/>
     <use xlink:href="#DejaVuSans-Bold-73" transform="translate(1298.326172 0)"/>
     <use xlink:href="#DejaVuSans-Bold-68" transform="translate(1357.847656 0)"/>
     <use xlink:href="#DejaVuSans-Bold-61" transform="translate(1429.039062 0)"/>
     <use xlink:href="#DejaVuSans-Bold-70" transform="translate(1496.519531 0)"/>
     <use xlink:href="#DejaVuSans-Bold-65" transform="translate(1568.101562 0)"/>
    </g>
   </g>
  </g>
  <g id="axes_2">
   <g id="patch_13">
    <path d="M 431.654687 339.156 
L 812.084687 339.156 
L 812.084687 77.196 
L 431.654687 77.196 
z
" style="fill: #ffffff"/>
   </g>
   <g id="matplotlib.axis_3">
    <g id="xtick_3">
     <g id="line2d_13">
      <g>
       <use xlink:href="#m81e177a08a" x="515.127263" y="339.156" style="fill: #334155; stroke: #334155; stroke-width: 0.8"/>
      </g>
     </g>
     <g id="text_12">
      <!-- Graphistry GPU -->
      <g style="fill: #334155" transform="translate(472.839998 354.514281) scale(0.11 -0.11)">
       <use xlink:href="#DejaVuSans-47"/>
       <use xlink:href="#DejaVuSans-72" transform="translate(77.490234 0)"/>
       <use xlink:href="#DejaVuSans-61" transform="translate(118.603516 0)"/>
       <use xlink:href="#DejaVuSans-70" transform="translate(179.882812 0)"/>
       <use xlink:href="#DejaVuSans-68" transform="translate(243.359375 0)"/>
       <use xlink:href="#DejaVuSans-69" transform="translate(306.738281 0)"/>
       <use xlink:href="#DejaVuSans-73" transform="translate(334.521484 0)"/>
       <use xlink:href="#DejaVuSans-74" transform="translate(386.621094 0)"/>
       <use xlink:href="#DejaVuSans-72" transform="translate(425.830078 0)"/>
       <use xlink:href="#DejaVuSans-79" transform="translate(466.943359 0)"/>
       <use xlink:href="#DejaVuSans-20" transform="translate(526.123047 0)"/>
       <use xlink:href="#DejaVuSans-47" transform="translate(557.910156 0)"/>
       <use xlink:href="#DejaVuSans-50" transform="translate(635.400391 0)"/>
       <use xlink:href="#DejaVuSans-55" transform="translate(695.703125 0)"/>
      </g>
     </g>
    </g>
    <g id="xtick_4">
     <g id="line2d_14">
      <g>
       <use xlink:href="#m81e177a08a" x="728.612112" y="339.156" style="fill: #334155; stroke: #334155; stroke-width: 0.8"/>
      </g>
     </g>
     <g id="text_13">
      <!-- Graphistry CPU -->
      <g style="fill: #334155" transform="translate(686.74594 354.514281) scale(0.11 -0.11)">
       <use xlink:href="#DejaVuSans-47"/>
       <use xlink:href="#DejaVuSans-72" transform="translate(77.490234 0)"/>
       <use xlink:href="#DejaVuSans-61" transform="translate(118.603516 0)"/>
       <use xlink:href="#DejaVuSans-70" transform="translate(179.882812 0)"/>
       <use xlink:href="#DejaVuSans-68" transform="translate(243.359375 0)"/>
       <use xlink:href="#DejaVuSans-69" transform="translate(306.738281 0)"/>
       <use xlink:href="#DejaVuSans-73" transform="translate(334.521484 0)"/>
       <use xlink:href="#DejaVuSans-74" transform="translate(386.621094 0)"/>
       <use xlink:href="#DejaVuSans-72" transform="translate(425.830078 0)"/>
       <use xlink:href="#DejaVuSans-79" transform="translate(466.943359 0)"/>
       <use xlink:href="#DejaVuSans-20" transform="translate(526.123047 0)"/>
       <use xlink:href="#DejaVuSans-43" transform="translate(557.910156 0)"/>
       <use xlink:href="#DejaVuSans-50" transform="translate(627.734375 0)"/>
       <use xlink:href="#DejaVuSans-55" transform="translate(688.037109 0)"/>
      </g>
     </g>
    </g>
   </g>
   <g id="matplotlib.axis_4">
    <g id="ytick_6">
     <g id="line2d_15">
      <path d="M 431.654687 339.156 
L 812.084687 339.156 
" clip-path="url(#pc453f5d714)" style="fill: none; stroke: #e2e8f0; stroke-opacity: 0.5; stroke-width: 0.8; stroke-linecap: square"/>
     </g>
     <g id="line2d_16">
      <g>
       <use xlink:href="#mac31af4e88" x="431.654687" y="339.156" style="fill: #334155; stroke: #334155; stroke-width: 0.8"/>
      </g>
     </g>
    </g>
    <g id="ytick_7">
     <g id="line2d_17">
      <path d="M 431.654687 281.930568 
L 812.084687 281.930568 
" clip-path="url(#pc453f5d714)" style="fill: none; stroke: #e2e8f0; stroke-opacity: 0.5; stroke-width: 0.8; stroke-linecap: square"/>
     </g>
     <g id="line2d_18">
      <g>
       <use xlink:href="#mac31af4e88" x="431.654687" y="281.930568" style="fill: #334155; stroke: #334155; stroke-width: 0.8"/>
      </g>
     </g>
    </g>
    <g id="ytick_8">
     <g id="line2d_19">
      <path d="M 431.654687 224.705137 
L 812.084687 224.705137 
" clip-path="url(#pc453f5d714)" style="fill: none; stroke: #e2e8f0; stroke-opacity: 0.5; stroke-width: 0.8; stroke-linecap: square"/>
     </g>
     <g id="line2d_20">
      <g>
       <use xlink:href="#mac31af4e88" x="431.654687" y="224.705137" style="fill: #334155; stroke: #334155; stroke-width: 0.8"/>
      </g>
     </g>
    </g>
    <g id="ytick_9">
     <g id="line2d_21">
      <path d="M 431.654687 167.479705 
L 812.084687 167.479705 
" clip-path="url(#pc453f5d714)" style="fill: none; stroke: #e2e8f0; stroke-opacity: 0.5; stroke-width: 0.8; stroke-linecap: square"/>
     </g>
     <g id="line2d_22">
      <g>
       <use xlink:href="#mac31af4e88" x="431.654687" y="167.479705" style="fill: #334155; stroke: #334155; stroke-width: 0.8"/>
      </g>
     </g>
    </g>
    <g id="ytick_10">
     <g id="line2d_23">
      <path d="M 431.654687 110.254273 
L 812.084687 110.254273 
" clip-path="url(#pc453f5d714)" style="fill: none; stroke: #e2e8f0; stroke-opacity: 0.5; stroke-width: 0.8; stroke-linecap: square"/>
     </g>
     <g id="line2d_24">
      <g>
       <use xlink:href="#mac31af4e88" x="431.654687" y="110.254273" style="fill: #334155; stroke: #334155; stroke-width: 0.8"/>
      </g>
     </g>
    </g>
   </g>
   <g id="patch_14">
    <path d="M 448.94696 339.156 
L 581.307566 339.156 
L 581.307566 252.18765 
L 448.94696 252.18765 
z
" clip-path="url(#pc453f5d714)" style="fill: #6c8fb3"/>
   </g>
   <g id="patch_15">
    <path d="M 662.431809 339.156 
L 794.792415 339.156 
L 794.792415 141.453579 
L 662.431809 141.453579 
z
" clip-path="url(#pc453f5d714)" style="fill: #6c8fb3"/>
   </g>
   <g id="patch_16">
    <path d="M 448.94696 252.18765 
L 581.307566 252.18765 
L 581.307566 227.543518 
L 448.94696 227.543518 
z
" clip-path="url(#pc453f5d714)" style="fill: #d17c2f"/>
   </g>
   <g id="patch_17">
    <path d="M 662.431809 141.453579 
L 794.792415 141.453579 
L 794.792415 89.673147 
L 662.431809 89.673147 
z
" clip-path="url(#pc453f5d714)" style="fill: #d17c2f"/>
   </g>
   <g id="patch_18">
    <path d="M 448.94696 227.543518 
L 581.307566 227.543518 
L 581.307566 227.540657 
L 448.94696 227.540657 
z
" clip-path="url(#pc453f5d714)" style="fill: #bfc7d5"/>
   </g>
   <g id="patch_19">
    <path d="M 662.431809 89.673147 
L 794.792415 89.673147 
L 794.792415 89.670286 
L 662.431809 89.670286 
z
" clip-path="url(#pc453f5d714)" style="fill: #bfc7d5"/>
   </g>
   <g id="patch_20">
    <path d="M 431.654687 339.156 
L 431.654687 77.196 
" style="fill: none; stroke: #d0d7de; stroke-width: 0.8; stroke-linejoin: miter; stroke-linecap: square"/>
   </g>
   <g id="patch_21">
    <path d="M 812.084687 339.156 
L 812.084687 77.196 
" style="fill: none; stroke: #d0d7de; stroke-width: 0.8; stroke-linejoin: miter; stroke-linecap: square"/>
   </g>
   <g id="patch_22">
    <path d="M 431.654687 339.156 
L 812.084687 339.156 
" style="fill: none; stroke: #d0d7de; stroke-width: 0.8; stroke-linejoin: miter; stroke-linecap: square"/>
   </g>
   <g id="patch_23">
    <path d="M 431.654687 77.196 
L 812.084687 77.196 
" style="fill: none; stroke: #d0d7de; stroke-width: 0.8; stroke-linejoin: miter; stroke-linecap: square"/>
   </g>
   <g id="text_14">
    <!-- 3.90s -->
    <g transform="translate(501.389763 217.976398) scale(0.1 -0.1)">
     <defs>
      <path id="DejaVuSans-33" d="M 2597 2516 
Q 3050 2419 3304 2112 
Q 3559 1806 3559 1356 
Q 3559 666 3084 287 
Q 2609 -91 1734 -91 
Q 1441 -91 1130 -33 
Q 819 25 488 141 
L 488 750 
Q 750 597 1062 519 
Q 1375 441 1716 441 
Q 2309 441 2620 675 
Q 2931 909 2931 1356 
Q 2931 1769 2642 2001 
Q 2353 2234 1838 2234 
L 1294 2234 
L 1294 2753 
L 1863 2753 
Q 2328 2753 2575 2939 
Q 2822 3125 2822 3475 
Q 2822 3834 2567 4026 
Q 2313 4219 1838 4219 
Q 1578 4219 1281 4162 
Q 984 4106 628 3988 
L 628 4550 
Q 988 4650 1302 4700 
Q 1616 4750 1894 4750 
Q 2613 4750 3031 4423 
Q 3450 4097 3450 3541 
Q 3450 3153 3228 2886 
Q 3006 2619 2597 2516 
z
" transform="scale(0.015625)"/>
      <path id="DejaVuSans-39" d="M 703 97 
L 703 672 
Q 941 559 1184 500 
Q 1428 441 1663 441 
Q 2288 441 2617 861 
Q 2947 1281 2994 2138 
Q 2813 1869 2534 1725 
Q 2256 1581 1919 1581 
Q 1219 1581 811 2004 
Q 403 2428 403 3163 
Q 403 3881 828 4315 
Q 1253 4750 1959 4750 
Q 2769 4750 3195 4129 
Q 3622 3509 3622 2328 
Q 3622 1225 3098 567 
Q 2575 -91 1691 -91 
Q 1453 -91 1209 -44 
Q 966 3 703 97 
z
M 1959 2075 
Q 2384 2075 2632 2365 
Q 2881 2656 2881 3163 
Q 2881 3666 2632 3958 
Q 2384 4250 1959 4250 
Q 1534 4250 1286 3958 
Q 1038 3666 1038 3163 
Q 1038 2656 1286 2365 
Q 1534 2075 1959 2075 
z
" transform="scale(0.015625)"/>
     </defs>
     <use xlink:href="#DejaVuSans-33"/>
     <use xlink:href="#DejaVuSans-2e" transform="translate(63.623047 0)"/>
     <use xlink:href="#DejaVuSans-39" transform="translate(95.410156 0)"/>
     <use xlink:href="#DejaVuSans-30" transform="translate(159.033203 0)"/>
     <use xlink:href="#DejaVuSans-73" transform="translate(222.65625 0)"/>
    </g>
   </g>
   <g id="text_15">
    <!-- 8.72s -->
    <g transform="translate(714.874612 80.106027) scale(0.1 -0.1)">
     <defs>
      <path id="DejaVuSans-37" d="M 525 4666 
L 3525 4666 
L 3525 4397 
L 1831 0 
L 1172 0 
L 2766 4134 
L 525 4134 
L 525 4666 
z
" transform="scale(0.015625)"/>
     </defs>
     <use xlink:href="#DejaVuSans-38"/>
     <use xlink:href="#DejaVuSans-2e" transform="translate(63.623047 0)"/>
     <use xlink:href="#DejaVuSans-37" transform="translate(95.410156 0)"/>
     <use xlink:href="#DejaVuSans-32" transform="translate(159.033203 0)"/>
     <use xlink:href="#DejaVuSans-73" transform="translate(222.65625 0)"/>
    </g>
   </g>
   <g id="text_16">
    <!-- GPlus: cached load + shape -->
    <g transform="translate(497.095937 71.196) scale(0.16 -0.16)">
     <defs>
      <path id="DejaVuSans-Bold-47" d="M 4781 347 
Q 4331 128 3847 18 
Q 3363 -91 2847 -91 
Q 1681 -91 1000 561 
Q 319 1213 319 2328 
Q 319 3456 1012 4103 
Q 1706 4750 2913 4750 
Q 3378 4750 3804 4662 
Q 4231 4575 4609 4403 
L 4609 3438 
Q 4219 3659 3833 3768 
Q 3447 3878 3059 3878 
Q 2341 3878 1952 3476 
Q 1563 3075 1563 2328 
Q 1563 1588 1938 1184 
Q 2313 781 3003 781 
Q 3191 781 3352 804 
Q 3513 828 3641 878 
L 3641 1784 
L 2906 1784 
L 2906 2591 
L 4781 2591 
L 4781 347 
z
" transform="scale(0.015625)"/>
      <path id="DejaVuSans-Bold-50" d="M 588 4666 
L 2584 4666 
Q 3475 4666 3951 4270 
Q 4428 3875 4428 3144 
Q 4428 2409 3951 2014 
Q 3475 1619 2584 1619 
L 1791 1619 
L 1791 0 
L 588 0 
L 588 4666 
z
M 1791 3794 
L 1791 2491 
L 2456 2491 
Q 2806 2491 2997 2661 
Q 3188 2831 3188 3144 
Q 3188 3456 2997 3625 
Q 2806 3794 2456 3794 
L 1791 3794 
z
" transform="scale(0.015625)"/>
      <path id="DejaVuSans-Bold-75" d="M 500 1363 
L 500 3500 
L 1625 3500 
L 1625 3150 
Q 1625 2866 1622 2436 
Q 1619 2006 1619 1863 
Q 1619 1441 1641 1255 
Q 1663 1069 1716 984 
Q 1784 875 1895 815 
Q 2006 756 2150 756 
Q 2500 756 2700 1025 
Q 2900 1294 2900 1772 
L 2900 3500 
L 4019 3500 
L 4019 0 
L 2900 0 
L 2900 506 
Q 2647 200 2364 54 
Q 2081 -91 1741 -91 
Q 1134 -91 817 281 
Q 500 653 500 1363 
z
" transform="scale(0.015625)"/>
     </defs>
     <use xlink:href="#DejaVuSans-Bold-47"/>
     <use xlink:href="#DejaVuSans-Bold-50" transform="translate(82.080078 0)"/>
     <use xlink:href="#DejaVuSans-Bold-6c" transform="translate(155.371094 0)"/>
     <use xlink:href="#DejaVuSans-Bold-75" transform="translate(189.648438 0)"/>
     <use xlink:href="#DejaVuSans-Bold-73" transform="translate(260.839844 0)"/>
     <use xlink:href="#DejaVuSans-Bold-3a" transform="translate(320.361328 0)"/>
     <use xlink:href="#DejaVuSans-Bold-20" transform="translate(360.351562 0)"/>
     <use xlink:href="#DejaVuSans-Bold-63" transform="translate(395.166016 0)"/>
     <use xlink:href="#DejaVuSans-Bold-61" transform="translate(454.443359 0)"/>
     <use xlink:href="#DejaVuSans-Bold-63" transform="translate(521.923828 0)"/>
     <use xlink:href="#DejaVuSans-Bold-68" transform="translate(581.201172 0)"/>
     <use xlink:href="#DejaVuSans-Bold-65" transform="translate(652.392578 0)"/>
     <use xlink:href="#DejaVuSans-Bold-64" transform="translate(720.214844 0)"/>
     <use xlink:href="#DejaVuSans-Bold-20" transform="translate(791.796875 0)"/>
     <use xlink:href="#DejaVuSans-Bold-6c" transform="translate(826.611328 0)"/>
     <use xlink:href="#DejaVuSans-Bold-6f" transform="translate(860.888672 0)"/>
     <use xlink:href="#DejaVuSans-Bold-61" transform="translate(929.589844 0)"/>
     <use xlink:href="#DejaVuSans-Bold-64" transform="translate(997.070312 0)"/>
     <use xlink:href="#DejaVuSans-Bold-20" transform="translate(1068.652344 0)"/>
     <use xlink:href="#DejaVuSans-Bold-2b" transform="translate(1103.466797 0)"/>
     <use xlink:href="#DejaVuSans-Bold-20" transform="translate(1187.255859 0)"/>
     <use xlink:href="#DejaVuSans-Bold-73" transform="translate(1222.070312 0)"/>
     <use xlink:href="#DejaVuSans-Bold-68" transform="translate(1281.591797 0)"/>
     <use xlink:href="#DejaVuSans-Bold-61" transform="translate(1352.783203 0)"/>
     <use xlink:href="#DejaVuSans-Bold-70" transform="translate(1420.263672 0)"/>
     <use xlink:href="#DejaVuSans-Bold-65" transform="translate(1491.845703 0)"/>
    </g>
   </g>
  </g>
  <g id="text_17">
   <!-- Dataframe-native ingest and shaping are part of the benchmark -->
   <g transform="translate(197.433344 39.377937) scale(0.132 -0.132)">
    <defs>
     <path id="DejaVuSans-44" d="M 1259 4147 
L 1259 519 
L 2022 519 
Q 2988 519 3436 956 
Q 3884 1394 3884 2338 
Q 3884 3275 3436 3711 
Q 2988 4147 2022 4147 
L 1259 4147 
z
M 628 4666 
L 1925 4666 
Q 3281 4666 3915 4102 
Q 4550 3538 4550 2338 
Q 4550 1131 3912 565 
Q 3275 0 1925 0 
L 628 0 
L 628 4666 
z
" transform="scale(0.015625)"/>
     <path id="DejaVuSans-66" d="M 2375 4863 
L 2375 4384 
L 1825 4384 
Q 1516 4384 1395 4259 
Q 1275 4134 1275 3809 
L 1275 3500 
L 2222 3500 
L 2222 3053 
L 1275 3053 
L 1275 0 
L 697 0 
L 697 3053 
L 147 3053 
L 147 3500 
L 697 3500 
L 697 3744 
Q 697 4328 969 4595 
Q 1241 4863 1831 4863 
L 2375 4863 
z
" transform="scale(0.015625)"/>
     <path id="DejaVuSans-6d" d="M 3328 2828 
Q 3544 3216 3844 3400 
Q 4144 3584 4550 3584 
Q 5097 3584 5394 3201 
Q 5691 2819 5691 2113 
L 5691 0 
L 5113 0 
L 5113 2094 
Q 5113 2597 4934 2840 
Q 4756 3084 4391 3084 
Q 3944 3084 3684 2787 
Q 3425 2491 3425 1978 
L 3425 0 
L 2847 0 
L 2847 2094 
Q 2847 2600 2669 2842 
Q 2491 3084 2119 3084 
Q 1678 3084 1418 2786 
Q 1159 2488 1159 1978 
L 1159 0 
L 581 0 
L 581 3500 
L 1159 3500 
L 1159 2956 
Q 1356 3278 1631 3431 
Q 1906 3584 2284 3584 
Q 2666 3584 2933 3390 
Q 3200 3197 3328 2828 
z
" transform="scale(0.015625)"/>
     <path id="DejaVuSans-2d" d="M 313 2009 
L 1997 2009 
L 1997 1497 
L 313 1497 
L 313 2009 
z
" transform="scale(0.015625)"/>
     <path id="DejaVuSans-76" d="M 191 3500 
L 800 3500 
L 1894 563 
L 2988 3500 
L 3597 3500 
L 2284 0 
L 1503 0 
L 191 3500 
z
" transform="scale(0.015625)"/>
     <path id="DejaVuSans-67" d="M 2906 1791 
Q 2906 2416 2648 2759 
Q 2391 3103 1925 3103 
Q 1463 3103 1205 2759 
Q 947 2416 947 1791 
Q 947 1169 1205 825 
Q 1463 481 1925 481 
Q 2391 481 2648 825 
Q 2906 1169 2906 1791 
z
M 3481 434 
Q 3481 -459 3084 -895 
Q 2688 -1331 1869 -1331 
Q 1566 -1331 1297 -1286 
Q 1028 -1241 775 -1147 
L 775 -588 
Q 1028 -725 1275 -790 
Q 1522 -856 1778 -856 
Q 2344 -856 2625 -561 
Q 2906 -266 2906 331 
L 2906 616 
Q 2728 306 2450 153 
Q 2172 0 1784 0 
Q 1141 0 747 490 
Q 353 981 353 1791 
Q 353 2603 747 3093 
Q 1141 3584 1784 3584 
Q 2172 3584 2450 3431 
Q 2728 3278 2906 2969 
L 2906 3500 
L 3481 3500 
L 3481 434 
z
" transform="scale(0.015625)"/>
     <path id="DejaVuSans-62" d="M 3116 1747 
Q 3116 2381 2855 2742 
Q 2594 3103 2138 3103 
Q 1681 3103 1420 2742 
Q 1159 2381 1159 1747 
Q 1159 1113 1420 752 
Q 1681 391 2138 391 
Q 2594 391 2855 752 
Q 3116 1113 3116 1747 
z
M 1159 2969 
Q 1341 3281 1617 3432 
Q 1894 3584 2278 3584 
Q 2916 3584 3314 3078 
Q 3713 2572 3713 1747 
Q 3713 922 3314 415 
Q 2916 -91 2278 -91 
Q 1894 -91 1617 61 
Q 1341 213 1159 525 
L 1159 0 
L 581 0 
L 581 4863 
L 1159 4863 
L 1159 2969 
z
" transform="scale(0.015625)"/>
     <path id="DejaVuSans-6b" d="M 581 4863 
L 1159 4863 
L 1159 1991 
L 2875 3500 
L 3609 3500 
L 1753 1863 
L 3688 0 
L 2938 0 
L 1159 1709 
L 1159 0 
L 581 0 
L 581 4863 
z
" transform="scale(0.015625)"/>
    </defs>
    <use xlink:href="#DejaVuSans-44"/>
    <use xlink:href="#DejaVuSans-61" transform="translate(77.001953 0)"/>
    <use xlink:href="#DejaVuSans-74" transform="translate(138.28125 0)"/>
    <use xlink:href="#DejaVuSans-61" transform="translate(177.490234 0)"/>
    <use xlink:href="#DejaVuSans-66" transform="translate(238.769531 0)"/>
    <use xlink:href="#DejaVuSans-72" transform="translate(273.974609 0)"/>
    <use xlink:href="#DejaVuSans-61" transform="translate(315.087891 0)"/>
    <use xlink:href="#DejaVuSans-6d" transform="translate(376.367188 0)"/>
    <use xlink:href="#DejaVuSans-65" transform="translate(473.779297 0)"/>
    <use xlink:href="#DejaVuSans-2d" transform="translate(535.302734 0)"/>
    <use xlink:href="#DejaVuSans-6e" transform="translate(571.386719 0)"/>
    <use xlink:href="#DejaVuSans-61" transform="translate(634.765625 0)"/>
    <use xlink:href="#DejaVuSans-74" transform="translate(696.044922 0)"/>
    <use xlink:href="#DejaVuSans-69" transform="translate(735.253906 0)"/>
    <use xlink:href="#DejaVuSans-76" transform="translate(763.037109 0)"/>
    <use xlink:href="#DejaVuSans-65" transform="translate(822.216797 0)"/>
    <use xlink:href="#DejaVuSans-20" transform="translate(883.740234 0)"/>
    <use xlink:href="#DejaVuSans-69" transform="translate(915.527344 0)"/>
    <use xlink:href="#DejaVuSans-6e" transform="translate(943.310547 0)"/>
    <use xlink:href="#DejaVuSans-67" transform="translate(1006.689453 0)"/>
    <use xlink:href="#DejaVuSans-65" transform="translate(1070.166016 0)"/>
    <use xlink:href="#DejaVuSans-73" transform="translate(1131.689453 0)"/>
    <use xlink:href="#DejaVuSans-74" transform="translate(1183.789062 0)"/>
    <use xlink:href="#DejaVuSans-20" transform="translate(1222.998047 0)"/>
    <use xlink:href="#DejaVuSans-61" transform="translate(1254.785156 0)"/>
    <use xlink:href="#DejaVuSans-6e" transform="translate(1316.064453 0)"/>
    <use xlink:href="#DejaVuSans-64" transform="translate(1379.443359 0)"/>
    <use xlink:href="#DejaVuSans-20" transform="translate(1442.919922 0)"/>
    <use xlink:href="#DejaVuSans-73" transform="translate(1474.707031 0)"/>
    <use xlink:href="#DejaVuSans-68" transform="translate(1526.806641 0)"/>
    <use xlink:href="#DejaVuSans-61" transform="translate(1590.185547 0)"/>
    <use xlink:href="#DejaVuSans-70" transform="translate(1651.464844 0)"/>
    <use xlink:href="#DejaVuSans-69" transform="translate(1714.941406 0)"/>
    <use xlink:href="#DejaVuSans-6e" transform="translate(1742.724609 0)"/>
    <use xlink:href="#DejaVuSans-67" transform="translate(1806.103516 0)"/>
    <use xlink:href="#DejaVuSans-20" transform="translate(1869.580078 0)"/>
    <use xlink:href="#DejaVuSans-61" transform="translate(1901.367188 0)"/>
    <use xlink:href="#DejaVuSans-72" transform="translate(1962.646484 0)"/>
    <use xlink:href="#DejaVuSans-65" transform="translate(2001.509766 0)"/>
    <use xlink:href="#DejaVuSans-20" transform="translate(2063.033203 0)"/>
    <use xlink:href="#DejaVuSans-70" transform="translate(2094.820312 0)"/>
    <use xlink:href="#DejaVuSans-61" transform="translate(2158.296875 0)"/>
    <use xlink:href="#DejaVuSans-72" transform="translate(2219.576172 0)"/>
    <use xlink:href="#DejaVuSans-74" transform="translate(2260.689453 0)"/>
    <use xlink:href="#DejaVuSans-20" transform="translate(2299.898438 0)"/>
    <use xlink:href="#DejaVuSans-6f" transform="translate(2331.685547 0)"/>
    <use xlink:href="#DejaVuSans-66" transform="translate(2392.867188 0)"/>
    <use xlink:href="#DejaVuSans-20" transform="translate(2428.072266 0)"/>
    <use xlink:href="#DejaVuSans-74" transform="translate(2459.859375 0)"/>
    <use xlink:href="#DejaVuSans-68" transform="translate(2499.068359 0)"/>
    <use xlink:href="#DejaVuSans-65" transform="translate(2562.447266 0)"/>
    <use xlink:href="#DejaVuSans-20" transform="translate(2623.970703 0)"/>
    <use xlink:href="#DejaVuSans-62" transform="translate(2655.757812 0)"/>
    <use xlink:href="#DejaVuSans-65" transform="translate(2719.234375 0)"/>
    <use xlink:href="#DejaVuSans-6e" transform="translate(2780.757812 0)"/>
    <use xlink:href="#DejaVuSans-63" transform="translate(2844.136719 0)"/>
    <use xlink:href="#DejaVuSans-68" transform="translate(2899.117188 0)"/>
    <use xlink:href="#DejaVuSans-6d" transform="translate(2962.496094 0)"/>
    <use xlink:href="#DejaVuSans-61" transform="translate(3059.908203 0)"/>
    <use xlink:href="#DejaVuSans-72" transform="translate(3121.1875 0)"/>
    <use xlink:href="#DejaVuSans-6b" transform="translate(3162.300781 0)"/>
   </g>
  </g>
  <g id="legend_1">
   <g id="patch_24">
    <path d="M 293.945625 19.958281 
L 315.945625 19.958281 
L 315.945625 12.258281 
L 293.945625 12.258281 
z
" style="fill: #6c8fb3"/>
   </g>
   <g id="text_18">
    <!-- Load -->
    <g transform="translate(324.745625 19.958281) scale(0.11 -0.11)">
     <defs>
      <path id="DejaVuSans-4c" d="M 628 4666 
L 1259 4666 
L 1259 531 
L 3531 531 
L 3531 0 
L 628 0 
L 628 4666 
z
" transform="scale(0.015625)"/>
     </defs>
     <use xlink:href="#DejaVuSans-4c"/>
     <use xlink:href="#DejaVuSans-6f" transform="translate(53.962891 0)"/>
     <use xlink:href="#DejaVuSans-61" transform="translate(115.144531 0)"/>
     <use xlink:href="#DejaVuSans-64" transform="translate(176.423828 0)"/>
    </g>
   </g>
   <g id="patch_25">
    <path d="M 373.137031 19.958281 
L 395.137031 19.958281 
L 395.137031 12.258281 
L 373.137031 12.258281 
z
" style="fill: #d17c2f"/>
   </g>
   <g id="text_19">
    <!-- Shaping -->
    <g transform="translate(403.937031 19.958281) scale(0.11 -0.11)">
     <defs>
      <path id="DejaVuSans-53" d="M 3425 4513 
L 3425 3897 
Q 3066 4069 2747 4153 
Q 2428 4238 2131 4238 
Q 1616 4238 1336 4038 
Q 1056 3838 1056 3469 
Q 1056 3159 1242 3001 
Q 1428 2844 1947 2747 
L 2328 2669 
Q 3034 2534 3370 2195 
Q 3706 1856 3706 1288 
Q 3706 609 3251 259 
Q 2797 -91 1919 -91 
Q 1588 -91 1214 -16 
Q 841 59 441 206 
L 441 856 
Q 825 641 1194 531 
Q 1563 422 1919 422 
Q 2459 422 2753 634 
Q 3047 847 3047 1241 
Q 3047 1584 2836 1778 
Q 2625 1972 2144 2069 
L 1759 2144 
Q 1053 2284 737 2584 
Q 422 2884 422 3419 
Q 422 4038 858 4394 
Q 1294 4750 2059 4750 
Q 2388 4750 2728 4690 
Q 3069 4631 3425 4513 
z
" transform="scale(0.015625)"/>
     </defs>
     <use xlink:href="#DejaVuSans-53"/>
     <use xlink:href="#DejaVuSans-68" transform="translate(63.476562 0)"/>
     <use xlink:href="#DejaVuSans-61" transform="translate(126.855469 0)"/>
     <use xlink:href="#DejaVuSans-70" transform="translate(188.134766 0)"/>
     <use xlink:href="#DejaVuSans-69" transform="translate(251.611328 0)"/>
     <use xlink:href="#DejaVuSans-6e" transform="translate(279.394531 0)"/>
     <use xlink:href="#DejaVuSans-67" transform="translate(342.773438 0)"/>
    </g>
   </g>
   <g id="patch_26">
    <path d="M 470.62625 19.958281 
L 492.62625 19.958281 
L 492.62625 12.258281 
L 470.62625 12.258281 
z
" style="fill: #bfc7d5"/>
   </g>
   <g id="text_20">
    <!-- Bind -->
    <g transform="translate(501.42625 19.958281) scale(0.11 -0.11)">
     <defs>
      <path id="DejaVuSans-42" d="M 1259 2228 
L 1259 519 
L 2272 519 
Q 2781 519 3026 730 
Q 3272 941 3272 1375 
Q 3272 1813 3026 2020 
Q 2781 2228 2272 2228 
L 1259 2228 
z
M 1259 4147 
L 1259 2741 
L 2194 2741 
Q 2656 2741 2882 2914 
Q 3109 3088 3109 3444 
Q 3109 3797 2882 3972 
Q 2656 4147 2194 4147 
L 1259 4147 
z
M 628 4666 
L 2241 4666 
Q 2963 4666 3353 4366 
Q 3744 4066 3744 3513 
Q 3744 3084 3544 2831 
Q 3344 2578 2956 2516 
Q 3422 2416 3680 2098 
Q 3938 1781 3938 1306 
Q 3938 681 3513 340 
Q 3088 0 2303 0 
L 628 0 
L 628 4666 
z
" transform="scale(0.015625)"/>
     </defs>
     <use xlink:href="#DejaVuSans-42"/>
     <use xlink:href="#DejaVuSans-69" transform="translate(68.603516 0)"/>
     <use xlink:href="#DejaVuSans-6e" transform="translate(96.386719 0)"/>
     <use xlink:href="#DejaVuSans-64" transform="translate(159.765625 0)"/>
    </g>
   </g>
  </g>
 </g>
 <defs>
  <clipPath id="p48f4e421b1">
   <rect x="35.844688" y="77.196" width="380.43" height="261.96"/>
  </clipPath>
  <clipPath id="pc453f5d714">
   <rect x="431.654687" y="77.196" width="380.43" height="261.96"/>
  </clipPath>
 </defs>
</svg>
