<?xml version="1.0" encoding="utf-8" standalone="no"?>
<!DOCTYPE svg PUBLIC "-//W3C//DTD SVG 1.1//EN"
  "http://www.w3.org/Graphics/SVG/1.1/DTD/svg11.dtd">
<svg xmlns:xlink="http://www.w3.org/1999/xlink" width="695.603437pt" height="387.893176pt" viewBox="0 0 695.603437 387.893176" xmlns="http://www.w3.org/2000/svg" version="1.1">
 <metadata>
  <rdf:RDF xmlns:dc="http://purl.org/dc/elements/1.1/" xmlns:cc="http://creativecommons.org/ns#" xmlns:rdf="http://www.w3.org/1999/02/22-rdf-syntax-ns#">
   <cc:Work>
    <dc:type rdf:resource="http://purl.org/dc/dcmitype/StillImage"/>
    <dc:date>2026-03-16T01:47:34.588061</dc:date>
    <dc:format>image/svg+xml</dc:format>
    <dc:creator>
     <cc:Agent>
      <dc:title>Matplotlib v3.10.8, https://matplotlib.org/</dc:title>
     </cc:Agent>
    </dc:creator>
   </cc:Work>
  </rdf:RDF>
 </metadata>
 <defs>
  <style type="text/css">*{stroke-linejoin: round; stroke-linecap: butt}</style>
 </defs>
 <g id="figure_1">
  <g id="patch_1">
   <path d="M 0 387.893176
L 695.603437 387.893176
L 695.603437 0
L 0 0
z
" style="fill: #ffffff"/>
  </g>
  <g id="axes_1">
   <g id="patch_2">
    <path d="M 49.423438 337.649645
L 678.323437 337.649645
L 678.323437 46.694605
L 49.423438 46.694605
z
" style="fill: #ffffff"/>
   </g>
   <g id="matplotlib.axis_1">
    <g id="xtick_1">
     <g id="line2d_1"/>
     <g id="text_1">
      <!-- Graphistry GPU -->
      <g style="fill: #334155" transform="translate(99.986454 356.007926) scale(0.11 -0.11)">
       <defs>
        <path id="DejaVuSans-47" d="M 3809 666
L 3809 1919
L 2778 1919
L 2778 2438
L 4434 2438
L 4434 434
Q 4069 175 3628 42
Q 3188 -91 2688 -91
Q 1594 -91 976 548
Q 359 1188 359 2328
Q 359 3472 976 4111
Q 1594 4750 2688 4750
Q 3144 4750 3555 4637
Q 3966 4525 4313 4306
L 4313 3634
Q 3963 3931 3569 4081
Q 3175 4231 2741 4231
Q 1884 4231 1454 3753
Q 1025 3275 1025 2328
Q 1025 1384 1454 906
Q 1884 428 2741 428
Q 3075 428 3337 486
Q 3600 544 3809 666
z
" transform="scale(0.015625)"/>
        <path id="DejaVuSans-72" d="M 2631 2963
Q 2534 3019 2420 3045
Q 2306 3072 2169 3072
Q 1681 3072 1420 2755
Q 1159 2438 1159 1844
L 1159 0
L 581 0
L 581 3500
L 1159 3500
L 1159 2956
Q 1341 3275 1631 3429
Q 1922 3584 2338 3584
Q 2397 3584 2469 3576
Q 2541 3569 2628 3553
L 2631 2963
z
" transform="scale(0.015625)"/>
        <path id="DejaVuSans-61" d="M 2194 1759
Q 1497 1759 1228 1600
Q 959 1441 959 1056
Q 959 750 1161 570
Q 1363 391 1709 391
Q 2188 391 2477 730
Q 2766 1069 2766 1631
L 2766 1759
L 2194 1759
z
M 3341 1997
L 3341 0
L 2766 0
L 2766 531
Q 2569 213 2275 61
Q 1981 -91 1556 -91
Q 1019 -91 701 211
Q 384 513 384 1019
Q 384 1609 779 1909
Q 1175 2209 1959 2209
L 2766 2209
L 2766 2266
Q 2766 2663 2505 2880
Q 2244 3097 1772 3097
Q 1472 3097 1187 3025
Q 903 2953 641 2809
L 641 3341
Q 956 3463 1253 3523
Q 1550 3584 1831 3584
Q 2591 3584 2966 3190
Q 3341 2797 3341 1997
z
" transform="scale(0.015625)"/>
        <path id="DejaVuSans-70" d="M 1159 525
L 1159 -1331
L 581 -1331
L 581 3500
L 1159 3500
L 1159 2969
Q 1341 3281 1617 3432
Q 1894 3584 2278 3584
Q 2916 3584 3314 3078
Q 3713 2572 3713 1747
Q 3713 922 3314 415
Q 2916 -91 2278 -91
Q 1894 -91 1617 61
Q 1341 213 1159 525
z
M 3116 1747
Q 3116 2381 2855 2742
Q 2594 3103 2138 3103
Q 1681 3103 1420 2742
Q 1159 2381 1159 1747
Q 1159 1113 1420 752
Q 1681 391 2138 391
Q 2594 391 2855 752
Q 3116 1113 3116 1747
z
" transform="scale(0.015625)"/>
        <path id="DejaVuSans-68" d="M 3513 2113
L 3513 0
L 2938 0
L 2938 2094
Q 2938 2591 2744 2837
Q 2550 3084 2163 3084
Q 1697 3084 1428 2787
Q 1159 2491 1159 1978
L 1159 0
L 581 0
L 581 4863
L 1159 4863
L 1159 2956
Q 1366 3272 1645 3428
Q 1925 3584 2291 3584
Q 2894 3584 3203 3211
Q 3513 2838 3513 2113
z
" transform="scale(0.015625)"/>
        <path id="DejaVuSans-69" d="M 603 3500
L 1178 3500
L 1178 0
L 603 0
L 603 3500
z
M 603 4863
L 1178 4863
L 1178 4134
L 603 4134
L 603 4863
z
" transform="scale(0.015625)"/>
        <path id="DejaVuSans-73" d="M 2834 3397
L 2834 2853
Q 2591 2978 2328 3040
Q 2066 3103 1784 3103
Q 1356 3103 1142 2972
Q 928 2841 928 2578
Q 928 2378 1081 2264
Q 1234 2150 1697 2047
L 1894 2003
Q 2506 1872 2764 1633
Q 3022 1394 3022 966
Q 3022 478 2636 193
Q 2250 -91 1575 -91
Q 1294 -91 989 -36
Q 684 19 347 128
L 347 722
Q 666 556 975 473
Q 1284 391 1588 391
Q 1994 391 2212 530
Q 2431 669 2431 922
Q 2431 1156 2273 1281
Q 2116 1406 1581 1522
L 1381 1569
Q 847 1681 609 1914
Q 372 2147 372 2553
Q 372 3047 722 3315
Q 1072 3584 1716 3584
Q 2034 3584 2315 3537
Q 2597 3491 2834 3397
z
" transform="scale(0.015625)"/>
        <path id="DejaVuSans-74" d="M 1172 4494
L 1172 3500
L 2356 3500
L 2356 3053
L 1172 3053
L 1172 1153
Q 1172 725 1289 603
Q 1406 481 1766 481
L 2356 481
L 2356 0
L 1766 0
Q 1100 0 847 248
Q 594 497 594 1153
L 594 3053
L 172 3053
L 172 3500
L 594 3500
L 594 4494
L 1172 4494
z
" transform="scale(0.015625)"/>
        <path id="DejaVuSans-79" d="M 2059 -325
Q 1816 -950 1584 -1140
Q 1353 -1331 966 -1331
L 506 -1331
L 506 -850
L 844 -850
Q 1081 -850 1212 -737
Q 1344 -625 1503 -206
L 1606 56
L 191 3500
L 800 3500
L 1894 763
L 2988 3500
L 3597 3500
L 2059 -325
z
" transform="scale(0.015625)"/>
        <path id="DejaVuSans-20" transform="scale(0.015625)"/>
        <path id="DejaVuSans-50" d="M 1259 4147
L 1259 2394
L 2053 2394
Q 2494 2394 2734 2622
Q 2975 2850 2975 3272
Q 2975 3691 2734 3919
Q 2494 4147 2053 4147
L 1259 4147
z
M 628 4666
L 2053 4666
Q 2838 4666 3239 4311
Q 3641 3956 3641 3272
Q 3641 2581 3239 2228
Q 2838 1875 2053 1875
L 1259 1875
L 1259 0
L 628 0
L 628 4666
z
" transform="scale(0.015625)"/>
        <path id="DejaVuSans-55" d="M 556 4666
L 1191 4666
L 1191 1831
Q 1191 1081 1462 751
Q 1734 422 2344 422
Q 2950 422 3222 751
Q 3494 1081 3494 1831
L 3494 4666
L 4128 4666
L 4128 1753
Q 4128 841 3676 375
Q 3225 -91 2344 -91
Q 1459 -91 1007 375
Q 556 841 556 1753
L 556 4666
z
" transform="scale(0.015625)"/>
       </defs>
       <use xlink:href="#DejaVuSans-47"/>
       <use xlink:href="#DejaVuSans-72" transform="translate(77.490234 0)"/>
       <use xlink:href="#DejaVuSans-61" transform="translate(118.603516 0)"/>
       <use xlink:href="#DejaVuSans-70" transform="translate(179.882812 0)"/>
       <use xlink:href="#DejaVuSans-68" transform="translate(243.359375 0)"/>
       <use xlink:href="#DejaVuSans-69" transform="translate(306.738281 0)"/>
       <use xlink:href="#DejaVuSans-73" transform="translate(334.521484 0)"/>
       <use xlink:href="#DejaVuSans-74" transform="translate(386.621094 0)"/>
       <use xlink:href="#DejaVuSans-72" transform="translate(425.830078 0)"/>
       <use xlink:href="#DejaVuSans-79" transform="translate(466.943359 0)"/>
       <use xlink:href="#DejaVuSans-20" transform="translate(526.123047 0)"/>
       <use xlink:href="#DejaVuSans-47" transform="translate(557.910156 0)"/>
       <use xlink:href="#DejaVuSans-50" transform="translate(635.400391 0)"/>
       <use xlink:href="#DejaVuSans-55" transform="translate(695.703125 0)"/>
      </g>
      <!-- (cudf + cugraph) -->
      <g style="fill: #334155" transform="translate(95.329501 368.32552) scale(0.11 -0.11)">
       <defs>
        <path id="DejaVuSans-28" d="M 1984 4856
Q 1566 4138 1362 3434
Q 1159 2731 1159 2009
Q 1159 1288 1364 580
Q 1569 -128 1984 -844
L 1484 -844
Q 1016 -109 783 600
Q 550 1309 550 2009
Q 550 2706 781 3412
Q 1013 4119 1484 4856
L 1984 4856
z
" transform="scale(0.015625)"/>
        <path id="DejaVuSans-63" d="M 3122 3366
L 3122 2828
Q 2878 2963 2633 3030
Q 2388 3097 2138 3097
Q 1578 3097 1268 2742
Q 959 2388 959 1747
Q 959 1106 1268 751
Q 1578 397 2138 397
Q 2388 397 2633 464
Q 2878 531 3122 666
L 3122 134
Q 2881 22 2623 -34
Q 2366 -91 2075 -91
Q 1284 -91 818 406
Q 353 903 353 1747
Q 353 2603 823 3093
Q 1294 3584 2113 3584
Q 2378 3584 2631 3529
Q 2884 3475 3122 3366
z
" transform="scale(0.015625)"/>
        <path id="DejaVuSans-75" d="M 544 1381
L 544 3500
L 1119 3500
L 1119 1403
Q 1119 906 1312 657
Q 1506 409 1894 409
Q 2359 409 2629 706
Q 2900 1003 2900 1516
L 2900 3500
L 3475 3500
L 3475 0
L 2900 0
L 2900 538
Q 2691 219 2414 64
Q 2138 -91 1772 -91
Q 1169 -91 856 284
Q 544 659 544 1381
z
M 1991 3584
L 1991 3584
z
" transform="scale(0.015625)"/>
        <path id="DejaVuSans-64" d="M 2906 2969
L 2906 4863
L 3481 4863
L 3481 0
L 2906 0
L 2906 525
Q 2725 213 2448 61
Q 2172 -91 1784 -91
Q 1150 -91 751 415
Q 353 922 353 1747
Q 353 2572 751 3078
Q 1150 3584 1784 3584
Q 2172 3584 2448 3432
Q 2725 3281 2906 2969
z
M 947 1747
Q 947 1113 1208 752
Q 1469 391 1925 391
Q 2381 391 2643 752
Q 2906 1113 2906 1747
Q 2906 2381 2643 2742
Q 2381 3103 1925 3103
Q 1469 3103 1208 2742
Q 947 2381 947 1747
z
" transform="scale(0.015625)"/>
        <path id="DejaVuSans-66" d="M 2375 4863
L 2375 4384
L 1825 4384
Q 1516 4384 1395 4259
Q 1275 4134 1275 3809
L 1275 3500
L 2222 3500
L 2222 3053
L 1275 3053
L 1275 0
L 697 0
L 697 3053
L 147 3053
L 147 3500
L 697 3500
L 697 3744
Q 697 4328 969 4595
Q 1241 4863 1831 4863
L 2375 4863
z
" transform="scale(0.015625)"/>
        <path id="DejaVuSans-2b" d="M 2944 4013
L 2944 2272
L 4684 2272
L 4684 1741
L 2944 1741
L 2944 0
L 2419 0
L 2419 1741
L 678 1741
L 678 2272
L 2419 2272
L 2419 4013
L 2944 4013
z
" transform="scale(0.015625)"/>
        <path id="DejaVuSans-67" d="M 2906 1791
Q 2906 2416 2648 2759
Q 2391 3103 1925 3103
Q 1463 3103 1205 2759
Q 947 2416 947 1791
Q 947 1169 1205 825
Q 1463 481 1925 481
Q 2391 481 2648 825
Q 2906 1169 2906 1791
z
M 3481 434
Q 3481 -459 3084 -895
Q 2688 -1331 1869 -1331
Q 1566 -1331 1297 -1286
Q 1028 -1241 775 -1147
L 775 -588
Q 1028 -725 1275 -790
Q 1522 -856 1778 -856
Q 2344 -856 2625 -561
Q 2906 -266 2906 331
L 2906 616
Q 2728 306 2450 153
Q 2172 0 1784 0
Q 1141 0 747 490
Q 353 981 353 1791
Q 353 2603 747 3093
Q 1141 3584 1784 3584
Q 2172 3584 2450 3431
Q 2728 3278 2906 2969
L 2906 3500
L 3481 3500
L 3481 434
z
" transform="scale(0.015625)"/>
        <path id="DejaVuSans-29" d="M 513 4856
L 1013 4856
Q 1481 4119 1714 3412
Q 1947 2706 1947 2009
Q 1947 1309 1714 600
Q 1481 -109 1013 -844
L 513 -844
Q 928 -128 1133 580
Q 1338 1288 1338 2009
Q 1338 2731 1133 3434
Q 928 4138 513 4856
z
" transform="scale(0.015625)"/>
       </defs>
       <use xlink:href="#DejaVuSans-28"/>
       <use xlink:href="#DejaVuSans-63" transform="translate(39.013672 0)"/>
       <use xlink:href="#DejaVuSans-75" transform="translate(93.994141 0)"/>
       <use xlink:href="#DejaVuSans-64" transform="translate(157.373047 0)"/>
       <use xlink:href="#DejaVuSans-66" transform="translate(220.849609 0)"/>
       <use xlink:href="#DejaVuSans-20" transform="translate(256.054688 0)"/>
       <use xlink:href="#DejaVuSans-2b" transform="translate(287.841797 0)"/>
       <use xlink:href="#DejaVuSans-20" transform="translate(371.630859 0)"/>
       <use xlink:href="#DejaVuSans-63" transform="translate(403.417969 0)"/>
       <use xlink:href="#DejaVuSans-75" transform="translate(458.398438 0)"/>
       <use xlink:href="#DejaVuSans-67" transform="translate(521.777344 0)"/>
       <use xlink:href="#DejaVuSans-72" transform="translate(585.253906 0)"/>
       <use xlink:href="#DejaVuSans-61" transform="translate(626.367188 0)"/>
       <use xlink:href="#DejaVuSans-70" transform="translate(687.646484 0)"/>
       <use xlink:href="#DejaVuSans-68" transform="translate(751.123047 0)"/>
       <use xlink:href="#DejaVuSans-29" transform="translate(814.501953 0)"/>
      </g>
     </g>
    </g>
    <g id="xtick_2">
     <g id="line2d_2"/>
     <g id="text_2">
      <!-- Graphistry CPU -->
      <g style="fill: #334155" transform="translate(322.007266 356.007926) scale(0.11 -0.11)">
       <defs>
        <path id="DejaVuSans-43" d="M 4122 4306
L 4122 3641
Q 3803 3938 3442 4084
Q 3081 4231 2675 4231
Q 1875 4231 1450 3742
Q 1025 3253 1025 2328
Q 1025 1406 1450 917
Q 1875 428 2675 428
Q 3081 428 3442 575
Q 3803 722 4122 1019
L 4122 359
Q 3791 134 3420 21
Q 3050 -91 2638 -91
Q 1578 -91 968 557
Q 359 1206 359 2328
Q 359 3453 968 4101
Q 1578 4750 2638 4750
Q 3056 4750 3426 4639
Q 3797 4528 4122 4306
z
" transform="scale(0.015625)"/>
       </defs>
       <use xlink:href="#DejaVuSans-47"/>
       <use xlink:href="#DejaVuSans-72" transform="translate(77.490234 0)"/>
       <use xlink:href="#DejaVuSans-61" transform="translate(118.603516 0)"/>
       <use xlink:href="#DejaVuSans-70" transform="translate(179.882812 0)"/>
       <use xlink:href="#DejaVuSans-68" transform="translate(243.359375 0)"/>
       <use xlink:href="#DejaVuSans-69" transform="translate(306.738281 0)"/>
       <use xlink:href="#DejaVuSans-73" transform="translate(334.521484 0)"/>
       <use xlink:href="#DejaVuSans-74" transform="translate(386.621094 0)"/>
       <use xlink:href="#DejaVuSans-72" transform="translate(425.830078 0)"/>
       <use xlink:href="#DejaVuSans-79" transform="translate(466.943359 0)"/>
       <use xlink:href="#DejaVuSans-20" transform="translate(526.123047 0)"/>
       <use xlink:href="#DejaVuSans-43" transform="translate(557.910156 0)"/>
       <use xlink:href="#DejaVuSans-50" transform="translate(627.734375 0)"/>
       <use xlink:href="#DejaVuSans-55" transform="translate(688.037109 0)"/>
      </g>
      <!-- (pandas + igraph) -->
      <g style="fill: #334155" transform="translate(313.773594 368.32552) scale(0.11 -0.11)">
       <defs>
        <path id="DejaVuSans-6e" d="M 3513 2113
L 3513 0
L 2938 0
L 2938 2094
Q 2938 2591 2744 2837
Q 2550 3084 2163 3084
Q 1697 3084 1428 2787
Q 1159 2491 1159 1978
L 1159 0
L 581 0
L 581 3500
L 1159 3500
L 1159 2956
Q 1366 3272 1645 3428
Q 1925 3584 2291 3584
Q 2894 3584 3203 3211
Q 3513 2838 3513 2113
z
" transform="scale(0.015625)"/>
       </defs>
       <use xlink:href="#DejaVuSans-28"/>
       <use xlink:href="#DejaVuSans-70" transform="translate(39.013672 0)"/>
       <use xlink:href="#DejaVuSans-61" transform="translate(102.490234 0)"/>
       <use xlink:href="#DejaVuSans-6e" transform="translate(163.769531 0)"/>
       <use xlink:href="#DejaVuSans-64" transform="translate(227.148438 0)"/>
       <use xlink:href="#DejaVuSans-61" transform="translate(290.625 0)"/>
       <use xlink:href="#DejaVuSans-73" transform="translate(351.904297 0)"/>
       <use xlink:href="#DejaVuSans-20" transform="translate(404.003906 0)"/>
       <use xlink:href="#DejaVuSans-2b" transform="translate(435.791016 0)"/>
       <use xlink:href="#DejaVuSans-20" transform="translate(519.580078 0)"/>
       <use xlink:href="#DejaVuSans-69" transform="translate(551.367188 0)"/>
       <use xlink:href="#DejaVuSans-67" transform="translate(579.150391 0)"/>
       <use xlink:href="#DejaVuSans-72" transform="translate(642.626953 0)"/>
       <use xlink:href="#DejaVuSans-61" transform="translate(683.740234 0)"/>
       <use xlink:href="#DejaVuSans-70" transform="translate(745.019531 0)"/>
       <use xlink:href="#DejaVuSans-68" transform="translate(808.496094 0)"/>
       <use xlink:href="#DejaVuSans-29" transform="translate(871.875 0)"/>
      </g>
     </g>
    </g>
    <g id="xtick_3">
     <g id="line2d_3"/>
     <g id="text_3">
      <!-- Neo4j + GDS -->
      <g style="fill: #334155" transform="translate(549.488546 356.007926) scale(0.11 -0.11)">
       <defs>
        <path id="DejaVuSans-4e" d="M 628 4666
L 1478 4666
L 3547 763
L 3547 4666
L 4159 4666
L 4159 0
L 3309 0
L 1241 3903
L 1241 0
L 628 0
L 628 4666
z
" transform="scale(0.015625)"/>
        <path id="DejaVuSans-65" d="M 3597 1894
L 3597 1613
L 953 1613
Q 991 1019 1311 708
Q 1631 397 2203 397
Q 2534 397 2845 478
Q 3156 559 3463 722
L 3463 178
Q 3153 47 2828 -22
Q 2503 -91 2169 -91
Q 1331 -91 842 396
Q 353 884 353 1716
Q 353 2575 817 3079
Q 1281 3584 2069 3584
Q 2775 3584 3186 3129
Q 3597 2675 3597 1894
z
M 3022 2063
Q 3016 2534 2758 2815
Q 2500 3097 2075 3097
Q 1594 3097 1305 2825
Q 1016 2553 972 2059
L 3022 2063
z
" transform="scale(0.015625)"/>
        <path id="DejaVuSans-6f" d="M 1959 3097
Q 1497 3097 1228 2736
Q 959 2375 959 1747
Q 959 1119 1226 758
Q 1494 397 1959 397
Q 2419 397 2687 759
Q 2956 1122 2956 1747
Q 2956 2369 2687 2733
Q 2419 3097 1959 3097
z
M 1959 3584
Q 2709 3584 3137 3096
Q 3566 2609 3566 1747
Q 3566 888 3137 398
Q 2709 -91 1959 -91
Q 1206 -91 779 398
Q 353 888 353 1747
Q 353 2609 779 3096
Q 1206 3584 1959 3584
z
" transform="scale(0.015625)"/>
        <path id="DejaVuSans-34" d="M 2419 4116
L 825 1625
L 2419 1625
L 2419 4116
z
M 2253 4666
L 3047 4666
L 3047 1625
L 3713 1625
L 3713 1100
L 3047 1100
L 3047 0
L 2419 0
L 2419 1100
L 313 1100
L 313 1709
L 2253 4666
z
" transform="scale(0.015625)"/>
        <path id="DejaVuSans-6a" d="M 603 3500
L 1178 3500
L 1178 -63
Q 1178 -731 923 -1031
Q 669 -1331 103 -1331
L -116 -1331
L -116 -844
L 38 -844
Q 366 -844 484 -692
Q 603 -541 603 -63
L 603 3500
z
M 603 4863
L 1178 4863
L 1178 4134
L 603 4134
L 603 4863
z
" transform="scale(0.015625)"/>
        <path id="DejaVuSans-44" d="M 1259 4147
L 1259 519
L 2022 519
Q 2988 519 3436 956
Q 3884 1394 3884 2338
Q 3884 3275 3436 3711
Q 2988 4147 2022 4147
L 1259 4147
z
M 628 4666
L 1925 4666
Q 3281 4666 3915 4102
Q 4550 3538 4550 2338
Q 4550 1131 3912 565
Q 3275 0 1925 0
L 628 0
L 628 4666
z
" transform="scale(0.015625)"/>
        <path id="DejaVuSans-53" d="M 3425 4513
L 3425 3897
Q 3066 4069 2747 4153
Q 2428 4238 2131 4238
Q 1616 4238 1336 4038
Q 1056 3838 1056 3469
Q 1056 3159 1242 3001
Q 1428 2844 1947 2747
L 2328 2669
Q 3034 2534 3370 2195
Q 3706 1856 3706 1288
Q 3706 609 3251 259
Q 2797 -91 1919 -91
Q 1588 -91 1214 -16
Q 841 59 441 206
L 441 856
Q 825 641 1194 531
Q 1563 422 1919 422
Q 2459 422 2753 634
Q 3047 847 3047 1241
Q 3047 1584 2836 1778
Q 2625 1972 2144 2069
L 1759 2144
Q 1053 2284 737 2584
Q 422 2884 422 3419
Q 422 4038 858 4394
Q 1294 4750 2059 4750
Q 2388 4750 2728 4690
Q 3069 4631 3425 4513
z
" transform="scale(0.015625)"/>
       </defs>
       <use xlink:href="#DejaVuSans-4e"/>
       <use xlink:href="#DejaVuSans-65" transform="translate(74.804688 0)"/>
       <use xlink:href="#DejaVuSans-6f" transform="translate(136.328125 0)"/>
       <use xlink:href="#DejaVuSans-34" transform="translate(197.509766 0)"/>
       <use xlink:href="#DejaVuSans-6a" transform="translate(261.132812 0)"/>
       <use xlink:href="#DejaVuSans-20" transform="translate(288.916016 0)"/>
       <use xlink:href="#DejaVuSans-2b" transform="translate(320.703125 0)"/>
       <use xlink:href="#DejaVuSans-20" transform="translate(404.492188 0)"/>
       <use xlink:href="#DejaVuSans-47" transform="translate(436.279297 0)"/>
       <use xlink:href="#DejaVuSans-44" transform="translate(513.769531 0)"/>
       <use xlink:href="#DejaVuSans-53" transform="translate(590.771484 0)"/>
      </g>
     </g>
    </g>
   </g>
   <g id="matplotlib.axis_2">
    <g id="ytick_1">
     <g id="line2d_4">
      <path d="M 49.423438 337.649645
L 678.323437 337.649645
" clip-path="url(#pe740548dbb)" style="fill: none; stroke: #e2e8f0; stroke-opacity: 0.55; stroke-width: 0.9; stroke-linecap: square"/>
     </g>
     <g id="line2d_5"/>
     <g id="text_4">
      <!-- 0 -->
      <g style="fill: #334155" transform="translate(38.924688 341.828785) scale(0.11 -0.11)">
       <defs>
        <path id="DejaVuSans-30" d="M 2034 4250
Q 1547 4250 1301 3770
Q 1056 3291 1056 2328
Q 1056 1369 1301 889
Q 1547 409 2034 409
Q 2525 409 2770 889
Q 3016 1369 3016 2328
Q 3016 3291 2770 3770
Q 2525 4250 2034 4250
z
M 2034 4750
Q 2819 4750 3233 4129
Q 3647 3509 3647 2328
Q 3647 1150 3233 529
Q 2819 -91 2034 -91
Q 1250 -91 836 529
Q 422 1150 422 2328
Q 422 3509 836 4129
Q 1250 4750 2034 4750
z
" transform="scale(0.015625)"/>
       </defs>
       <use xlink:href="#DejaVuSans-30"/>
      </g>
     </g>
    </g>
    <g id="ytick_2">
     <g id="line2d_6">
      <path d="M 49.423438 298.684191
L 678.323437 298.684191
" clip-path="url(#pe740548dbb)" style="fill: none; stroke: #e2e8f0; stroke-opacity: 0.55; stroke-width: 0.9; stroke-linecap: square"/>
     </g>
     <g id="line2d_7"/>
     <g id="text_5">
      <!-- 2 -->
      <g style="fill: #334155" transform="translate(38.924688 302.863332) scale(0.11 -0.11)">
       <defs>
        <path id="DejaVuSans-32" d="M 1228 531
L 3431 531
L 3431 0
L 469 0
L 469 531
Q 828 903 1448 1529
Q 2069 2156 2228 2338
Q 2531 2678 2651 2914
Q 2772 3150 2772 3378
Q 2772 3750 2511 3984
Q 2250 4219 1831 4219
Q 1534 4219 1204 4116
Q 875 4013 500 3803
L 500 4441
Q 881 4594 1212 4672
Q 1544 4750 1819 4750
Q 2544 4750 2975 4387
Q 3406 4025 3406 3419
Q 3406 3131 3298 2873
Q 3191 2616 2906 2266
Q 2828 2175 2409 1742
Q 1991 1309 1228 531
z
" transform="scale(0.015625)"/>
       </defs>
       <use xlink:href="#DejaVuSans-32"/>
      </g>
     </g>
    </g>
    <g id="ytick_3">
     <g id="line2d_8">
      <path d="M 49.423438 259.718738
L 678.323437 259.718738
" clip-path="url(#pe740548dbb)" style="fill: none; stroke: #e2e8f0; stroke-opacity: 0.55; stroke-width: 0.9; stroke-linecap: square"/>
     </g>
     <g id="line2d_9"/>
     <g id="text_6">
      <!-- 4 -->
      <g style="fill: #334155" transform="translate(38.924688 263.897879) scale(0.11 -0.11)">
       <use xlink:href="#DejaVuSans-34"/>
      </g>
     </g>
    </g>
    <g id="ytick_4">
     <g id="line2d_10">
      <path d="M 49.423438 220.753285
L 678.323437 220.753285
" clip-path="url(#pe740548dbb)" style="fill: none; stroke: #e2e8f0; stroke-opacity: 0.55; stroke-width: 0.9; stroke-linecap: square"/>
     </g>
     <g id="line2d_11"/>
     <g id="text_7">
      <!-- 6 -->
      <g style="fill: #334155" transform="translate(38.924688 224.932425) scale(0.11 -0.11)">
       <defs>
        <path id="DejaVuSans-36" d="M 2113 2584
Q 1688 2584 1439 2293
Q 1191 2003 1191 1497
Q 1191 994 1439 701
Q 1688 409 2113 409
Q 2538 409 2786 701
Q 3034 994 3034 1497
Q 3034 2003 2786 2293
Q 2538 2584 2113 2584
z
M 3366 4563
L 3366 3988
Q 3128 4100 2886 4159
Q 2644 4219 2406 4219
Q 1781 4219 1451 3797
Q 1122 3375 1075 2522
Q 1259 2794 1537 2939
Q 1816 3084 2150 3084
Q 2853 3084 3261 2657
Q 3669 2231 3669 1497
Q 3669 778 3244 343
Q 2819 -91 2113 -91
Q 1303 -91 875 529
Q 447 1150 447 2328
Q 447 3434 972 4092
Q 1497 4750 2381 4750
Q 2619 4750 2861 4703
Q 3103 4656 3366 4563
z
" transform="scale(0.015625)"/>
       </defs>
       <use xlink:href="#DejaVuSans-36"/>
      </g>
     </g>
    </g>
    <g id="ytick_5">
     <g id="line2d_12">
      <path d="M 49.423438 181.787831
L 678.323437 181.787831
" clip-path="url(#pe740548dbb)" style="fill: none; stroke: #e2e8f0; stroke-opacity: 0.55; stroke-width: 0.9; stroke-linecap: square"/>
     </g>
     <g id="line2d_13"/>
     <g id="text_8">
      <!-- 8 -->
      <g style="fill: #334155" transform="translate(38.924688 185.966972) scale(0.11 -0.11)">
       <defs>
        <path id="DejaVuSans-38" d="M 2034 2216
Q 1584 2216 1326 1975
Q 1069 1734 1069 1313
Q 1069 891 1326 650
Q 1584 409 2034 409
Q 2484 409 2743 651
Q 3003 894 3003 1313
Q 3003 1734 2745 1975
Q 2488 2216 2034 2216
z
M 1403 2484
Q 997 2584 770 2862
Q 544 3141 544 3541
Q 544 4100 942 4425
Q 1341 4750 2034 4750
Q 2731 4750 3128 4425
Q 3525 4100 3525 3541
Q 3525 3141 3298 2862
Q 3072 2584 2669 2484
Q 3125 2378 3379 2068
Q 3634 1759 3634 1313
Q 3634 634 3220 271
Q 2806 -91 2034 -91
Q 1263 -91 848 271
Q 434 634 434 1313
Q 434 1759 690 2068
Q 947 2378 1403 2484
z
M 1172 3481
Q 1172 3119 1398 2916
Q 1625 2713 2034 2713
Q 2441 2713 2670 2916
Q 2900 3119 2900 3481
Q 2900 3844 2670 4047
Q 2441 4250 2034 4250
Q 1625 4250 1398 4047
Q 1172 3844 1172 3481
z
" transform="scale(0.015625)"/>
       </defs>
       <use xlink:href="#DejaVuSans-38"/>
      </g>
     </g>
    </g>
    <g id="ytick_6">
     <g id="line2d_14">
      <path d="M 49.423438 142.822378
L 678.323437 142.822378
" clip-path="url(#pe740548dbb)" style="fill: none; stroke: #e2e8f0; stroke-opacity: 0.55; stroke-width: 0.9; stroke-linecap: square"/>
     </g>
     <g id="line2d_15"/>
     <g id="text_9">
      <!-- 10 -->
      <g style="fill: #334155" transform="translate(31.925938 147.001519) scale(0.11 -0.11)">
       <defs>
        <path id="DejaVuSans-31" d="M 794 531
L 1825 531
L 1825 4091
L 703 3866
L 703 4441
L 1819 4666
L 2450 4666
L 2450 531
L 3481 531
L 3481 0
L 794 0
L 794 531
z
" transform="scale(0.015625)"/>
       </defs>
       <use xlink:href="#DejaVuSans-31"/>
       <use xlink:href="#DejaVuSans-30" transform="translate(63.623047 0)"/>
      </g>
     </g>
    </g>
    <g id="ytick_7">
     <g id="line2d_16">
      <path d="M 49.423438 103.856925
L 678.323437 103.856925
" clip-path="url(#pe740548dbb)" style="fill: none; stroke: #e2e8f0; stroke-opacity: 0.55; stroke-width: 0.9; stroke-linecap: square"/>
     </g>
     <g id="line2d_17"/>
     <g id="text_10">
      <!-- 12 -->
      <g style="fill: #334155" transform="translate(31.925938 108.036065) scale(0.11 -0.11)">
       <use xlink:href="#DejaVuSans-31"/>
       <use xlink:href="#DejaVuSans-32" transform="translate(63.623047 0)"/>
      </g>
     </g>
    </g>
    <g id="ytick_8">
     <g id="line2d_18">
      <path d="M 49.423438 64.891472
L 678.323437 64.891472
" clip-path="url(#pe740548dbb)" style="fill: none; stroke: #e2e8f0; stroke-opacity: 0.55; stroke-width: 0.9; stroke-linecap: square"/>
     </g>
     <g id="line2d_19"/>
     <g id="text_11">
      <!-- 14 -->
      <g style="fill: #334155" transform="translate(31.925938 69.070612) scale(0.11 -0.11)">
       <use xlink:href="#DejaVuSans-31"/>
       <use xlink:href="#DejaVuSans-34" transform="translate(63.623047 0)"/>
      </g>
     </g>
    </g>
    <g id="text_12">
     <!-- Warm median seconds -->
     <g style="fill: #0f172a" transform="translate(25.638281 254.746656) rotate(-90) scale(0.11 -0.11)">
      <defs>
       <path id="DejaVuSans-57" d="M 213 4666
L 850 4666
L 1831 722
L 2809 4666
L 3519 4666
L 4500 722
L 5478 4666
L 6119 4666
L 4947 0
L 4153 0
L 3169 4050
L 2175 0
L 1381 0
L 213 4666
z
" transform="scale(0.015625)"/>
       <path id="DejaVuSans-6d" d="M 3328 2828
Q 3544 3216 3844 3400
Q 4144 3584 4550 3584
Q 5097 3584 5394 3201
Q 5691 2819 5691 2113
L 5691 0
L 5113 0
L 5113 2094
Q 5113 2597 4934 2840
Q 4756 3084 4391 3084
Q 3944 3084 3684 2787
Q 3425 2491 3425 1978
L 3425 0
L 2847 0
L 2847 2094
Q 2847 2600 2669 2842
Q 2491 3084 2119 3084
Q 1678 3084 1418 2786
Q 1159 2488 1159 1978
L 1159 0
L 581 0
L 581 3500
L 1159 3500
L 1159 2956
Q 1356 3278 1631 3431
Q 1906 3584 2284 3584
Q 2666 3584 2933 3390
Q 3200 3197 3328 2828
z
" transform="scale(0.015625)"/>
      </defs>
      <use xlink:href="#DejaVuSans-57"/>
      <use xlink:href="#DejaVuSans-61" transform="translate(92.501953 0)"/>
      <use xlink:href="#DejaVuSans-72" transform="translate(153.78125 0)"/>
      <use xlink:href="#DejaVuSans-6d" transform="translate(193.144531 0)"/>
      <use xlink:href="#DejaVuSans-20" transform="translate(290.556641 0)"/>
      <use xlink:href="#DejaVuSans-6d" transform="translate(322.34375 0)"/>
      <use xlink:href="#DejaVuSans-65" transform="translate(419.755859 0)"/>
      <use xlink:href="#DejaVuSans-64" transform="translate(481.279297 0)"/>
      <use xlink:href="#DejaVuSans-69" transform="translate(544.755859 0)"/>
      <use xlink:href="#DejaVuSans-61" transform="translate(572.539062 0)"/>
      <use xlink:href="#DejaVuSans-6e" transform="translate(633.818359 0)"/>
      <use xlink:href="#DejaVuSans-20" transform="translate(697.197266 0)"/>
      <use xlink:href="#DejaVuSans-73" transform="translate(728.984375 0)"/>
      <use xlink:href="#DejaVuSans-65" transform="translate(781.083984 0)"/>
      <use xlink:href="#DejaVuSans-63" transform="translate(842.607422 0)"/>
      <use xlink:href="#DejaVuSans-6f" transform="translate(897.587891 0)"/>
      <use xlink:href="#DejaVuSans-6e" transform="translate(958.769531 0)"/>
      <use xlink:href="#DejaVuSans-64" transform="translate(1022.148438 0)"/>
      <use xlink:href="#DejaVuSans-73" transform="translate(1085.625 0)"/>
     </g>
    </g>
   </g>
   <g id="patch_3">
    <path d="M 78.009801 337.649645
L 206.537638 337.649645
L 206.537638 335.019477
L 78.009801 335.019477
z
" clip-path="url(#pe740548dbb)" style="fill: #557a95"/>
   </g>
   <g id="patch_4">
    <path d="M 299.609519 337.649645
L 428.137356 337.649645
L 428.137356 321.377671
L 299.609519 321.377671
z
" clip-path="url(#pe740548dbb)" style="fill: #557a95"/>
   </g>
   <g id="patch_5">
    <path d="M 521.209237 337.649645
L 649.737074 337.649645
L 649.737074 225.857759
L 521.209237 225.857759
z
" clip-path="url(#pe740548dbb)" style="fill: #557a95"/>
   </g>
   <g id="patch_6">
    <path d="M 78.009801 335.019477
L 206.537638 335.019477
L 206.537638 334.547995
L 78.009801 334.547995
z
" clip-path="url(#pe740548dbb)" style="fill: #d17c2f"/>
   </g>
   <g id="patch_7">
    <path d="M 299.609519 321.377671
L 428.137356 321.377671
L 428.137356 298.323761
L 299.609519 298.323761
z
" clip-path="url(#pe740548dbb)" style="fill: #d17c2f"/>
   </g>
   <g id="patch_8">
    <path d="M 521.209237 225.857759
L 649.737074 225.857759
L 649.737074 163.563689
L 521.209237 163.563689
z
" clip-path="url(#pe740548dbb)" style="fill: #d17c2f"/>
   </g>
   <g id="patch_9">
    <path d="M 78.009801 334.547995
L 206.537638 334.547995
L 206.537638 332.817929
L 78.009801 332.817929
z
" clip-path="url(#pe740548dbb)" style="fill: #14866d"/>
   </g>
   <g id="patch_10">
    <path d="M 299.609519 298.323761
L 428.137356 298.323761
L 428.137356 291.857444
L 299.609519 291.857444
z
" clip-path="url(#pe740548dbb)" style="fill: #14866d"/>
   </g>
   <g id="patch_11">
    <path d="M 521.209237 163.563689
L 649.737074 163.563689
L 649.737074 95.187111
L 521.209237 95.187111
z
" clip-path="url(#pe740548dbb)" style="fill: #14866d"/>
   </g>
   <g id="patch_12">
    <path d="M 49.423438 337.649645
L 49.423438 46.694605
" style="fill: none; stroke: #cbd5e1; stroke-width: 0.8; stroke-linejoin: miter; stroke-linecap: square"/>
   </g>
   <g id="patch_13">
    <path d="M 49.423438 337.649645
L 678.323437 337.649645
" style="fill: none; stroke: #cbd5e1; stroke-width: 0.8; stroke-linejoin: miter; stroke-linecap: square"/>
   </g>
   <g id="text_13">
    <g id="patch_14">
     <path d="M 128.536219 330.380738
L 156.011219 330.380738
Q 158.811219 330.380738 158.811219 327.580738
L 158.811219 317.902613
Q 158.811219 315.102613 156.011219 315.102613
L 128.536219 315.102613
Q 125.736219 315.102613 125.736219 317.902613
L 125.736219 327.580738
Q 125.736219 330.380738 128.536219 330.380738
z
" style="fill: #ffffff; stroke: #cbd5e1; stroke-width: 0.9; stroke-linejoin: miter"/>
    </g>
    <!-- 0.25s -->
    <g style="fill: #0f172a" transform="translate(128.536219 325.50105) scale(0.1 -0.1)">
     <defs>
      <path id="DejaVuSans-2e" d="M 684 794
L 1344 794
L 1344 0
L 684 0
L 684 794
z
" transform="scale(0.015625)"/>
      <path id="DejaVuSans-35" d="M 691 4666
L 3169 4666
L 3169 4134
L 1269 4134
L 1269 2991
Q 1406 3038 1543 3061
Q 1681 3084 1819 3084
Q 2600 3084 3056 2656
Q 3513 2228 3513 1497
Q 3513 744 3044 326
Q 2575 -91 1722 -91
Q 1428 -91 1123 -41
Q 819 9 494 109
L 494 744
Q 775 591 1075 516
Q 1375 441 1709 441
Q 2250 441 2565 725
Q 2881 1009 2881 1497
Q 2881 1984 2565 2268
Q 2250 2553 1709 2553
Q 1456 2553 1204 2497
Q 953 2441 691 2322
L 691 4666
z
" transform="scale(0.015625)"/>
     </defs>
     <use xlink:href="#DejaVuSans-30"/>
     <use xlink:href="#DejaVuSans-2e" transform="translate(63.623047 0)"/>
     <use xlink:href="#DejaVuSans-32" transform="translate(95.410156 0)"/>
     <use xlink:href="#DejaVuSans-35" transform="translate(159.033203 0)"/>
     <use xlink:href="#DejaVuSans-73" transform="translate(222.65625 0)"/>
    </g>
   </g>
   <g id="text_14">
    <g id="patch_15">
     <path d="M 350.135938 289.420253
L 377.610938 289.420253
Q 380.410937 289.420253 380.410937 286.620253
L 380.410937 276.942128
Q 380.410937 274.142128 377.610938 274.142128
L 350.135938 274.142128
Q 347.335938 274.142128 347.335938 276.942128
L 347.335938 286.620253
Q 347.335938 289.420253 350.135938 289.420253
z
" style="fill: #ffffff; stroke: #cbd5e1; stroke-width: 0.9; stroke-linejoin: miter"/>
    </g>
    <!-- 2.35s -->
    <g style="fill: #0f172a" transform="translate(350.135938 284.540566) scale(0.1 -0.1)">
     <defs>
      <path id="DejaVuSans-33" d="M 2597 2516
Q 3050 2419 3304 2112
Q 3559 1806 3559 1356
Q 3559 666 3084 287
Q 2609 -91 1734 -91
Q 1441 -91 1130 -33
Q 819 25 488 141
L 488 750
Q 750 597 1062 519
Q 1375 441 1716 441
Q 2309 441 2620 675
Q 2931 909 2931 1356
Q 2931 1769 2642 2001
Q 2353 2234 1838 2234
L 1294 2234
L 1294 2753
L 1863 2753
Q 2328 2753 2575 2939
Q 2822 3125 2822 3475
Q 2822 3834 2567 4026
Q 2313 4219 1838 4219
Q 1578 4219 1281 4162
Q 984 4106 628 3988
L 628 4550
Q 988 4650 1302 4700
Q 1616 4750 1894 4750
Q 2613 4750 3031 4423
Q 3450 4097 3450 3541
Q 3450 3153 3228 2886
Q 3006 2619 2597 2516
z
" transform="scale(0.015625)"/>
     </defs>
     <use xlink:href="#DejaVuSans-32"/>
     <use xlink:href="#DejaVuSans-2e" transform="translate(63.623047 0)"/>
     <use xlink:href="#DejaVuSans-33" transform="translate(95.410156 0)"/>
     <use xlink:href="#DejaVuSans-35" transform="translate(159.033203 0)"/>
     <use xlink:href="#DejaVuSans-73" transform="translate(222.65625 0)"/>
    </g>
   </g>
   <g id="text_15">
    <g id="patch_16">
     <path d="M 568.554406 92.749921
L 602.391906 92.749921
Q 605.191906 92.749921 605.191906 89.949921
L 605.191906 80.271796
Q 605.191906 77.471796 602.391906 77.471796
L 568.554406 77.471796
Q 565.754406 77.471796 565.754406 80.271796
L 565.754406 89.949921
Q 565.754406 92.749921 568.554406 92.749921
z
" style="fill: #ffffff; stroke: #cbd5e1; stroke-width: 0.9; stroke-linejoin: miter"/>
    </g>
    <!-- 12.45s -->
    <g style="fill: #0f172a" transform="translate(568.554406 87.870233) scale(0.1 -0.1)">
     <use xlink:href="#DejaVuSans-31"/>
     <use xlink:href="#DejaVuSans-32" transform="translate(63.623047 0)"/>
     <use xlink:href="#DejaVuSans-2e" transform="translate(127.246094 0)"/>
     <use xlink:href="#DejaVuSans-34" transform="translate(159.033203 0)"/>
     <use xlink:href="#DejaVuSans-35" transform="translate(222.65625 0)"/>
     <use xlink:href="#DejaVuSans-73" transform="translate(286.279297 0)"/>
    </g>
   </g>
   <g id="text_16">
    <!-- Where the Twitter pipeline spends time -->
    <g transform="translate(185.304688 32.694605) scale(0.16 -0.16)">
     <defs>
      <path id="DejaVuSans-Bold-57" d="M 191 4666
L 1344 4666
L 2150 1275
L 2950 4666
L 4109 4666
L 4909 1275
L 5716 4666
L 6859 4666
L 5759 0
L 4372 0
L 3525 3547
L 2688 0
L 1300 0
L 191 4666
z
" transform="scale(0.015625)"/>
      <path id="DejaVuSans-Bold-68" d="M 4056 2131
L 4056 0
L 2931 0
L 2931 347
L 2931 1625
Q 2931 2084 2911 2256
Q 2891 2428 2841 2509
Q 2775 2619 2662 2680
Q 2550 2741 2406 2741
Q 2056 2741 1856 2470
Q 1656 2200 1656 1722
L 1656 0
L 538 0
L 538 4863
L 1656 4863
L 1656 2988
Q 1909 3294 2193 3439
Q 2478 3584 2822 3584
Q 3428 3584 3742 3212
Q 4056 2841 4056 2131
z
" transform="scale(0.015625)"/>
      <path id="DejaVuSans-Bold-65" d="M 4031 1759
L 4031 1441
L 1416 1441
Q 1456 1047 1700 850
Q 1944 653 2381 653
Q 2734 653 3104 758
Q 3475 863 3866 1075
L 3866 213
Q 3469 63 3072 -14
Q 2675 -91 2278 -91
Q 1328 -91 801 392
Q 275 875 275 1747
Q 275 2603 792 3093
Q 1309 3584 2216 3584
Q 3041 3584 3536 3087
Q 4031 2591 4031 1759
z
M 2881 2131
Q 2881 2450 2695 2645
Q 2509 2841 2209 2841
Q 1884 2841 1681 2658
Q 1478 2475 1428 2131
L 2881 2131
z
" transform="scale(0.015625)"/>
      <path id="DejaVuSans-Bold-72" d="M 3138 2547
Q 2991 2616 2845 2648
Q 2700 2681 2553 2681
Q 2122 2681 1889 2404
Q 1656 2128 1656 1613
L 1656 0
L 538 0
L 538 3500
L 1656 3500
L 1656 2925
Q 1872 3269 2151 3426
Q 2431 3584 2822 3584
Q 2878 3584 2943 3579
Q 3009 3575 3134 3559
L 3138 2547
z
" transform="scale(0.015625)"/>
      <path id="DejaVuSans-Bold-20" transform="scale(0.015625)"/>
      <path id="DejaVuSans-Bold-74" d="M 1759 4494
L 1759 3500
L 2913 3500
L 2913 2700
L 1759 2700
L 1759 1216
Q 1759 972 1856 886
Q 1953 800 2241 800
L 2816 800
L 2816 0
L 1856 0
Q 1194 0 917 276
Q 641 553 641 1216
L 641 2700
L 84 2700
L 84 3500
L 641 3500
L 641 4494
L 1759 4494
z
" transform="scale(0.015625)"/>
      <path id="DejaVuSans-Bold-54" d="M 31 4666
L 4331 4666
L 4331 3756
L 2784 3756
L 2784 0
L 1581 0
L 1581 3756
L 31 3756
L 31 4666
z
" transform="scale(0.015625)"/>
      <path id="DejaVuSans-Bold-77" d="M 225 3500
L 1313 3500
L 1900 1088
L 2491 3500
L 3425 3500
L 4013 1113
L 4603 3500
L 5691 3500
L 4769 0
L 3547 0
L 2956 2406
L 2369 0
L 1147 0
L 225 3500
z
" transform="scale(0.015625)"/>
      <path id="DejaVuSans-Bold-69" d="M 538 3500
L 1656 3500
L 1656 0
L 538 0
L 538 3500
z
M 538 4863
L 1656 4863
L 1656 3950
L 538 3950
L 538 4863
z
" transform="scale(0.015625)"/>
      <path id="DejaVuSans-Bold-70" d="M 1656 506
L 1656 -1331
L 538 -1331
L 538 3500
L 1656 3500
L 1656 2988
Q 1888 3294 2169 3439
Q 2450 3584 2816 3584
Q 3463 3584 3878 3070
Q 4294 2556 4294 1747
Q 4294 938 3878 423
Q 3463 -91 2816 -91
Q 2450 -91 2169 54
Q 1888 200 1656 506
z
M 2400 2772
Q 2041 2772 1848 2508
Q 1656 2244 1656 1747
Q 1656 1250 1848 986
Q 2041 722 2400 722
Q 2759 722 2948 984
Q 3138 1247 3138 1747
Q 3138 2247 2948 2509
Q 2759 2772 2400 2772
z
" transform="scale(0.015625)"/>
      <path id="DejaVuSans-Bold-6c" d="M 538 4863
L 1656 4863
L 1656 0
L 538 0
L 538 4863
z
" transform="scale(0.015625)"/>
      <path id="DejaVuSans-Bold-6e" d="M 4056 2131
L 4056 0
L 2931 0
L 2931 347
L 2931 1631
Q 2931 2084 2911 2256
Q 2891 2428 2841 2509
Q 2775 2619 2662 2680
Q 2550 2741 2406 2741
Q 2056 2741 1856 2470
Q 1656 2200 1656 1722
L 1656 0
L 538 0
L 538 3500
L 1656 3500
L 1656 2988
Q 1909 3294 2193 3439
Q 2478 3584 2822 3584
Q 3428 3584 3742 3212
Q 4056 2841 4056 2131
z
" transform="scale(0.015625)"/>
      <path id="DejaVuSans-Bold-73" d="M 3272 3391
L 3272 2541
Q 2913 2691 2578 2766
Q 2244 2841 1947 2841
Q 1628 2841 1473 2761
Q 1319 2681 1319 2516
Q 1319 2381 1436 2309
Q 1553 2238 1856 2203
L 2053 2175
Q 2913 2066 3209 1816
Q 3506 1566 3506 1031
Q 3506 472 3093 190
Q 2681 -91 1863 -91
Q 1516 -91 1145 -36
Q 775 19 384 128
L 384 978
Q 719 816 1070 734
Q 1422 653 1784 653
Q 2113 653 2278 743
Q 2444 834 2444 1013
Q 2444 1163 2330 1236
Q 2216 1309 1875 1350
L 1678 1375
Q 931 1469 631 1722
Q 331 1975 331 2491
Q 331 3047 712 3315
Q 1094 3584 1881 3584
Q 2191 3584 2531 3537
Q 2872 3491 3272 3391
z
" transform="scale(0.015625)"/>
      <path id="DejaVuSans-Bold-64" d="M 2919 2988
L 2919 4863
L 4044 4863
L 4044 0
L 2919 0
L 2919 506
Q 2688 197 2409 53
Q 2131 -91 1766 -91
Q 1119 -91 703 423
Q 288 938 288 1747
Q 288 2556 703 3070
Q 1119 3584 1766 3584
Q 2128 3584 2408 3439
Q 2688 3294 2919 2988
z
M 2181 722
Q 2541 722 2730 984
Q 2919 1247 2919 1747
Q 2919 2247 2730 2509
Q 2541 2772 2181 2772
Q 1825 2772 1636 2509
Q 1447 2247 1447 1747
Q 1447 1247 1636 984
Q 1825 722 2181 722
z
" transform="scale(0.015625)"/>
      <path id="DejaVuSans-Bold-6d" d="M 3781 2919
Q 3994 3244 4286 3414
Q 4578 3584 4928 3584
Q 5531 3584 5847 3212
Q 6163 2841 6163 2131
L 6163 0
L 5038 0
L 5038 1825
Q 5041 1866 5042 1909
Q 5044 1953 5044 2034
Q 5044 2406 4934 2573
Q 4825 2741 4581 2741
Q 4263 2741 4089 2478
Q 3916 2216 3909 1719
L 3909 0
L 2784 0
L 2784 1825
Q 2784 2406 2684 2573
Q 2584 2741 2328 2741
Q 2006 2741 1831 2477
Q 1656 2213 1656 1722
L 1656 0
L 531 0
L 531 3500
L 1656 3500
L 1656 2988
Q 1863 3284 2130 3434
Q 2397 3584 2719 3584
Q 3081 3584 3359 3409
Q 3638 3234 3781 2919
z
" transform="scale(0.015625)"/>
     </defs>
     <use xlink:href="#DejaVuSans-Bold-57"/>
     <use xlink:href="#DejaVuSans-Bold-68" transform="translate(110.302734 0)"/>
     <use xlink:href="#DejaVuSans-Bold-65" transform="translate(181.494141 0)"/>
     <use xlink:href="#DejaVuSans-Bold-72" transform="translate(249.316406 0)"/>
     <use xlink:href="#DejaVuSans-Bold-65" transform="translate(298.632812 0)"/>
     <use xlink:href="#DejaVuSans-Bold-20" transform="translate(366.455078 0)"/>
     <use xlink:href="#DejaVuSans-Bold-74" transform="translate(401.269531 0)"/>
     <use xlink:href="#DejaVuSans-Bold-68" transform="translate(449.072266 0)"/>
     <use xlink:href="#DejaVuSans-Bold-65" transform="translate(520.263672 0)"/>
     <use xlink:href="#DejaVuSans-Bold-20" transform="translate(588.085938 0)"/>
     <use xlink:href="#DejaVuSans-Bold-54" transform="translate(622.900391 0)"/>
     <use xlink:href="#DejaVuSans-Bold-77" transform="translate(680.113281 0)"/>
     <use xlink:href="#DejaVuSans-Bold-69" transform="translate(772.496094 0)"/>
     <use xlink:href="#DejaVuSans-Bold-74" transform="translate(806.773438 0)"/>
     <use xlink:href="#DejaVuSans-Bold-74" transform="translate(854.576172 0)"/>
     <use xlink:href="#DejaVuSans-Bold-65" transform="translate(902.378906 0)"/>
     <use xlink:href="#DejaVuSans-Bold-72" transform="translate(970.201172 0)"/>
     <use xlink:href="#DejaVuSans-Bold-20" transform="translate(1019.517578 0)"/>
     <use xlink:href="#DejaVuSans-Bold-70" transform="translate(1054.332031 0)"/>
     <use xlink:href="#DejaVuSans-Bold-69" transform="translate(1125.914062 0)"/>
     <use xlink:href="#DejaVuSans-Bold-70" transform="translate(1160.191406 0)"/>
     <use xlink:href="#DejaVuSans-Bold-65" transform="translate(1231.773438 0)"/>
     <use xlink:href="#DejaVuSans-Bold-6c" transform="translate(1299.595703 0)"/>
     <use xlink:href="#DejaVuSans-Bold-69" transform="translate(1333.873047 0)"/>
     <use xlink:href="#DejaVuSans-Bold-6e" transform="translate(1368.150391 0)"/>
     <use xlink:href="#DejaVuSans-Bold-65" transform="translate(1439.341797 0)"/>
     <use xlink:href="#DejaVuSans-Bold-20" transform="translate(1507.164062 0)"/>
     <use xlink:href="#DejaVuSans-Bold-73" transform="translate(1541.978516 0)"/>
     <use xlink:href="#DejaVuSans-Bold-70" transform="translate(1601.5 0)"/>
     <use xlink:href="#DejaVuSans-Bold-65" transform="translate(1673.082031 0)"/>
     <use xlink:href="#DejaVuSans-Bold-6e" transform="translate(1740.904297 0)"/>
     <use xlink:href="#DejaVuSans-Bold-64" transform="translate(1812.095703 0)"/>
     <use xlink:href="#DejaVuSans-Bold-73" transform="translate(1883.677734 0)"/>
     <use xlink:href="#DejaVuSans-Bold-20" transform="translate(1943.199219 0)"/>
     <use xlink:href="#DejaVuSans-Bold-74" transform="translate(1978.013672 0)"/>
     <use xlink:href="#DejaVuSans-Bold-69" transform="translate(2025.816406 0)"/>
     <use xlink:href="#DejaVuSans-Bold-6d" transform="translate(2060.09375 0)"/>
     <use xlink:href="#DejaVuSans-Bold-65" transform="translate(2164.292969 0)"/>
    </g>
   </g>
   <g id="legend_1">
    <g id="patch_17">
     <path d="M 220.338047 30.038281
L 242.338047 30.038281
L 242.338047 22.338281
L 220.338047 22.338281
z
" style="fill: #557a95"/>
    </g>
    <g id="text_17">
     <!-- Search 1 -->
     <g transform="translate(251.138047 30.038281) scale(0.11 -0.11)">
      <use xlink:href="#DejaVuSans-53"/>
      <use xlink:href="#DejaVuSans-65" transform="translate(63.476562 0)"/>
      <use xlink:href="#DejaVuSans-61" transform="translate(125 0)"/>
      <use xlink:href="#DejaVuSans-72" transform="translate(186.279297 0)"/>
      <use xlink:href="#DejaVuSans-63" transform="translate(225.142578 0)"/>
      <use xlink:href="#DejaVuSans-68" transform="translate(280.123047 0)"/>
      <use xlink:href="#DejaVuSans-20" transform="translate(343.501953 0)"/>
      <use xlink:href="#DejaVuSans-31" transform="translate(375.289062 0)"/>
     </g>
    </g>
    <g id="patch_18">
     <path d="M 321.419453 30.038281
L 343.419453 30.038281
L 343.419453 22.338281
L 321.419453 22.338281
z
" style="fill: #d17c2f"/>
    </g>
    <g id="text_18">
     <!-- PageRank -->
     <g transform="translate(352.219453 30.038281) scale(0.11 -0.11)">
      <defs>
       <path id="DejaVuSans-52" d="M 2841 2188
Q 3044 2119 3236 1894
Q 3428 1669 3622 1275
L 4263 0
L 3584 0
L 2988 1197
Q 2756 1666 2539 1819
Q 2322 1972 1947 1972
L 1259 1972
L 1259 0
L 628 0
L 628 4666
L 2053 4666
Q 2853 4666 3247 4331
Q 3641 3997 3641 3322
Q 3641 2881 3436 2590
Q 3231 2300 2841 2188
z
M 1259 4147
L 1259 2491
L 2053 2491
Q 2509 2491 2742 2702
Q 2975 2913 2975 3322
Q 2975 3731 2742 3939
Q 2509 4147 2053 4147
L 1259 4147
z
" transform="scale(0.015625)"/>
       <path id="DejaVuSans-6b" d="M 581 4863
L 1159 4863
L 1159 1991
L 2875 3500
L 3609 3500
L 1753 1863
L 3688 0
L 2938 0
L 1159 1709
L 1159 0
L 581 0
L 581 4863
z
" transform="scale(0.015625)"/>
      </defs>
      <use xlink:href="#DejaVuSans-50"/>
      <use xlink:href="#DejaVuSans-61" transform="translate(55.802734 0)"/>
      <use xlink:href="#DejaVuSans-67" transform="translate(117.082031 0)"/>
      <use xlink:href="#DejaVuSans-65" transform="translate(180.558594 0)"/>
      <use xlink:href="#DejaVuSans-52" transform="translate(242.082031 0)"/>
      <use xlink:href="#DejaVuSans-61" transform="translate(309.314453 0)"/>
      <use xlink:href="#DejaVuSans-6e" transform="translate(370.59375 0)"/>
      <use xlink:href="#DejaVuSans-6b" transform="translate(433.972656 0)"/>
     </g>
    </g>
    <g id="patch_19">
     <path d="M 428.327422 30.038281
L 450.327422 30.038281
L 450.327422 22.338281
L 428.327422 22.338281
z
" style="fill: #14866d"/>
    </g>
    <g id="text_19">
     <!-- Search 2 -->
     <g transform="translate(459.127422 30.038281) scale(0.11 -0.11)">
      <use xlink:href="#DejaVuSans-53"/>
      <use xlink:href="#DejaVuSans-65" transform="translate(63.476562 0)"/>
      <use xlink:href="#DejaVuSans-61" transform="translate(125 0)"/>
      <use xlink:href="#DejaVuSans-72" transform="translate(186.279297 0)"/>
      <use xlink:href="#DejaVuSans-63" transform="translate(225.142578 0)"/>
      <use xlink:href="#DejaVuSans-68" transform="translate(280.123047 0)"/>
      <use xlink:href="#DejaVuSans-20" transform="translate(343.501953 0)"/>
      <use xlink:href="#DejaVuSans-32" transform="translate(375.289062 0)"/>
     </g>
    </g>
   </g>
  </g>
 </g>
 <defs>
  <clipPath id="pe740548dbb">
   <rect x="49.423438" y="46.694605" width="628.9" height="290.95504"/>
  </clipPath>
 </defs>
</svg>
