<?xml version="1.0" encoding="UTF-8" standalone="no"?>
<!DOCTYPE svg PUBLIC "-//W3C//DTD SVG 1.1//EN"
 "http://www.w3.org/Graphics/SVG/1.1/DTD/svg11.dtd">
<!-- Generated by graphviz version 2.43.0 (0)
 -->
<!-- Pages: 1 -->
<svg width="1015pt" height="1470pt"
 viewBox="0.00 0.00 1014.59 1469.90" xmlns="http://www.w3.org/2000/svg" xmlns:xlink="http://www.w3.org/1999/xlink">
<g id="graph0" class="graph" transform="scale(1 1) rotate(0) translate(4 1465.9)">
<polygon fill="white" stroke="transparent" points="-4,4 -4,-1465.9 1010.59,-1465.9 1010.59,4 -4,4"/>
<!-- a -->
<g id="a" class="node">
<title>a</title>
<ellipse fill="none" stroke="black" cx="829.98" cy="-999.2" rx="27" ry="18"/>
<text text-anchor="middle" x="829.98" y="-995.5" font-family="Times,serif" font-size="14.00">a</text>
</g>
<!-- b -->
<g id="b" class="node">
<title>b</title>
<ellipse fill="none" stroke="black" cx="862.58" cy="-1269" rx="27" ry="18"/>
<text text-anchor="middle" x="862.58" y="-1265.3" font-family="Times,serif" font-size="14.00">b</text>
</g>
<!-- a&#45;&gt;b -->
<g id="edge1" class="edge">
<title>a&#45;&gt;b</title>
<path fill="none" stroke="black" d="M832.17,-1017.3C837.74,-1063.4 852.47,-1185.3 859.17,-1240.8"/>
<polygon fill="black" stroke="black" points="855.73,-1241.49 860.4,-1251 862.68,-1240.65 855.73,-1241.49"/>
</g>
<!-- tx1 -->
<g id="tx1" class="node">
<title>tx1</title>
<ellipse fill="none" stroke="black" cx="27" cy="-1093.6" rx="27" ry="18"/>
<text text-anchor="middle" x="27" y="-1089.9" font-family="Times,serif" font-size="14.00">tx1</text>
</g>
<!-- a&#45;&gt;tx1 -->
<g id="edge2" class="edge">
<title>a&#45;&gt;tx1</title>
<path fill="none" stroke="black" d="M803.27,-1002.3C684.18,-1016.3 201.6,-1073.1 63.87,-1089.3"/>
<polygon fill="black" stroke="black" points="63.33,-1085.84 53.82,-1090.5 64.16,-1092.79 63.33,-1085.84"/>
</g>
<!-- c -->
<g id="c" class="node">
<title>c</title>
<ellipse fill="none" stroke="black" cx="485.83" cy="-1443.9" rx="27" ry="18"/>
<text text-anchor="middle" x="485.83" y="-1440.2" font-family="Times,serif" font-size="14.00">c</text>
</g>
<!-- b&#45;&gt;c -->
<g id="edge3" class="edge">
<title>b&#45;&gt;c</title>
<path fill="none" stroke="black" d="M840.42,-1279.3C776.57,-1308.9 592.01,-1394.6 517.54,-1429.2"/>
<polygon fill="black" stroke="black" points="515.82,-1426.14 508.2,-1433.5 518.75,-1432.5 515.82,-1426.14"/>
</g>
<!-- tx2 -->
<g id="tx2" class="node">
<title>tx2</title>
<ellipse fill="none" stroke="black" cx="138.17" cy="-361.04" rx="27" ry="18"/>
<text text-anchor="middle" x="138.17" y="-357.34" font-family="Times,serif" font-size="14.00">tx2</text>
</g>
<!-- tx1&#45;&gt;tx2 -->
<g id="edge4" class="edge">
<title>tx1&#45;&gt;tx2</title>
<path fill="none" stroke="black" d="M29.75,-1075.5C44.63,-977.43 115.58,-509.91 133.86,-389.42"/>
<polygon fill="black" stroke="black" points="137.38,-389.58 135.42,-379.17 130.46,-388.53 137.38,-389.58"/>
</g>
<!-- d -->
<g id="d" class="node">
<title>d</title>
<ellipse fill="none" stroke="black" cx="979.59" cy="-18" rx="27" ry="18"/>
<text text-anchor="middle" x="979.59" y="-14.3" font-family="Times,serif" font-size="14.00">d</text>
</g>
<!-- c&#45;&gt;d -->
<g id="edge5" class="edge">
<title>c&#45;&gt;d</title>
<path fill="none" stroke="black" d="M491.98,-1426.1C543.78,-1276.5 906.65,-228.63 970.12,-45.33"/>
<polygon fill="black" stroke="black" points="973.51,-46.24 973.48,-35.64 966.9,-43.94 973.51,-46.24"/>
</g>
<!-- tx2&#45;&gt;c -->
<g id="edge6" class="edge">
<title>tx2&#45;&gt;c</title>
<path fill="none" stroke="black" d="M143.91,-378.93C184.47,-505.27 427.56,-1262.4 477.04,-1416.5"/>
<polygon fill="black" stroke="black" points="473.76,-1417.74 480.14,-1426.2 480.43,-1415.61 473.76,-1417.74"/>
</g>
</g>
</svg>
