<?xml version="1.0" encoding="UTF-8" standalone="no"?>
<!DOCTYPE svg PUBLIC "-//W3C//DTD SVG 1.1//EN"
 "http://www.w3.org/Graphics/SVG/1.1/DTD/svg11.dtd">
<!-- Generated by graphviz version 2.43.0 (0)
 -->
<!-- Pages: 1 -->
<svg width="63pt" height="45pt"
 viewBox="0.00 0.00 63.48 45.29" xmlns="http://www.w3.org/2000/svg" xmlns:xlink="http://www.w3.org/1999/xlink">
<g id="graph0" class="graph" transform="scale(1 1) rotate(0) translate(4 41.29)">
<polygon fill="white" stroke="transparent" points="-4,4 -4,-41.29 59.48,-41.29 59.48,4 -4,4"/>
<!-- a -->
<g id="a" class="node">
<title>a</title>
<ellipse fill="none" stroke="black" cx="28.48" cy="-18.64" rx="27" ry="18"/>
<text text-anchor="middle" x="28.48" y="-14.94" font-family="Times,serif" font-size="14.00">a</text>
</g>
<!-- b -->
<g id="b" class="node">
<title>b</title>
<ellipse fill="none" stroke="black" cx="28.11" cy="-19.29" rx="27" ry="18"/>
<text text-anchor="middle" x="28.11" y="-15.59" font-family="Times,serif" font-size="14.00">b</text>
</g>
<!-- a&#45;&gt;b -->
<g id="edge1" class="edge">
<title>a&#45;&gt;b</title>
<path fill="none" stroke="black" d="M28.3,-18.96C28.28,-19 28.25,-19.05 28.23,-19.08"/>
<polygon fill="black" stroke="black" points="30.11,-8.77 28.17,-19.19 36.18,-12.25 30.11,-8.77"/>
</g>
<!-- tx1 -->
<g id="tx1" class="node">
<title>tx1</title>
<ellipse fill="none" stroke="black" cx="27.37" cy="-18" rx="27" ry="18"/>
<text text-anchor="middle" x="27.37" y="-14.3" font-family="Times,serif" font-size="14.00">tx1</text>
</g>
<!-- a&#45;&gt;tx1 -->
<g id="edge2" class="edge">
<title>a&#45;&gt;tx1</title>
<path fill="none" stroke="black" d="M27.55,-18.1C27.52,-18.09 27.5,-18.07 27.47,-18.06"/>
<polygon fill="black" stroke="black" points="37.85,-19.9 27.42,-18.03 34.41,-26 37.85,-19.9"/>
</g>
<!-- c -->
<g id="c" class="node">
<title>c</title>
<ellipse fill="none" stroke="black" cx="27.37" cy="-19.29" rx="27" ry="18"/>
<text text-anchor="middle" x="27.37" y="-15.59" font-family="Times,serif" font-size="14.00">c</text>
</g>
<!-- b&#45;&gt;c -->
<g id="edge3" class="edge">
<title>b&#45;&gt;c</title>
<path fill="none" stroke="black" d="M27.74,-19.29C27.7,-19.29 27.65,-19.29 27.61,-19.29"/>
<polygon fill="black" stroke="black" points="37.49,-15.79 27.49,-19.29 37.48,-22.79 37.49,-15.79"/>
</g>
<!-- tx2 -->
<g id="tx2" class="node">
<title>tx2</title>
<ellipse fill="none" stroke="black" cx="28.11" cy="-18" rx="27" ry="18"/>
<text text-anchor="middle" x="28.11" y="-14.3" font-family="Times,serif" font-size="14.00">tx2</text>
</g>
<!-- tx1&#45;&gt;tx2 -->
<g id="edge4" class="edge">
<title>tx1&#45;&gt;tx2</title>
<path fill="none" stroke="black" d="M27.74,-18C27.79,-18 27.84,-18 27.88,-18"/>
<polygon fill="black" stroke="black" points="18,-21.51 28,-18 18,-14.51 18,-21.51"/>
</g>
<!-- d -->
<g id="d" class="node">
<title>d</title>
<ellipse fill="none" stroke="black" cx="27" cy="-18.64" rx="27" ry="18"/>
<text text-anchor="middle" x="27" y="-14.94" font-family="Times,serif" font-size="14.00">d</text>
</g>
<!-- c&#45;&gt;d -->
<g id="edge5" class="edge">
<title>c&#45;&gt;d</title>
<path fill="none" stroke="black" d="M27.19,-18.96C27.16,-18.92 27.14,-18.88 27.12,-18.85"/>
<polygon fill="black" stroke="black" points="35.07,-25.68 27.06,-18.74 29,-29.16 35.07,-25.68"/>
</g>
<!-- tx2&#45;&gt;c -->
<g id="edge6" class="edge">
<title>tx2&#45;&gt;c</title>
<path fill="none" stroke="black" d="M27.49,-19.09C27.47,-19.11 27.45,-19.14 27.44,-19.17"/>
<polygon fill="black" stroke="black" points="29.38,-8.82 27.4,-19.23 35.45,-12.33 29.38,-8.82"/>
</g>
</g>
</svg>
