<?xml version="1.0" encoding="UTF-8" standalone="no"?>
<!DOCTYPE svg PUBLIC "-//W3C//DTD SVG 1.1//EN"
 "http://www.w3.org/Graphics/SVG/1.1/DTD/svg11.dtd">
<!-- Generated by graphviz version 2.43.0 (0)
 -->
<!-- Pages: 1 -->
<svg width="134pt" height="332pt"
 viewBox="0.00 0.00 134.00 332.00" xmlns="http://www.w3.org/2000/svg" xmlns:xlink="http://www.w3.org/1999/xlink">
<g id="graph0" class="graph" transform="scale(1 1) rotate(0) translate(4 328)">
<polygon fill="white" stroke="transparent" points="-4,4 -4,-328 130,-328 130,4 -4,4"/>
<!-- a -->
<g id="a" class="node">
<title>a</title>
<ellipse fill="none" stroke="black" cx="62" cy="-306" rx="27" ry="18"/>
<text text-anchor="middle" x="62" y="-302.3" font-family="Times,serif" font-size="14.00">a</text>
</g>
<!-- b -->
<g id="b" class="node">
<title>b</title>
<ellipse fill="none" stroke="black" cx="27" cy="-162" rx="27" ry="18"/>
<text text-anchor="middle" x="27" y="-158.3" font-family="Times,serif" font-size="14.00">b</text>
</g>
<!-- a&#45;&gt;b -->
<g id="edge1" class="edge">
<title>a&#45;&gt;b</title>
<path fill="none" stroke="black" d="M57.64,-288.05C51.66,-263.48 40.88,-219.1 33.83,-190.1"/>
<polygon fill="black" stroke="black" points="37.18,-189.06 31.42,-180.17 30.38,-190.71 37.18,-189.06"/>
</g>
<!-- tx1 -->
<g id="tx1" class="node">
<title>tx1</title>
<ellipse fill="none" stroke="black" cx="94" cy="-234" rx="27" ry="18"/>
<text text-anchor="middle" x="94" y="-230.3" font-family="Times,serif" font-size="14.00">tx1</text>
</g>
<!-- a&#45;&gt;tx1 -->
<g id="edge2" class="edge">
<title>a&#45;&gt;tx1</title>
<path fill="none" stroke="black" d="M69.75,-288.57C73.48,-280.17 78.04,-269.91 82.19,-260.56"/>
<polygon fill="black" stroke="black" points="85.46,-261.83 86.33,-251.27 79.06,-258.99 85.46,-261.83"/>
</g>
<!-- c -->
<g id="c" class="node">
<title>c</title>
<ellipse fill="none" stroke="black" cx="63" cy="-90" rx="27" ry="18"/>
<text text-anchor="middle" x="63" y="-86.3" font-family="Times,serif" font-size="14.00">c</text>
</g>
<!-- b&#45;&gt;c -->
<g id="edge3" class="edge">
<title>b&#45;&gt;c</title>
<path fill="none" stroke="black" d="M35.72,-144.57C39.96,-136.08 45.15,-125.69 49.87,-116.27"/>
<polygon fill="black" stroke="black" points="53.02,-117.78 54.37,-107.27 46.76,-114.65 53.02,-117.78"/>
</g>
<!-- tx2 -->
<g id="tx2" class="node">
<title>tx2</title>
<ellipse fill="none" stroke="black" cx="99" cy="-162" rx="27" ry="18"/>
<text text-anchor="middle" x="99" y="-158.3" font-family="Times,serif" font-size="14.00">tx2</text>
</g>
<!-- tx1&#45;&gt;tx2 -->
<g id="edge4" class="edge">
<title>tx1&#45;&gt;tx2</title>
<path fill="none" stroke="black" d="M95.26,-215.83C95.8,-208.13 96.43,-198.97 97.03,-190.42"/>
<polygon fill="black" stroke="black" points="100.52,-190.63 97.72,-180.41 93.54,-190.14 100.52,-190.63"/>
</g>
<!-- d -->
<g id="d" class="node">
<title>d</title>
<ellipse fill="none" stroke="black" cx="63" cy="-18" rx="27" ry="18"/>
<text text-anchor="middle" x="63" y="-14.3" font-family="Times,serif" font-size="14.00">d</text>
</g>
<!-- c&#45;&gt;d -->
<g id="edge5" class="edge">
<title>c&#45;&gt;d</title>
<path fill="none" stroke="black" d="M63,-71.83C63,-64.13 63,-54.97 63,-46.42"/>
<polygon fill="black" stroke="black" points="66.5,-46.41 63,-36.41 59.5,-46.41 66.5,-46.41"/>
</g>
<!-- tx2&#45;&gt;c -->
<g id="edge6" class="edge">
<title>tx2&#45;&gt;c</title>
<path fill="none" stroke="black" d="M90.28,-144.57C86.04,-136.08 80.85,-125.69 76.13,-116.27"/>
<polygon fill="black" stroke="black" points="79.24,-114.65 71.63,-107.27 72.98,-117.78 79.24,-114.65"/>
</g>
</g>
</svg>
