<?xml version="1.0" encoding="UTF-8" standalone="no"?>
<!DOCTYPE svg PUBLIC "-//W3C//DTD SVG 1.1//EN"
 "http://www.w3.org/Graphics/SVG/1.1/DTD/svg11.dtd">
<!-- Generated by graphviz version 2.43.0 (0)
 -->
<!-- Pages: 1 -->
<svg width="332pt" height="98pt"
 viewBox="0.00 0.00 332.00 98.00" xmlns="http://www.w3.org/2000/svg" xmlns:xlink="http://www.w3.org/1999/xlink">
<g id="graph0" class="graph" transform="scale(1 1) rotate(0) translate(4 94)">
<polygon fill="white" stroke="transparent" points="-4,4 -4,-94 328,-94 328,4 -4,4"/>
<!-- a -->
<g id="a" class="node">
<title>a</title>
<ellipse fill="none" stroke="black" cx="27" cy="-45" rx="27" ry="18"/>
<text text-anchor="middle" x="27" y="-41.3" font-family="Times,serif" font-size="14.00">a</text>
</g>
<!-- b -->
<g id="b" class="node">
<title>b</title>
<ellipse fill="none" stroke="black" cx="207" cy="-72" rx="27" ry="18"/>
<text text-anchor="middle" x="207" y="-68.3" font-family="Times,serif" font-size="14.00">b</text>
</g>
<!-- a&#45;&gt;b -->
<g id="edge1" class="edge">
<title>a&#45;&gt;b</title>
<path fill="none" stroke="black" d="M53.5,-48.87C84.17,-53.52 135.82,-61.35 170.4,-66.6"/>
<polygon fill="black" stroke="black" points="170.13,-70.1 180.54,-68.14 171.18,-63.18 170.13,-70.1"/>
</g>
<!-- tx1 -->
<g id="tx1" class="node">
<title>tx1</title>
<ellipse fill="none" stroke="black" cx="117" cy="-22" rx="27" ry="18"/>
<text text-anchor="middle" x="117" y="-18.3" font-family="Times,serif" font-size="14.00">tx1</text>
</g>
<!-- a&#45;&gt;tx1 -->
<g id="edge2" class="edge">
<title>a&#45;&gt;tx1</title>
<path fill="none" stroke="black" d="M52.51,-38.59C61.57,-36.23 72.01,-33.5 81.78,-30.95"/>
<polygon fill="black" stroke="black" points="82.83,-34.29 91.62,-28.37 81.06,-27.51 82.83,-34.29"/>
</g>
<!-- c -->
<g id="c" class="node">
<title>c</title>
<ellipse fill="none" stroke="black" cx="297" cy="-45" rx="27" ry="18"/>
<text text-anchor="middle" x="297" y="-41.3" font-family="Times,serif" font-size="14.00">c</text>
</g>
<!-- b&#45;&gt;c -->
<g id="edge3" class="edge">
<title>b&#45;&gt;c</title>
<path fill="none" stroke="black" d="M232.05,-64.62C241.44,-61.74 252.36,-58.39 262.5,-55.28"/>
<polygon fill="black" stroke="black" points="263.76,-58.55 272.29,-52.27 261.7,-51.86 263.76,-58.55"/>
</g>
<!-- tx2 -->
<g id="tx2" class="node">
<title>tx2</title>
<ellipse fill="none" stroke="black" cx="207" cy="-18" rx="27" ry="18"/>
<text text-anchor="middle" x="207" y="-14.3" font-family="Times,serif" font-size="14.00">tx2</text>
</g>
<!-- tx1&#45;&gt;tx2 -->
<g id="edge4" class="edge">
<title>tx1&#45;&gt;tx2</title>
<path fill="none" stroke="black" d="M144.4,-20.8C152.39,-20.44 161.31,-20.03 169.82,-19.64"/>
<polygon fill="black" stroke="black" points="170.09,-23.14 179.92,-19.19 169.77,-16.14 170.09,-23.14"/>
</g>
<!-- tx2&#45;&gt;c -->
<g id="edge5" class="edge">
<title>tx2&#45;&gt;c</title>
<path fill="none" stroke="black" d="M232.05,-25.38C241.44,-28.26 252.36,-31.61 262.5,-34.72"/>
<polygon fill="black" stroke="black" points="261.7,-38.14 272.29,-37.73 263.76,-31.45 261.7,-38.14"/>
</g>
</g>
</svg>
